SplineFontDB: 3.0
FontName: Lohit-Odia
FullName: Lohit Odia
FamilyName: Lohit Odia
Weight: Book
Copyright: Copyright 2011-15 Lohit Fonts Project contributors.\n<http://fedorahosted.org/lohit>\nOpen type tables written by:\nPravin Satpute <psatpute AT redhat DOT com>\nShilpa Gite <sgite At redhat DOT com>\n
Version: 2.91.2
ItalicAngle: 0
UnderlinePosition: -300
UnderlineWidth: 20
Ascent: 778
Descent: 246
InvalidEm: 0
LayerCount: 2
Layer: 0 1 "Back" 1
Layer: 1 1 "Fore" 0
XUID: [1021 808 1214965479 15809157]
FSType: 0
OS2Version: 1
OS2_WeightWidthSlopeOnly: 0
OS2_UseTypoMetrics: 1
CreationTime: 1158849336
ModificationTime: 1422514473
PfmFamily: 33
TTFWeight: 400
TTFWidth: 5
LineGap: 200
VLineGap: 0
Panose: 2 11 6 0 0 0 0 0 0 0
OS2TypoAscent: 778
OS2TypoAOffset: 0
OS2TypoDescent: -246
OS2TypoDOffset: 0
OS2TypoLinegap: 0
OS2WinAscent: 1145
OS2WinAOffset: 0
OS2WinDescent: 625
OS2WinDOffset: 0
HheadAscent: 1145
HheadAOffset: 0
HheadDescent: -625
HheadDOffset: 0
OS2SubXSize: 717
OS2SubYSize: 666
OS2SubXOff: 0
OS2SubYOff: 205
OS2SupXSize: 717
OS2SupYSize: 666
OS2SupXOff: 0
OS2SupYOff: 512
OS2StrikeYSize: 50
OS2StrikeYPos: 250
OS2CapHeight: 0
OS2XHeight: 0
OS2Vendor: 'MODI'
Lookup: 4 0 0 "'blws' Below Base Substitutions in Oriya lookup 13" { "'blws' Below Base Substitutions in Oriya lookup 13-1"  } ['blws' ('ory2' <'dflt' > ) ]
Lookup: 6 0 0 "'blws' Below Base Substitutions in Oriya lookup 12" { "'blws' Below Base Substitutions in Oriya lookup 12-1"  } ['blws' ('ory2' <'dflt' > 'orya' <'dflt' > ) ]
Lookup: 1 0 0 "Single Substitution in Oriya lookup 8" { "Single Substitution in Oriya lookup 8-1"  } []
Lookup: 1 0 0 "Single Substitution in Oriya lookup 9" { "Single Substitution in Oriya lookup 9-1"  } []
Lookup: 6 0 0 "'blws' Below Base Substitutions in Oriya lookup 11" { "'blws' Below Base Substitutions in Oriya lookup 11-1"  } ['blws' ('ory2' <'dflt' > ) ]

StartChar: candrabinduodia
Encoding: 2817 2817 1
Width: 0
GlyphClass: 4
Flags: W
LayerCount: 2
Back
Fore
SplineSet
-279 909.5 m 0,0,1
 -332 966.964 -332 966.964 -332 1085 c 1,2,-1
 -258 1085 l 1,3,4
 -258 1004 -258 1004 -224 962.5 c 128,-1,5
 -190 921 -190 921 -123 921 c 0,6,7
 -57 921 -57 921 -23.5 962.5 c 128,-1,8
 10 1004 10 1004 10 1085 c 1,9,-1
 83 1085 l 1,10,11
 83 969 83 969 31 909.667 c 128,-1,12
 -21 850.333 -21 850.333 -115.333 850.086 c 25,13,14
 -222.333 847.333 -222.333 847.333 -279 909.5 c 0,0,1
-161 1011 m 0,15,16
 -175 1025.63 -175 1025.63 -175 1054 c 256,17,18
 -175 1081 -175 1081 -161 1097.5 c 128,-1,19
 -147 1114 -147 1114 -123 1114 c 0,20,21
 -100 1114 -100 1114 -86 1097.5 c 128,-1,22
 -72 1081 -72 1081 -72 1054 c 256,23,24
 -72 1027 -72 1027 -86 1011 c 0,25,26
 -98.9219 996.232 -98.9219 996.232 -118.667 995.147 c 24,27,28
 -146 993.778 -146 993.778 -161 1011 c 0,15,16
EndSplineSet
Validated: 33
EndChar

StartChar: anusvaraodia
Encoding: 2818 2818 2
Width: 339
GlyphClass: 4
Flags: W
LayerCount: 2
Back
Fore
SplineSet
65.5 504.5 m 16,0,1
 22 547.74 22 547.74 22 609 c 256,2,3
 22 670 22 670 65.5 713.5 c 128,-1,4
 109 757 109 757 170 757 c 256,5,6
 231 757 231 757 274.5 713.5 c 128,-1,7
 318 670 318 670 318 609 c 256,8,9
 318 548 318 548 274.5 504.5 c 128,-1,10
 231.002 461.002 231.002 461.002 170.889 461.002 c 24,11,12
 109.26 461.002 109.26 461.002 65.5 504.5 c 16,0,1
170 531 m 1,13,14
 201 531 201 531 223 554 c 128,-1,15
 245 577 245 577 245 609 c 256,16,17
 245 641 245 641 223 664 c 128,-1,18
 201 687 201 687 170 687 c 256,19,20
 139 687 139 687 117.5 664 c 128,-1,21
 96 641 96 641 96 609 c 256,22,23
 96 577 96 577 117.5 554 c 128,-1,24
 139 531 139 531 170 531 c 1,25,-1
 170 531 l 1,13,14
EndSplineSet
Validated: 5
EndChar

StartChar: visargaodia
Encoding: 2819 2819 3
Width: 409
GlyphClass: 4
Flags: W
LayerCount: 2
Back
Fore
SplineSet
203 14 m 1,0,1
 142 14 142 14 98.5 64.5 c 128,-1,2
 55 115 55 115 55 186 c 0,3,4
 55 226 55 226 82.5 271 c 128,-1,5
 110 316 110 316 159 357 c 1,6,7
 110 398 110 398 82.5 449 c 128,-1,8
 55 500 55 500 55 550 c 0,9,10
 55 618 55 618 98.5 665.5 c 128,-1,11
 142 713 142 713 203 713 c 256,12,13
 264 713 264 713 307.5 665.5 c 128,-1,14
 351 618 351 618 351 550 c 0,15,16
 351 500 351 500 328 450 c 128,-1,17
 305 400 305 400 262 357 c 1,18,19
 305 314 305 314 328 269.5 c 128,-1,20
 351 225 351 225 351 186 c 0,21,22
 351 115 351 115 307.5 64.5 c 128,-1,23
 264 14 264 14 203 14 c 1,24,-1
 203 14 l 1,0,1
203 90 m 1,25,26
 234 90 234 90 256 118 c 128,-1,27
 278 146 278 146 278 186 c 0,28,29
 278 216 278 216 258.5 249 c 128,-1,30
 239 282 239 282 203 312 c 1,31,32
 168 282 168 282 148.5 249 c 128,-1,33
 129 216 129 216 129 186 c 0,34,35
 129 146 129 146 150.5 118 c 128,-1,36
 172 90 172 90 203 90 c 1,37,-1
 203 90 l 1,25,26
203 394 m 1,38,39
 239 430 239 430 258.5 470.5 c 128,-1,40
 278 511 278 511 278 550 c 0,41,42
 278 586 278 586 256 612 c 128,-1,43
 234 638 234 638 203 638 c 256,44,45
 172 638 172 638 150.5 612 c 128,-1,46
 129 586 129 586 129 550 c 0,47,48
 129 505 129 505 148.5 464.5 c 128,-1,49
 168 424 168 424 203 394 c 1,50,-1
 203 394 l 1,38,39
EndSplineSet
Validated: 5
EndChar

StartChar: aodia
Encoding: 2821 2821 4
Width: 745
GlyphClass: 2
Flags: W
LayerCount: 2
Back
Fore
SplineSet
339 -14 m 1,0,1
 219 -14 219 -14 134 52 c 128,-1,2
 49 118 49 118 49 212 c 0,3,4
 49 295 49 295 114.5 361 c 128,-1,5
 180 427 180 427 281 445 c 0,6,7
 341 456 341 456 380.5 506 c 128,-1,8
 420 556 420 556 420 623 c 0,9,10
 420 651 420 651 404 670.5 c 128,-1,11
 388 690 388 690 365 690 c 256,12,13
 342 690 342 690 326 670.5 c 128,-1,14
 310 651 310 651 310 623 c 2,15,-1
 310 519 l 1,16,-1
 235 519 l 1,17,-1
 235 623 l 2,18,19
 235 651 235 651 219 670.5 c 128,-1,20
 203 690 203 690 180 690 c 256,21,22
 157 690 157 690 141 670.5 c 128,-1,23
 125 651 125 651 125 623 c 0,24,25
 125 604 125 604 133 590 c 128,-1,26
 141 576 141 576 154 571 c 0,27,28
 171 565 171 565 181 553 c 128,-1,29
 191 541 191 541 191 528 c 0,30,31
 191 514 191 514 179.5 504 c 128,-1,32
 168 494 168 494 151 494 c 0,33,34
 109 494 109 494 79 532 c 128,-1,35
 49 570 49 570 49 623 c 0,36,37
 49 687 49 687 82.5 722 c 128,-1,38
 116 757 116 757 177 757 c 0,39,40
 209 757 209 757 235 742 c 128,-1,41
 261 727 261 727 273 702 c 1,42,43
 280 726 280 726 307 741.5 c 128,-1,44
 334 757 334 757 371 757 c 0,45,46
 428 757 428 757 462 720.5 c 128,-1,47
 496 684 496 684 496 623 c 0,48,49
 496 536 496 536 441.5 470 c 128,-1,50
 387 404 387 404 303 389 c 0,51,52
 226 375 226 375 175.5 326 c 128,-1,53
 125 277 125 277 125 215 c 0,54,55
 125 147 125 147 187.5 99.5 c 128,-1,56
 250 52 250 52 339 52 c 0,57,58
 441 52 441 52 513.5 110.5 c 128,-1,59
 586 169 586 169 586 252 c 2,60,-1
 586 725 l 1,61,-1
 658 725 l 1,62,-1
 658 0 l 1,63,-1
 586 0 l 1,64,-1
 586 96 l 1,65,66
 550 44 550 44 484.5 15 c 128,-1,67
 419 -14 419 -14 339 -14 c 1,68,-1
 339 -14 l 1,0,1
EndSplineSet
Validated: 5
EndChar

StartChar: aaodia
Encoding: 2822 2822 5
Width: 967
GlyphClass: 2
Flags: W
LayerCount: 2
Back
Fore
SplineSet
326 -14 m 1,0,1
 215 -14 215 -14 136.5 51.5 c 128,-1,2
 58 117 58 117 58 209 c 0,3,4
 58 287 58 287 117.5 356.5 c 128,-1,5
 177 426 177 426 274 461 c 0,6,7
 339 491 339 491 377 535 c 128,-1,8
 415 579 415 579 415 623 c 0,9,10
 415 651 415 651 399.5 670.5 c 128,-1,11
 384 690 384 690 362 690 c 256,12,13
 340 690 340 690 325 670.5 c 128,-1,14
 310 651 310 651 310 623 c 2,15,-1
 310 519 l 1,16,-1
 236 519 l 1,17,-1
 236 623 l 2,18,19
 236 651 236 651 218.5 670.5 c 128,-1,20
 201 690 201 690 177 690 c 0,21,22
 152 690 152 690 134.5 670.5 c 128,-1,23
 117 651 117 651 117 623 c 0,24,25
 117 604 117 604 125 590 c 128,-1,26
 133 576 133 576 146 571 c 0,27,28
 163 565 163 565 173.5 553 c 128,-1,29
 184 541 184 541 184 528 c 0,30,31
 184 511 184 511 171.5 499 c 128,-1,32
 159 487 159 487 141 487 c 0,33,34
 100 487 100 487 71.5 527 c 128,-1,35
 43 567 43 567 43 623 c 0,36,37
 43 687 43 687 78 722 c 128,-1,38
 113 757 113 757 177 757 c 0,39,40
 210 757 210 757 236 742 c 128,-1,41
 262 727 262 727 274 702 c 1,42,43
 281 726 281 726 305.5 741.5 c 128,-1,44
 330 757 330 757 362 757 c 0,45,46
 420 757 420 757 454.5 720.5 c 128,-1,47
 489 684 489 684 489 623 c 0,48,49
 489 563 489 563 440.5 505 c 128,-1,50
 392 447 392 447 310 409 c 0,51,52
 229 371 229 371 180.5 317 c 128,-1,53
 132 263 132 263 132 209 c 0,54,55
 132 144 132 144 189 98 c 128,-1,56
 246 52 246 52 326 52 c 0,57,58
 409 52 409 52 479 103 c 128,-1,59
 549 154 549 154 579 238 c 1,60,-1
 579 725 l 1,61,-1
 651 725 l 1,62,-1
 651 0 l 1,63,-1
 579 0 l 1,64,-1
 579 119 l 1,65,66
 551 58 551 58 482 22 c 128,-1,67
 413 -14 413 -14 326 -14 c 1,68,-1
 326 -14 l 1,0,1
808 0 m 1,69,-1
 808 725 l 1,70,-1
 880 725 l 1,71,-1
 880 0 l 1,72,-1
 808 0 l 1,73,-1
 808 0 l 1,69,-1
EndSplineSet
Validated: 5
EndChar

StartChar: iodia
Encoding: 2823 2823 6
Width: 780
GlyphClass: 2
Flags: W
LayerCount: 2
Back
Fore
SplineSet
255 -14 m 1,0,1
 206 -14 206 -14 171 23 c 128,-1,2
 136 60 136 60 136 112 c 2,3,-1
 136 229 l 2,4,5
 136 239 136 239 140 250.5 c 128,-1,6
 144 262 144 262 151 275 c 1,7,8
 96 307 96 307 64 361 c 128,-1,9
 32 415 32 415 32 476 c 0,10,11
 32 592 32 592 131.5 674.5 c 128,-1,12
 231 757 231 757 371 757 c 256,13,14
 511 757 511 757 609.5 665.5 c 128,-1,15
 708 574 708 574 708 445 c 0,16,17
 708 361 708 361 694.5 289.5 c 128,-1,18
 681 218 681 218 655 162 c 1,19,-1
 753 14 l 1,20,-1
 693 -23 l 1,21,-1
 574 162 l 1,22,23
 603 213 603 213 618.5 285 c 128,-1,24
 634 357 634 357 634 445 c 0,25,26
 634 546 634 546 556.5 618 c 128,-1,27
 479 690 479 690 370 690 c 256,28,29
 261 690 261 690 184 627.5 c 128,-1,30
 107 565 107 565 107 476 c 0,31,32
 107 431 107 431 128.5 393 c 128,-1,33
 150 355 150 355 188 333 c 1,34,35
 200 345 200 345 217 351 c 128,-1,36
 234 357 234 357 255 357 c 0,37,38
 282 357 282 357 304 345 c 128,-1,39
 326 333 326 333 336 312 c 1,40,41
 351 333 351 333 372.5 345 c 128,-1,42
 394 357 394 357 418 357 c 0,43,44
 467 357 467 357 501.5 319.5 c 128,-1,45
 536 282 536 282 536 229 c 2,46,-1
 536 112 l 2,47,48
 536 60 536 60 501.5 23 c 128,-1,49
 467 -14 467 -14 418 -14 c 0,50,51
 388 -14 388 -14 365.5 -3 c 128,-1,52
 343 8 343 8 336 26 c 1,53,54
 325 7 325 7 303.5 -3.5 c 128,-1,55
 282 -14 282 -14 255 -14 c 1,56,-1
 255 -14 l 1,0,1
255 52 m 1,57,58
 274 52 274 52 287 69.5 c 128,-1,59
 300 87 300 87 300 112 c 2,60,-1
 300 229 l 2,61,62
 300 254 300 254 287.5 272 c 128,-1,63
 275 290 275 290 258 290 c 0,64,65
 239 290 239 290 225.5 272 c 128,-1,66
 212 254 212 254 212 229 c 2,67,-1
 212 112 l 2,68,69
 212 87 212 87 224.5 69.5 c 128,-1,70
 237 52 237 52 255 52 c 1,71,-1
 255 52 l 1,57,58
418 52 m 1,72,73
 437 52 437 52 450.5 69.5 c 128,-1,74
 464 87 464 87 464 112 c 2,75,-1
 464 229 l 2,76,77
 464 254 464 254 450.5 272 c 128,-1,78
 437 290 437 290 418 290 c 0,79,80
 400 290 400 290 387 272 c 128,-1,81
 374 254 374 254 374 229 c 2,82,-1
 374 112 l 2,83,84
 374 87 374 87 387 69.5 c 128,-1,85
 400 52 400 52 418 52 c 1,86,-1
 418 52 l 1,72,73
EndSplineSet
Validated: 5
EndChar

StartChar: iiodia
Encoding: 2824 2824 7
Width: 760
GlyphClass: 2
Flags: W
LayerCount: 2
Back
Fore
SplineSet
232 -14 m 1,0,1
 175 -14 175 -14 140.5 20.5 c 128,-1,2
 106 55 106 55 106 112 c 2,3,-1
 106 223 l 2,4,5
 106 239 106 239 110.5 254 c 128,-1,6
 115 269 115 269 123 281 c 1,7,8
 78 302 78 302 51.5 338.5 c 128,-1,9
 25 375 25 375 25 415 c 0,10,11
 25 478 25 478 75 523 c 128,-1,12
 125 568 125 568 196 568 c 1,13,14
 185 576 185 576 179 588.5 c 128,-1,15
 173 601 173 601 173 616 c 0,16,17
 173 674 173 674 231.5 715.5 c 128,-1,18
 290 757 290 757 373 757 c 0,19,20
 505 757 505 757 598.5 652.5 c 128,-1,21
 692 548 692 548 692 400 c 0,22,23
 692 339 692 339 678.5 278.5 c 128,-1,24
 665 218 665 218 639 162 c 1,25,-1
 729 23 l 1,26,-1
 666 -14 l 1,27,-1
 558 148 l 1,28,29
 588 212 588 212 603 275.5 c 128,-1,30
 618 339 618 339 618 400 c 0,31,32
 618 519 618 519 546 603 c 128,-1,33
 474 687 474 687 373 687 c 0,34,35
 320 687 320 687 283 666 c 128,-1,36
 246 645 246 645 246 616 c 0,37,38
 246 599 246 599 254.5 585 c 128,-1,39
 263 571 263 571 277 564 c 1,40,41
 306 556 306 556 330.5 541 c 128,-1,42
 355 526 355 526 373 505 c 1,43,-1
 329 457 l 1,44,45
 303 479 303 479 267.5 490.5 c 128,-1,46
 232 502 232 502 191 502 c 0,47,48
 152 499 152 499 125.5 475 c 128,-1,49
 99 451 99 451 99 419 c 0,50,51
 99 395 99 395 121.5 373.5 c 128,-1,52
 144 352 144 352 180 342 c 1,53,54
 187 349 187 349 200.5 353 c 128,-1,55
 214 357 214 357 232 357 c 0,56,57
 260 357 260 357 282.5 347 c 128,-1,58
 305 337 305 337 315 319 c 1,59,60
 325 337 325 337 344.5 347 c 128,-1,61
 364 357 364 357 387 357 c 0,62,63
 436 357 436 357 471 318 c 128,-1,64
 506 279 506 279 506 223 c 2,65,-1
 506 112 l 2,66,67
 506 60 506 60 474 23 c 128,-1,68
 442 -14 442 -14 396 -14 c 0,69,70
 366 -14 366 -14 343.5 0.5 c 128,-1,71
 321 15 321 15 315 38 c 1,72,73
 306 15 306 15 283.5 0.5 c 128,-1,74
 261 -14 261 -14 232 -14 c 1,75,-1
 232 -14 l 1,0,1
232 52 m 1,76,77
 254 52 254 52 269 69.5 c 128,-1,78
 284 87 284 87 284 112 c 2,79,-1
 284 223 l 2,80,81
 284 251 284 251 269 270.5 c 128,-1,82
 254 290 254 290 232 290 c 256,83,84
 210 290 210 290 195 270.5 c 128,-1,85
 180 251 180 251 180 223 c 2,86,-1
 180 112 l 2,87,88
 180 87 180 87 195 69.5 c 128,-1,89
 210 52 210 52 232 52 c 1,90,-1
 232 52 l 1,76,77
387 52 m 1,91,92
 406 52 406 52 419 69.5 c 128,-1,93
 432 87 432 87 432 112 c 2,94,-1
 432 223 l 2,95,96
 432 251 432 251 419 270.5 c 128,-1,97
 406 290 406 290 387 290 c 0,98,99
 369 290 369 290 356.5 270.5 c 128,-1,100
 344 251 344 251 344 223 c 2,101,-1
 344 112 l 2,102,103
 344 87 344 87 356.5 69.5 c 128,-1,104
 369 52 369 52 387 52 c 1,105,-1
 387 52 l 1,91,92
EndSplineSet
Validated: 5
EndChar

StartChar: uodia
Encoding: 2825 2825 8
Width: 748
GlyphClass: 2
Flags: W
LayerCount: 2
Back
Fore
SplineSet
322 -14 m 1,0,1
 241 -14 241 -14 183.5 46.5 c 128,-1,2
 126 107 126 107 126 193 c 0,3,4
 126 218 126 218 131.5 240 c 128,-1,5
 137 262 137 262 148 281 c 1,6,7
 95 306 95 306 64 360.5 c 128,-1,8
 33 415 33 415 33 483 c 0,9,10
 33 596 33 596 124.5 676.5 c 128,-1,11
 216 757 216 757 345 757 c 0,12,13
 487 757 487 757 587 657 c 128,-1,14
 687 557 687 557 687 415 c 0,15,16
 687 340 687 340 670 272 c 128,-1,17
 653 204 653 204 621 148 c 1,18,-1
 709 14 l 1,19,-1
 647 -26 l 1,20,-1
 538 148 l 1,21,22
 574 200 574 200 593 268 c 128,-1,23
 612 336 612 336 612 415 c 0,24,25
 612 529 612 529 534 609.5 c 128,-1,26
 456 690 456 690 345 690 c 0,27,28
 246 690 246 690 176.5 629.5 c 128,-1,29
 107 569 107 569 107 483 c 0,30,31
 107 430 107 430 128 390.5 c 128,-1,32
 149 351 149 351 183 342 c 1,33,34
 204 372 204 372 234.5 394.5 c 128,-1,35
 265 417 265 417 302 431 c 1,36,-1
 326 368 l 1,37,38
 267 340 267 340 232 293 c 128,-1,39
 197 246 197 246 197 193 c 0,40,41
 197 135 197 135 233.5 93.5 c 128,-1,42
 270 52 270 52 322 52 c 0,43,44
 369 52 369 52 402 78.5 c 128,-1,45
 435 105 435 105 435 142 c 0,46,47
 435 159 435 159 421 177 c 128,-1,48
 407 195 407 195 383 209 c 1,49,-1
 331 157 l 1,50,-1
 278 209 l 1,51,-1
 487 415 l 1,52,-1
 538 364 l 1,53,-1
 426 252 l 1,54,55
 462 239 462 239 484.5 206 c 128,-1,56
 507 173 507 173 507 133 c 0,57,58
 507 72 507 72 453 29 c 128,-1,59
 399 -14 399 -14 322 -14 c 1,60,-1
 322 -14 l 1,0,1
EndSplineSet
Validated: 5
EndChar

StartChar: uuodia
Encoding: 2826 2826 9
Width: 741
GlyphClass: 2
Flags: W
LayerCount: 2
Back
Fore
SplineSet
315 -14 m 1,0,1
 238 -14 238 -14 183.5 46.5 c 128,-1,2
 129 107 129 107 129 193 c 0,3,4
 129 212 129 212 133 229 c 128,-1,5
 137 246 137 246 145 260 c 1,6,7
 93 290 93 290 63 344 c 128,-1,8
 33 398 33 398 33 461 c 0,9,10
 33 584 33 584 123 670.5 c 128,-1,11
 213 757 213 757 341 757 c 256,12,13
 469 757 469 757 559.5 670.5 c 128,-1,14
 650 584 650 584 650 461 c 0,15,16
 650 435 650 435 644.5 406.5 c 128,-1,17
 639 378 639 378 628 348 c 1,18,19
 657 343 657 343 676 316 c 128,-1,20
 695 289 695 289 695 252 c 0,21,22
 695 218 695 218 674 189 c 128,-1,23
 653 160 653 160 619 148 c 1,24,-1
 709 14 l 1,25,-1
 650 -14 l 1,26,-1
 523 178 l 1,27,28
 565 185 565 185 592 206 c 128,-1,29
 619 227 619 227 619 252 c 0,30,31
 619 273 619 273 593.5 287.5 c 128,-1,32
 568 302 568 302 532 302 c 1,33,34
 553 327 553 327 564.5 368 c 128,-1,35
 576 409 576 409 576 461 c 0,36,37
 576 555 576 555 507 621 c 128,-1,38
 438 687 438 687 341 687 c 256,39,40
 244 687 244 687 175.5 621 c 128,-1,41
 107 555 107 555 107 461 c 0,42,43
 107 417 107 417 125 381.5 c 128,-1,44
 143 346 143 346 175 328 c 1,45,46
 194 360 194 360 224 386.5 c 128,-1,47
 254 413 254 413 293 431 c 1,48,-1
 331 374 l 1,49,50
 273 347 273 347 238.5 298 c 128,-1,51
 204 249 204 249 204 193 c 0,52,53
 204 135 204 135 236.5 93.5 c 128,-1,54
 269 52 269 52 315 52 c 0,55,56
 358 52 358 52 388.5 83 c 128,-1,57
 419 114 419 114 419 157 c 0,58,59
 419 182 419 182 407 202 c 128,-1,60
 395 222 395 222 376 229 c 1,61,-1
 300 157 l 1,62,-1
 248 209 l 1,63,-1
 478 423 l 1,64,-1
 523 378 l 1,65,-1
 428 281 l 1,66,67
 458 267 458 267 476 233.5 c 128,-1,68
 494 200 494 200 494 157 c 0,69,70
 494 86 494 86 441.5 36 c 128,-1,71
 389 -14 389 -14 315 -14 c 1,72,-1
 315 -14 l 1,0,1
EndSplineSet
Validated: 5
EndChar

StartChar: vocalicrodia
Encoding: 2827 2827 10
Width: 768
GlyphClass: 2
Flags: W
LayerCount: 2
Back
Fore
SplineSet
329 -14 m 1,0,1
 255 -14 255 -14 203 42 c 128,-1,2
 151 98 151 98 151 178 c 0,3,4
 151 201 151 201 155 219.5 c 128,-1,5
 159 238 159 238 167 252 c 1,6,7
 106 281 106 281 69.5 339 c 128,-1,8
 33 397 33 397 33 467 c 0,9,10
 33 587 33 587 126.5 672 c 128,-1,11
 220 757 220 757 352 757 c 256,12,13
 484 757 484 757 577.5 670.5 c 128,-1,14
 671 584 671 584 671 461 c 0,15,16
 671 421 671 421 663.5 387.5 c 128,-1,17
 656 354 656 354 641 328 c 1,18,19
 668 315 668 315 684 288.5 c 128,-1,20
 700 262 700 262 700 229 c 0,21,22
 700 203 700 203 688.5 181.5 c 128,-1,23
 677 160 677 160 657 148 c 1,24,-1
 753 14 l 1,25,-1
 693 -23 l 1,26,-1
 560 178 l 1,27,28
 587 178 587 178 606.5 193 c 128,-1,29
 626 208 626 208 626 229 c 0,30,31
 626 253 626 253 601.5 268.5 c 128,-1,32
 577 284 577 284 544 281 c 1,33,34
 569 317 569 317 582.5 363 c 128,-1,35
 596 409 596 409 596 461 c 0,36,37
 596 555 596 555 524.5 621 c 128,-1,38
 453 687 453 687 352 687 c 0,39,40
 250 687 250 687 178 622.5 c 128,-1,41
 106 558 106 558 106 467 c 0,42,43
 106 410 106 410 133.5 368 c 128,-1,44
 161 326 161 326 203 319 c 1,45,46
 225 345 225 345 258 359.5 c 128,-1,47
 291 374 291 374 329 374 c 0,48,49
 403 374 403 374 455 316.5 c 128,-1,50
 507 259 507 259 507 178 c 0,51,52
 507 98 507 98 455 42 c 128,-1,53
 403 -14 403 -14 329 -14 c 1,54,-1
 329 -14 l 1,0,1
329 55 m 1,55,56
 372 55 372 55 403 91 c 128,-1,57
 434 127 434 127 434 178 c 256,58,59
 434 229 434 229 403 265.5 c 128,-1,60
 372 302 372 302 329 302 c 256,61,62
 286 302 286 302 255.5 265.5 c 128,-1,63
 225 229 225 229 225 178 c 256,64,65
 225 127 225 127 255.5 91 c 128,-1,66
 286 55 286 55 329 55 c 1,67,-1
 329 55 l 1,55,56
EndSplineSet
Validated: 37
EndChar

StartChar: vocaliclodia
Encoding: 2828 2828 11
Width: 641
GlyphClass: 2
Flags: W
LayerCount: 2
Back
Fore
SplineSet
26 209 m 1,0,1
 26 291 26 291 101.5 358 c 128,-1,2
 177 425 177 425 293 445 c 0,3,4
 363 457 363 457 409 495.5 c 128,-1,5
 455 534 455 534 455 580 c 0,6,7
 455 616 455 616 418.5 642 c 128,-1,8
 382 668 382 668 331 668 c 0,9,10
 278 668 278 668 240.5 642 c 128,-1,11
 203 616 203 616 203 580 c 1,12,-1
 129 580 l 1,13,14
 129 647 129 647 188 694.5 c 128,-1,15
 247 742 247 742 331 742 c 0,16,17
 414 742 414 742 472.5 694.5 c 128,-1,18
 531 647 531 647 531 580 c 0,19,20
 531 512 531 512 472 457 c 128,-1,21
 413 402 413 402 322 386 c 0,22,23
 225 369 225 369 162 319 c 128,-1,24
 99 269 99 269 99 209 c 0,25,26
 99 156 99 156 156 118.5 c 128,-1,27
 213 81 213 81 293 81 c 1,28,29
 293 164 293 164 349.5 222.5 c 128,-1,30
 406 281 406 281 486 281 c 0,31,32
 541 281 541 281 580 246 c 128,-1,33
 619 211 619 211 619 162 c 0,34,35
 619 82 619 82 544 41 c 128,-1,36
 469 0 469 0 322 0 c 0,37,38
 199 0 199 0 112.5 61 c 128,-1,39
 26 122 26 122 26 209 c 1,40,-1
 26 209 l 1,0,1
367 74 m 1,41,42
 441 74 441 74 493 100 c 128,-1,43
 545 126 545 126 545 162 c 0,44,45
 545 181 545 181 527.5 195 c 128,-1,46
 510 209 510 209 486 209 c 0,47,48
 437 209 437 209 402 169.5 c 128,-1,49
 367 130 367 130 367 74 c 1,50,-1
 367 74 l 1,41,42
EndSplineSet
Validated: 5
EndChar

StartChar: eodia
Encoding: 2831 2831 12
Width: 750
GlyphClass: 2
Flags: W
LayerCount: 2
Back
Fore
SplineSet
663 0 m 1,0,-1
 610 0 l 1,1,-1
 10 534 l 1,2,-1
 54 586 l 1,3,-1
 590 112 l 1,4,-1
 590 652 l 1,5,6
 536 647 536 647 462.5 593.5 c 128,-1,7
 389 540 389 540 389 505 c 1,8,9
 401 505 401 505 409.5 494 c 128,-1,10
 418 483 418 483 418 467 c 0,11,12
 418 445 418 445 403 430 c 128,-1,13
 388 415 388 415 367 415 c 0,14,15
 339 415 339 415 319.5 437 c 128,-1,16
 300 459 300 459 300 490 c 0,17,18
 300 568 300 568 425.5 655 c 128,-1,19
 551 742 551 742 663 742 c 1,20,-1
 663 0 l 1,21,-1
 663 0 l 1,0,-1
EndSplineSet
Validated: 5
EndChar

StartChar: aiodia
Encoding: 2832 2832 13
Width: 883
GlyphClass: 2
Flags: W
LayerCount: 2
Back
Fore
SplineSet
560 0 m 1,0,-1
 10 542 l 1,1,-1
 55 594 l 1,2,-1
 561 104 l 1,3,-1
 561 668 l 1,4,5
 497 651 497 651 446 608 c 128,-1,6
 395 565 395 565 367 505 c 1,7,8
 377 503 377 503 383.5 492.5 c 128,-1,9
 390 482 390 482 390 467 c 0,10,11
 390 449 390 449 376.5 436 c 128,-1,12
 363 423 363 423 344 423 c 0,13,14
 320 423 320 423 303 442.5 c 128,-1,15
 286 462 286 462 286 490 c 0,16,17
 286 558 286 558 386.5 650 c 128,-1,18
 487 742 487 742 560 742 c 2,19,-1
 634 742 l 1,20,-1
 634 461 l 1,21,-1
 724 461 l 1,22,-1
 724 786 l 2,23,24
 724 817 724 817 701.5 839 c 128,-1,25
 679 861 679 861 648 861 c 0,26,27
 621 861 621 861 567 854 c 128,-1,28
 513 847 513 847 486 847 c 0,29,30
 448 847 448 847 409.5 862 c 128,-1,31
 371 877 371 877 338 905 c 1,32,-1
 381 971 l 1,33,34
 410 947 410 947 437 934 c 128,-1,35
 464 921 464 921 486 921 c 0,36,37
 513 921 513 921 567 928 c 128,-1,38
 621 935 621 935 648 935 c 0,39,40
 709 935 709 935 752.5 891.5 c 128,-1,41
 796 848 796 848 796 786 c 2,42,-1
 796 0 l 1,43,-1
 724 0 l 1,44,-1
 724 394 l 1,45,-1
 634 394 l 1,46,-1
 634 0 l 1,47,-1
 560 0 l 1,48,-1
 560 0 l 1,0,-1
EndSplineSet
Validated: 5
EndChar

StartChar: oodia
Encoding: 2835 2835 14
Width: 650
GlyphClass: 2
Flags: W
LayerCount: 2
Back
Fore
SplineSet
357 -14 m 1,0,1
 231 -14 231 -14 141.5 94.5 c 128,-1,2
 52 203 52 203 52 357 c 0,3,4
 52 476 52 476 90.5 593.5 c 128,-1,5
 129 711 129 711 202 816 c 1,6,-1
 258 780 l 1,7,8
 193 687 193 687 159 579 c 128,-1,9
 125 471 125 471 125 357 c 0,10,11
 125 232 125 232 193 143.5 c 128,-1,12
 261 55 261 55 357 55 c 0,13,14
 428 55 428 55 478 100 c 128,-1,15
 528 145 528 145 528 209 c 0,16,17
 528 260 528 260 502 296.5 c 128,-1,18
 476 333 476 333 439 333 c 1,19,20
 407 306 407 306 382.5 289.5 c 128,-1,21
 358 273 358 273 342 267 c 1,22,-1
 306 328 l 1,23,24
 394 369 394 369 446.5 443 c 128,-1,25
 499 517 499 517 499 600 c 0,26,27
 499 637 499 637 475.5 663.5 c 128,-1,28
 452 690 452 690 418 690 c 256,29,30
 384 690 384 690 360 662 c 128,-1,31
 336 634 336 634 336 594 c 0,32,33
 336 587 336 587 337.5 579.5 c 128,-1,34
 339 572 339 572 342 564 c 0,35,36
 347 550 347 550 349 544 c 128,-1,37
 351 538 351 538 351 534 c 0,38,39
 351 522 351 522 342 513.5 c 128,-1,40
 333 505 333 505 320 505 c 0,41,42
 301 505 301 505 281 535 c 128,-1,43
 261 565 261 565 261 594 c 0,44,45
 261 662 261 662 307 709.5 c 128,-1,46
 353 757 353 757 418 757 c 0,47,48
 482 757 482 757 527.5 711 c 128,-1,49
 573 665 573 665 573 600 c 0,50,51
 573 551 573 551 554 498.5 c 128,-1,52
 535 446 535 446 499 394 c 1,53,54
 547 366 547 366 575 316.5 c 128,-1,55
 603 267 603 267 603 209 c 0,56,57
 603 117 603 117 531 51.5 c 128,-1,58
 459 -14 459 -14 357 -14 c 1,59,-1
 357 -14 l 1,0,1
EndSplineSet
Validated: 5
EndChar

StartChar: auodia
Encoding: 2836 2836 15
Width: 808
GlyphClass: 2
Flags: W
LayerCount: 2
Back
Fore
SplineSet
358 -14 m 1,0,1
 232 -14 232 -14 143 99 c 128,-1,2
 54 212 54 212 54 371 c 0,3,4
 54 501 54 501 92 616 c 128,-1,5
 130 731 130 731 202 816 c 1,6,-1
 261 776 l 1,7,8
 194 696 194 696 158.5 592 c 128,-1,9
 123 488 123 488 123 371 c 0,10,11
 123 240 123 240 192 147.5 c 128,-1,12
 261 55 261 55 358 55 c 0,13,14
 426 55 426 55 473.5 102 c 128,-1,15
 521 149 521 149 521 215 c 0,16,17
 521 258 521 258 499 294.5 c 128,-1,18
 477 331 477 331 439 348 c 1,19,20
 415 324 415 324 385 303.5 c 128,-1,21
 355 283 355 283 320 267 c 1,22,-1
 291 328 l 1,23,24
 388 384 388 384 443.5 453 c 128,-1,25
 499 522 499 522 499 586 c 0,26,27
 499 623 499 623 474.5 649.5 c 128,-1,28
 450 676 450 676 416 676 c 0,29,30
 376 676 376 676 348 652 c 128,-1,31
 320 628 320 628 320 594 c 0,32,33
 320 579 320 579 322 568 c 128,-1,34
 324 557 324 557 328 550 c 0,35,36
 331 544 331 544 333 538.5 c 128,-1,37
 335 533 335 533 335 528 c 0,38,39
 335 512 335 512 324 501 c 128,-1,40
 313 490 313 490 297 490 c 0,41,42
 276 490 276 490 261 520.5 c 128,-1,43
 246 551 246 551 246 594 c 0,44,45
 246 659 246 659 296 704.5 c 128,-1,46
 346 750 346 750 416 750 c 0,47,48
 481 750 481 750 527 702 c 128,-1,49
 573 654 573 654 573 586 c 0,50,51
 573 537 573 537 554 491 c 128,-1,52
 535 445 535 445 499 409 c 1,53,54
 531 363 531 363 562.5 337.5 c 128,-1,55
 594 312 594 312 618 312 c 0,56,57
 628 312 628 312 636.5 318 c 128,-1,58
 645 324 645 324 648 333 c 1,59,-1
 648 816 l 2,60,61
 648 844 648 844 628.5 864 c 128,-1,62
 609 884 609 884 581 884 c 0,63,64
 550 884 550 884 488.5 872.5 c 128,-1,65
 427 861 427 861 396 861 c 0,66,67
 359 861 359 861 320.5 874.5 c 128,-1,68
 282 888 282 888 246 913 c 1,69,-1
 283 971 l 1,70,71
 300 954 300 954 329.5 944.5 c 128,-1,72
 359 935 359 935 396 935 c 0,73,74
 427 935 427 935 488.5 946 c 128,-1,75
 550 957 550 957 581 957 c 0,76,77
 639 957 639 957 680 915.5 c 128,-1,78
 721 874 721 874 721 816 c 2,79,-1
 721 0 l 1,80,-1
 648 0 l 1,81,-1
 648 238 l 1,82,83
 630 238 630 238 614.5 241.5 c 128,-1,84
 599 245 599 245 587 252 c 1,85,86
 591 247 591 247 593.5 237.5 c 128,-1,87
 596 228 596 228 596 215 c 0,88,89
 596 120 596 120 526.5 53 c 128,-1,90
 457 -14 457 -14 358 -14 c 1,91,-1
 358 -14 l 1,0,1
EndSplineSet
Validated: 5
EndChar

StartChar: kaodia
Encoding: 2837 2837 16
Width: 734
GlyphClass: 2
Flags: W
AnchorPoint: "oranchor-1" 370 0 basechar 0
LayerCount: 2
Back
Fore
SplineSet
329 0 m 1,0,-1
 329 90 l 1,1,2
 316 79 316 79 298.5 73 c 128,-1,3
 281 67 281 67 262 67 c 0,4,5
 203 67 203 67 161.5 113.5 c 128,-1,6
 120 160 120 160 120 226 c 0,7,8
 120 245 120 245 124 261 c 128,-1,9
 128 277 128 277 135 290 c 1,10,11
 89 307 89 307 60.5 355.5 c 128,-1,12
 32 404 32 404 32 467 c 0,13,14
 32 587 32 587 130 672 c 128,-1,15
 228 757 228 757 367 757 c 0,16,17
 505 757 505 757 602.5 672 c 128,-1,18
 700 587 700 587 700 467 c 0,19,20
 700 418 700 418 686.5 377.5 c 128,-1,21
 673 337 673 337 648 312 c 1,22,-1
 589 348 l 1,23,24
 607 374 607 374 616.5 404.5 c 128,-1,25
 626 435 626 435 626 467 c 0,26,27
 626 559 626 559 550 624.5 c 128,-1,28
 474 690 474 690 367 690 c 0,29,30
 259 690 259 690 182.5 624.5 c 128,-1,31
 106 559 106 559 106 467 c 0,32,33
 106 424 106 424 124.5 391.5 c 128,-1,34
 143 359 143 359 173 348 c 1,35,36
 188 366 188 366 211.5 376 c 128,-1,37
 235 386 235 386 262 386 c 0,38,39
 297 386 297 386 325 372 c 128,-1,40
 353 358 353 358 367 333 c 1,41,42
 381 358 381 358 404.5 372 c 128,-1,43
 428 386 428 386 455 386 c 0,44,45
 507 386 507 386 543.5 349 c 128,-1,46
 580 312 580 312 580 260 c 2,47,-1
 580 0 l 1,48,-1
 507 0 l 1,49,-1
 507 260 l 2,50,51
 507 284 507 284 492 301.5 c 128,-1,52
 477 319 477 319 455 319 c 256,53,54
 433 319 433 319 418 301.5 c 128,-1,55
 403 284 403 284 403 260 c 2,56,-1
 403 0 l 1,57,-1
 329 0 l 1,58,-1
 329 0 l 1,0,-1
262 133 m 1,59,60
 290 133 290 133 309.5 155.5 c 128,-1,61
 329 178 329 178 329 209 c 2,62,-1
 329 245 l 2,63,64
 329 276 329 276 309.5 297.5 c 128,-1,65
 290 319 290 319 262 319 c 0,66,67
 235 319 235 319 215.5 292 c 128,-1,68
 196 265 196 265 196 226 c 256,69,70
 196 187 196 187 215.5 160 c 128,-1,71
 235 133 235 133 262 133 c 1,72,-1
 262 133 l 1,59,60
EndSplineSet
EndChar

StartChar: khaodia
Encoding: 2838 2838 17
Width: 771
GlyphClass: 2
Flags: W
LayerCount: 2
Back
Fore
SplineSet
352 -17 m 1,0,1
 275 -17 275 -17 221 40 c 128,-1,2
 167 97 167 97 167 178 c 0,3,4
 167 202 167 202 173 224.5 c 128,-1,5
 179 247 179 247 190 267 c 1,6,7
 122 279 122 279 77.5 338.5 c 128,-1,8
 33 398 33 398 33 478 c 0,9,10
 33 607 33 607 131.5 685 c 128,-1,11
 230 763 230 763 393 763 c 0,12,13
 429 763 429 763 456.5 761.5 c 128,-1,14
 484 760 484 760 493 757 c 1,15,16
 455 735 455 735 433.5 695.5 c 128,-1,17
 412 656 412 656 412 609 c 0,18,19
 412 569 412 569 435.5 541 c 128,-1,20
 459 513 459 513 493 513 c 0,21,22
 542 513 542 513 577 560.5 c 128,-1,23
 612 608 612 608 612 676 c 2,24,-1
 612 725 l 1,25,-1
 684 725 l 1,26,-1
 684 0 l 1,27,-1
 612 0 l 1,28,-1
 612 497 l 1,29,30
 590 470 590 470 558.5 455.5 c 128,-1,31
 527 441 527 441 493 441 c 0,32,33
 429 441 429 441 383.5 490 c 128,-1,34
 338 539 338 539 338 609 c 0,35,36
 338 637 338 637 342.5 657.5 c 128,-1,37
 347 678 347 678 355 690 c 1,38,39
 242 690 242 690 174.5 632 c 128,-1,40
 107 574 107 574 107 478 c 0,41,42
 107 424 107 424 142.5 382.5 c 128,-1,43
 178 341 178 341 233 331 c 1,44,45
 250 351 250 351 281.5 362.5 c 128,-1,46
 313 374 313 374 352 374 c 0,47,48
 429 374 429 374 483.5 316.5 c 128,-1,49
 538 259 538 259 538 178 c 256,50,51
 538 97 538 97 483.5 40 c 128,-1,52
 429 -17 429 -17 352 -17 c 1,53,-1
 352 -17 l 1,0,1
352 52 m 1,54,55
 398 52 398 52 430.5 89 c 128,-1,56
 463 126 463 126 463 178 c 256,57,58
 463 230 463 230 430.5 267 c 128,-1,59
 398 304 398 304 352 304 c 256,60,61
 306 304 306 304 273.5 267 c 128,-1,62
 241 230 241 230 241 178 c 256,63,64
 241 126 241 126 273.5 89 c 128,-1,65
 306 52 306 52 352 52 c 1,66,-1
 352 52 l 1,54,55
EndSplineSet
Validated: 5
EndChar

StartChar: gaodia
Encoding: 2839 2839 18
Width: 770
GlyphClass: 2
Flags: W
LayerCount: 2
Back
Fore
SplineSet
351 -14 m 1,0,1
 274 -14 274 -14 219.5 42 c 128,-1,2
 165 98 165 98 165 178 c 0,3,4
 165 205 165 205 169 225.5 c 128,-1,5
 173 246 173 246 181 260 c 1,6,7
 115 278 115 278 73.5 335.5 c 128,-1,8
 32 393 32 393 32 467 c 0,9,10
 32 587 32 587 127.5 672 c 128,-1,11
 223 757 223 757 358 757 c 0,12,13
 441 757 441 757 508.5 723 c 128,-1,14
 576 689 576 689 610 631 c 1,15,-1
 610 725 l 1,16,-1
 683 725 l 1,17,-1
 683 0 l 1,18,-1
 610 0 l 1,19,-1
 610 461 l 2,20,21
 610 553 610 553 536 618 c 128,-1,22
 462 683 462 683 358 683 c 256,23,24
 254 683 254 683 180 619.5 c 128,-1,25
 106 556 106 556 106 467 c 0,26,27
 106 415 106 415 137 373.5 c 128,-1,28
 168 332 168 332 217 319 c 1,29,30
 245 347 245 347 280 362.5 c 128,-1,31
 315 378 315 378 351 378 c 0,32,33
 428 378 428 378 482 319.5 c 128,-1,34
 536 261 536 261 536 178 c 0,35,36
 536 98 536 98 482 42 c 128,-1,37
 428 -14 428 -14 351 -14 c 1,38,-1
 351 -14 l 1,0,1
351 55 m 1,39,40
 397 55 397 55 430 91 c 128,-1,41
 463 127 463 127 463 178 c 0,42,43
 463 230 463 230 430 267 c 128,-1,44
 397 304 397 304 351 304 c 256,45,46
 305 304 305 304 272 267 c 128,-1,47
 239 230 239 230 239 178 c 0,48,49
 239 127 239 127 272 91 c 128,-1,50
 305 55 305 55 351 55 c 1,51,-1
 351 55 l 1,39,40
EndSplineSet
Validated: 5
EndChar

StartChar: ghaodia
Encoding: 2840 2840 19
Width: 758
GlyphClass: 2
Flags: W
LayerCount: 2
Back
Fore
SplineSet
518 -14 m 1,0,1
 474 -14 474 -14 440.5 8.5 c 128,-1,2
 407 31 407 31 397 67 c 1,3,4
 387 31 387 31 354.5 8.5 c 128,-1,5
 322 -14 322 -14 280 -14 c 0,6,7
 216 -14 216 -14 170.5 36 c 128,-1,8
 125 86 125 86 125 157 c 0,9,10
 125 195 125 195 130.5 223 c 128,-1,11
 136 251 136 251 146 267 c 1,12,13
 95 291 95 291 65 349.5 c 128,-1,14
 35 408 35 408 35 483 c 0,15,16
 35 596 35 596 128.5 676.5 c 128,-1,17
 222 757 222 757 354 757 c 0,18,19
 434 757 434 757 499 728.5 c 128,-1,20
 564 700 564 700 599 650 c 1,21,-1
 599 725 l 1,22,-1
 671 725 l 1,23,-1
 671 0 l 1,24,-1
 599 0 l 1,25,-1
 599 19 l 1,26,27
 586 3 586 3 564.5 -5.5 c 128,-1,28
 543 -14 543 -14 518 -14 c 1,29,-1
 518 -14 l 1,0,1
280 52 m 1,30,31
 314 52 314 52 338 83 c 128,-1,32
 362 114 362 114 362 157 c 2,33,-1
 362 267 l 1,34,-1
 435 267 l 1,35,-1
 435 157 l 2,36,37
 435 114 435 114 459.5 83 c 128,-1,38
 484 52 484 52 518 52 c 256,39,40
 552 52 552 52 575.5 83 c 128,-1,41
 599 114 599 114 599 157 c 2,42,-1
 599 483 l 2,43,44
 599 569 599 569 527 629.5 c 128,-1,45
 455 690 455 690 354 690 c 256,46,47
 253 690 253 690 181 629.5 c 128,-1,48
 109 569 109 569 109 483 c 0,49,50
 109 437 109 437 128.5 397 c 128,-1,51
 148 357 148 357 183 333 c 1,52,53
 210 365 210 365 246.5 386.5 c 128,-1,54
 283 408 283 408 325 415 c 1,55,-1
 339 348 l 1,56,57
 277 337 277 337 237 283 c 128,-1,58
 197 229 197 229 197 157 c 0,59,60
 197 114 197 114 221.5 83 c 128,-1,61
 246 52 246 52 280 52 c 1,62,-1
 280 52 l 1,30,31
EndSplineSet
Validated: 5
EndChar

StartChar: ngaodia
Encoding: 2841 2841 20
Width: 805
GlyphClass: 2
Flags: W
LayerCount: 2
Back
Fore
SplineSet
345 -14 m 5,0,1
 258 -14 258 -14 197 46.5 c 132,-1,2
 136 107 136 107 136 193 c 4,3,4
 136 220 136 220 140 240.5 c 132,-1,5
 144 261 144 261 152 275 c 5,6,7
 98 300 98 300 65.5 354.5 c 132,-1,8
 33 409 33 409 33 476 c 4,9,10
 33 592 33 592 124.5 674.5 c 132,-1,11
 216 757 216 757 345 757 c 4,12,13
 440 757 440 757 515.5 719 c 132,-1,14
 591 681 591 681 626 616 c 5,15,16
 632 619 632 619 640 621 c 132,-1,17
 648 623 648 623 657 623 c 4,18,19
 709 623 709 623 746 587 c 132,-1,20
 783 551 783 551 783 500 c 260,21,22
 783 449 783 449 746 413.5 c 132,-1,23
 709 378 709 378 657 378 c 260,24,25
 605 378 605 378 568 413.5 c 132,-1,26
 531 449 531 449 531 500 c 4,27,28
 531 526 531 526 539.5 547 c 132,-1,29
 548 568 548 568 563 579 c 5,30,31
 533 631 533 631 474.5 660.5 c 132,-1,32
 416 690 416 690 345 690 c 4,33,34
 246 690 246 690 176.5 627.5 c 132,-1,35
 107 565 107 565 107 476 c 4,36,37
 107 432 107 432 129 395.5 c 132,-1,38
 151 359 151 359 188 342 c 5,39,40
 201 365 201 365 222.5 383.5 c 132,-1,41
 244 402 244 402 271 415 c 5,42,-1
 307 357 l 5,43,44
 263 332 263 332 237.5 288 c 132,-1,45
 212 244 212 244 212 193 c 4,46,47
 212 135 212 135 251 93.5 c 132,-1,48
 290 52 290 52 345 52 c 260,49,50
 400 52 400 52 439 83 c 132,-1,51
 478 114 478 114 478 157 c 4,52,53
 478 184 478 184 460.5 203.5 c 132,-1,54
 443 223 443 223 419 223 c 5,55,-1
 352 142 l 5,56,-1
 293 193 l 5,57,-1
 487 409 l 5,58,-1
 538 364 l 5,59,-1
 464 281 l 5,60,61
 503 274 503 274 528.5 239 c 132,-1,62
 554 204 554 204 554 157 c 4,63,64
 554 86 554 86 493 36 c 132,-1,65
 432 -14 432 -14 345 -14 c 5,66,-1
 345 -14 l 5,0,1
657 452 m 5,67,68
 679 452 679 452 694 466 c 132,-1,69
 709 480 709 480 709 500 c 4,70,71
 709 521 709 521 694 535.5 c 132,-1,72
 679 550 679 550 657 550 c 260,73,74
 635 550 635 550 620 535.5 c 132,-1,75
 605 521 605 521 605 500 c 4,76,77
 605 480 605 480 620 466 c 132,-1,78
 635 452 635 452 657 452 c 5,79,-1
 657 452 l 5,67,68
EndSplineSet
Validated: 5
EndChar

StartChar: caodia
Encoding: 2842 2842 21
Width: 705
GlyphClass: 2
Flags: W
AnchorPoint: "oranchor-1" 370 0 basechar 0
LayerCount: 2
Back
Fore
SplineSet
352 -14 m 1,0,1
 275 -14 275 -14 221 43 c 128,-1,2
 167 100 167 100 167 181 c 0,3,4
 167 197 167 197 170.5 215 c 128,-1,5
 174 233 174 233 181 252 c 1,6,7
 117 263 117 263 75 325 c 128,-1,8
 33 387 33 387 33 470 c 0,9,10
 33 586 33 586 126.5 668 c 128,-1,11
 220 750 220 750 352 750 c 256,12,13
 484 750 484 750 577.5 668 c 128,-1,14
 671 586 671 586 671 470 c 0,15,16
 671 420 671 420 656 375 c 128,-1,17
 641 330 641 330 613 297 c 1,18,-1
 552 333 l 1,19,20
 574 364 574 364 585.5 399 c 128,-1,21
 597 434 597 434 597 470 c 0,22,23
 597 558 597 558 525 620.5 c 128,-1,24
 453 683 453 683 352 683 c 0,25,26
 249 683 249 683 176 620.5 c 128,-1,27
 103 558 103 558 103 470 c 0,28,29
 103 410 103 410 136.5 366.5 c 128,-1,30
 170 323 170 323 219 319 c 1,31,32
 243 347 243 347 277.5 362.5 c 128,-1,33
 312 378 312 378 352 378 c 0,34,35
 429 378 429 378 483.5 320.5 c 128,-1,36
 538 263 538 263 538 181 c 0,37,38
 538 100 538 100 483.5 43 c 128,-1,39
 429 -14 429 -14 352 -14 c 1,40,-1
 352 -14 l 1,0,1
352 57 m 1,41,42
 398 57 398 57 430.5 93.5 c 128,-1,43
 463 130 463 130 463 181 c 256,44,45
 463 232 463 232 430.5 268 c 128,-1,46
 398 304 398 304 352 304 c 256,47,48
 306 304 306 304 273.5 268 c 128,-1,49
 241 232 241 232 241 181 c 256,50,51
 241 130 241 130 273.5 93.5 c 128,-1,52
 306 57 306 57 352 57 c 1,53,-1
 352 57 l 1,41,42
EndSplineSet
EndChar

StartChar: chaodia
Encoding: 2843 2843 22
Width: 689
GlyphClass: 2
Flags: W
LayerCount: 2
Back
Fore
SplineSet
216 -14 m 1,0,1
 163 -14 163 -14 125.5 19.5 c 128,-1,2
 88 53 88 53 88 101 c 0,3,4
 88 124 88 124 99.5 146 c 128,-1,5
 111 168 111 168 132 186 c 1,6,7
 108 193 108 193 92 203 c 128,-1,8
 76 213 76 213 71 223 c 1,9,-1
 110 275 l 1,10,11
 132 253 132 253 151.5 241 c 128,-1,12
 171 229 171 229 184 229 c 1,13,14
 176 234 176 234 171.5 253.5 c 128,-1,15
 167 273 167 273 167 304 c 0,16,17
 167 324 167 324 169 340 c 128,-1,18
 171 356 171 356 175 368 c 1,19,20
 115 379 115 379 75.5 429 c 128,-1,21
 36 479 36 479 36 545 c 0,22,23
 36 633 36 633 127.5 695 c 128,-1,24
 219 757 219 757 348 757 c 256,25,26
 477 757 477 757 568.5 695 c 128,-1,27
 660 633 660 633 660 545 c 0,28,29
 660 515 660 515 647.5 484.5 c 128,-1,30
 635 454 635 454 612 426 c 1,31,-1
 552 467 l 1,32,33
 568 487 568 487 577 507 c 128,-1,34
 586 527 586 527 586 545 c 0,35,36
 586 604 586 604 516.5 645.5 c 128,-1,37
 447 687 447 687 348 687 c 256,38,39
 249 687 249 687 179.5 645.5 c 128,-1,40
 110 604 110 604 110 545 c 0,41,42
 110 499 110 499 139.5 467 c 128,-1,43
 169 435 169 435 210 435 c 1,44,45
 232 466 232 466 268.5 484 c 128,-1,46
 305 502 305 502 348 502 c 0,47,48
 425 502 425 502 479.5 444 c 128,-1,49
 534 386 534 386 534 304 c 0,50,51
 531 270 531 270 523 245.5 c 128,-1,52
 515 221 515 221 503 209 c 1,53,54
 544 205 544 205 572 174 c 128,-1,55
 600 143 600 143 600 100 c 0,56,57
 600 53 600 53 562 19.5 c 128,-1,58
 524 -14 524 -14 471 -14 c 0,59,60
 438 -14 438 -14 405.5 6 c 128,-1,61
 373 26 373 26 348 61 c 1,62,63
 328 26 328 26 292.5 6 c 128,-1,64
 257 -14 257 -14 216 -14 c 1,65,-1
 216 -14 l 1,0,1
216 52 m 1,66,67
 236 52 236 52 257 64.5 c 128,-1,68
 278 77 278 77 296 100 c 1,69,70
 277 123 277 123 256 135.5 c 128,-1,71
 235 148 235 148 216 148 c 0,72,73
 194 148 194 148 178 134 c 128,-1,74
 162 120 162 120 162 100 c 256,75,76
 162 80 162 80 178 66 c 128,-1,77
 194 52 194 52 216 52 c 1,78,-1
 216 52 l 1,66,67
348 178 m 1,79,80
 394 178 394 178 427 215 c 128,-1,81
 460 252 460 252 460 304 c 0,82,83
 460 357 460 357 427 394 c 128,-1,84
 394 431 394 431 348 431 c 256,85,86
 302 431 302 431 269 394 c 128,-1,87
 236 357 236 357 236 304 c 0,88,89
 236 252 236 252 269 215 c 128,-1,90
 302 178 302 178 348 178 c 1,91,-1
 348 178 l 1,79,80
471 52 m 1,92,93
 494 52 494 52 510 66 c 128,-1,94
 526 80 526 80 526 100 c 256,95,96
 526 120 526 120 510 134 c 128,-1,97
 494 148 494 148 471 148 c 0,98,99
 453 148 453 148 434 135.5 c 128,-1,100
 415 123 415 123 399 100 c 1,101,102
 418 77 418 77 437 64.5 c 128,-1,103
 456 52 456 52 471 52 c 1,104,-1
 471 52 l 1,92,93
EndSplineSet
Validated: 5
EndChar

StartChar: jaodia
Encoding: 2844 2844 23
Width: 712
GlyphClass: 2
Flags: W
LayerCount: 2
Back
Fore
SplineSet
312 -14 m 1,0,1
 239 -14 239 -14 187 42 c 128,-1,2
 135 98 135 98 135 178 c 0,3,4
 135 215 135 215 141.5 243.5 c 128,-1,5
 148 272 148 272 161 290 c 1,6,7
 102 311 102 311 66 366 c 128,-1,8
 30 421 30 421 30 490 c 0,9,10
 30 598 30 598 126 674 c 128,-1,11
 222 750 222 750 358 750 c 0,12,13
 493 750 493 750 588 674 c 128,-1,14
 683 598 683 598 683 490 c 0,15,16
 683 449 683 449 672.5 415 c 128,-1,17
 662 381 662 381 642 357 c 1,18,-1
 576 389 l 1,19,20
 592 409 592 409 601 435 c 128,-1,21
 610 461 610 461 610 490 c 0,22,23
 610 570 610 570 536 626.5 c 128,-1,24
 462 683 462 683 358 683 c 0,25,26
 253 683 253 683 178.5 626.5 c 128,-1,27
 104 570 104 570 104 490 c 0,28,29
 104 437 104 437 132 397 c 128,-1,30
 160 357 160 357 204 349 c 1,31,32
 219 367 219 367 241.5 376.5 c 128,-1,33
 264 386 264 386 291 386 c 0,34,35
 320 386 320 386 342.5 375.5 c 128,-1,36
 365 365 365 365 373 348 c 1,37,38
 388 366 388 366 411 376 c 128,-1,39
 434 386 434 386 461 386 c 0,40,41
 504 386 504 386 534 355 c 128,-1,42
 564 324 564 324 564 281 c 2,43,-1
 564 0 l 1,44,-1
 492 0 l 1,45,-1
 492 281 l 2,46,47
 492 294 492 294 483 303 c 128,-1,48
 474 312 474 312 461 312 c 0,49,50
 430 312 430 312 408.5 286 c 128,-1,51
 387 260 387 260 387 223 c 0,52,53
 387 209 387 209 394.5 194.5 c 128,-1,54
 402 180 402 180 416 168 c 256,55,56
 430 156 430 156 437.5 137 c 128,-1,57
 445 118 445 118 445 96 c 0,58,59
 445 50 445 50 406 18 c 128,-1,60
 367 -14 367 -14 312 -14 c 1,61,-1
 312 -14 l 1,0,1
312 52 m 1,62,63
 337 52 337 52 355 65 c 128,-1,64
 373 78 373 78 373 96 c 0,65,66
 373 110 373 110 365 125.5 c 128,-1,67
 357 141 357 141 342 154 c 0,68,69
 328 167 328 167 320 185 c 128,-1,70
 312 203 312 203 312 223 c 256,71,72
 312 243 312 243 318 262 c 128,-1,73
 324 281 324 281 335 297 c 1,74,75
 335 303 335 303 326.5 307.5 c 128,-1,76
 318 312 318 312 306 312 c 0,77,78
 261 312 261 312 234 275.5 c 128,-1,79
 207 239 207 239 207 178 c 0,80,81
 207 126 207 126 238 89 c 128,-1,82
 269 52 269 52 312 52 c 1,83,-1
 312 52 l 1,62,63
EndSplineSet
Validated: 5
EndChar

StartChar: jhaodia
Encoding: 2845 2845 24
Width: 731
GlyphClass: 2
Flags: W
LayerCount: 2
Back
Fore
SplineSet
393 -14 m 1,0,1
 315 -14 315 -14 259.5 43 c 128,-1,2
 204 100 204 100 204 181 c 0,3,4
 204 193 204 193 206 203 c 128,-1,5
 208 213 208 213 212 220 c 1,6,7
 135 234 135 234 85 302 c 128,-1,8
 35 370 35 370 35 461 c 0,9,10
 35 587 35 587 137 676.5 c 128,-1,11
 239 766 239 766 383 766 c 0,12,13
 413 766 413 766 442.5 762.5 c 128,-1,14
 472 759 472 759 480 754 c 1,15,16
 458 728 458 728 446 696.5 c 128,-1,17
 434 665 434 665 434 631 c 0,18,19
 434 591 434 591 456.5 562.5 c 128,-1,20
 479 534 479 534 510 534 c 0,21,22
 555 534 555 534 586.5 597.5 c 128,-1,23
 618 661 618 661 618 750 c 1,24,-1
 687 750 l 1,25,26
 687 630 687 630 635 545.5 c 128,-1,27
 583 461 583 461 510 461 c 0,28,29
 449 461 449 461 405.5 511 c 128,-1,30
 362 561 362 561 362 631 c 0,31,32
 362 652 362 652 364.5 667 c 128,-1,33
 367 682 367 682 371 690 c 1,34,35
 262 690 262 690 185.5 623 c 128,-1,36
 109 556 109 556 109 461 c 0,37,38
 109 396 109 396 144 347.5 c 128,-1,39
 179 299 179 299 233 290 c 1,40,41
 259 331 259 331 301.5 354.5 c 128,-1,42
 344 378 344 378 393 378 c 0,43,44
 470 378 470 378 525 320.5 c 128,-1,45
 580 263 580 263 580 181 c 0,46,47
 580 169 580 169 579 159.5 c 128,-1,48
 578 150 578 150 576 145 c 1,49,-1
 713 93 l 1,50,-1
 687 29 l 1,51,-1
 554 81 l 1,52,53
 534 38 534 38 490 12 c 128,-1,54
 446 -14 446 -14 393 -14 c 1,55,-1
 393 -14 l 1,0,1
394 52 m 1,56,57
 442 52 442 52 475.5 90 c 128,-1,58
 509 128 509 128 509 181 c 0,59,60
 509 235 509 235 475 273.5 c 128,-1,61
 441 312 441 312 393 312 c 256,62,63
 345 312 345 312 311.5 273.5 c 128,-1,64
 278 235 278 235 278 181 c 0,65,66
 278 128 278 128 312 90 c 128,-1,67
 346 52 346 52 394 52 c 1,68,-1
 394 52 l 1,56,57
EndSplineSet
Validated: 5
EndChar

StartChar: nyaodia
Encoding: 2846 2846 25
Width: 722
GlyphClass: 2
Flags: W
LayerCount: 2
Back
Fore
SplineSet
364 -14 m 1,0,1
 238 -14 238 -14 149.5 70.5 c 128,-1,2
 61 155 61 155 61 275 c 0,3,4
 61 329 61 329 78.5 373.5 c 128,-1,5
 96 418 96 418 128 445 c 1,6,7
 97 467 97 467 79 512.5 c 128,-1,8
 61 558 61 558 61 616 c 0,9,10
 61 662 61 662 77.5 700.5 c 128,-1,11
 94 739 94 739 123 764 c 1,12,-1
 180 728 l 1,13,14
 157 701 157 701 145 672 c 128,-1,15
 133 643 133 643 133 616 c 0,16,17
 133 522 133 522 197 465.5 c 128,-1,18
 261 409 261 409 368 409 c 0,19,20
 462 409 462 409 528 461 c 128,-1,21
 594 513 594 513 594 586 c 0,22,23
 594 628 594 628 571 657.5 c 128,-1,24
 548 687 548 687 516 687 c 0,25,26
 492 687 492 687 474.5 666 c 128,-1,27
 457 645 457 645 457 616 c 2,28,-1
 457 519 l 1,29,-1
 383 519 l 1,30,-1
 383 616 l 2,31,32
 383 645 383 645 365 666 c 128,-1,33
 347 687 347 687 322 687 c 256,34,35
 297 687 297 687 279 668.5 c 128,-1,36
 261 650 261 650 261 623 c 0,37,38
 261 606 261 606 270.5 588.5 c 128,-1,39
 280 571 280 571 297 557 c 1,40,-1
 238 513 l 1,41,42
 213 538 213 538 199.5 566.5 c 128,-1,43
 186 595 186 595 186 623 c 0,44,45
 186 684 186 684 223 720.5 c 128,-1,46
 260 757 260 757 322 757 c 0,47,48
 353 757 353 757 379 742.5 c 128,-1,49
 405 728 405 728 420 702 c 1,50,51
 432 727 432 727 458 742 c 128,-1,52
 484 757 484 757 516 757 c 0,53,54
 577 757 577 757 620.5 707 c 128,-1,55
 664 657 664 657 664 586 c 0,56,57
 664 532 664 532 640.5 485 c 128,-1,58
 617 438 617 438 576 409 c 1,59,60
 616 395 616 395 640 348 c 128,-1,61
 664 301 664 301 664 238 c 0,62,63
 664 134 664 134 576 60 c 128,-1,64
 488 -14 488 -14 364 -14 c 1,65,-1
 364 -14 l 1,0,1
364 52 m 1,66,67
 459 52 459 52 526.5 106.5 c 128,-1,68
 594 161 594 161 594 238 c 0,69,70
 594 287 594 287 571 322 c 128,-1,71
 548 357 548 357 516 357 c 0,72,73
 492 357 492 357 474.5 338.5 c 128,-1,74
 457 320 457 320 457 293 c 2,75,-1
 457 193 l 1,76,-1
 383 193 l 1,77,-1
 383 293 l 2,78,79
 383 320 383 320 365 338.5 c 128,-1,80
 347 357 347 357 322 357 c 256,81,82
 297 357 297 357 279 337.5 c 128,-1,83
 261 318 261 318 261 290 c 0,84,85
 261 269 261 269 270.5 249 c 128,-1,86
 280 229 280 229 297 215 c 1,87,-1
 238 171 l 1,88,89
 214 188 214 188 200 219.5 c 128,-1,90
 186 251 186 251 186 290 c 0,91,92
 186 316 186 316 195 338 c 128,-1,93
 204 360 204 360 220 374 c 1,94,-1
 180 397 l 1,95,96
 158 378 158 378 145.5 346 c 128,-1,97
 133 314 133 314 133 275 c 0,98,99
 133 183 133 183 200.5 117.5 c 128,-1,100
 268 52 268 52 364 52 c 1,101,-1
 364 52 l 1,66,67
EndSplineSet
Validated: 5
EndChar

StartChar: ttaodia
Encoding: 2847 2847 26
Width: 708
GlyphClass: 2
Flags: W
LayerCount: 2
Back
Fore
SplineSet
352 -14 m 1,0,1
 275 -14 275 -14 221 42 c 128,-1,2
 167 98 167 98 167 178 c 0,3,4
 167 202 167 202 170.5 221 c 128,-1,5
 174 240 174 240 181 252 c 1,6,7
 114 276 114 276 73.5 337.5 c 128,-1,8
 33 399 33 399 33 476 c 0,9,10
 33 592 33 592 126.5 674.5 c 128,-1,11
 220 757 220 757 352 757 c 0,12,13
 430 757 430 757 494.5 727 c 128,-1,14
 559 697 559 697 596 644 c 1,15,-1
 596 725 l 1,16,-1
 668 725 l 1,17,-1
 668 386 l 1,18,-1
 596 386 l 1,19,-1
 596 473 l 2,20,21
 596 563 596 563 524.5 626.5 c 128,-1,22
 453 690 453 690 352 690 c 0,23,24
 250 690 250 690 178 627.5 c 128,-1,25
 106 565 106 565 106 476 c 0,26,27
 106 417 106 417 138 372.5 c 128,-1,28
 170 328 170 328 219 319 c 1,29,30
 244 344 244 344 278.5 357.5 c 128,-1,31
 313 371 313 371 352 371 c 0,32,33
 429 371 429 371 483.5 314.5 c 128,-1,34
 538 258 538 258 538 178 c 256,35,36
 538 98 538 98 483.5 42 c 128,-1,37
 429 -14 429 -14 352 -14 c 1,38,-1
 352 -14 l 1,0,1
352 52 m 1,39,40
 398 52 398 52 430.5 89 c 128,-1,41
 463 126 463 126 463 178 c 256,42,43
 463 230 463 230 430.5 267 c 128,-1,44
 398 304 398 304 352 304 c 256,45,46
 306 304 306 304 273.5 267 c 128,-1,47
 241 230 241 230 241 178 c 256,48,49
 241 126 241 126 273.5 89 c 128,-1,50
 306 52 306 52 352 52 c 1,51,-1
 352 52 l 1,39,40
EndSplineSet
Validated: 5
EndChar

StartChar: tthaodia
Encoding: 2848 2848 27
Width: 744
GlyphClass: 2
Flags: W
LayerCount: 2
Back
Fore
SplineSet
373 -14 m 1,0,1
 237 -14 237 -14 141 99 c 128,-1,2
 45 212 45 212 45 371 c 0,3,4
 45 531 45 531 141 644 c 128,-1,5
 237 757 237 757 373 757 c 0,6,7
 508 757 508 757 603.5 644 c 128,-1,8
 699 531 699 531 699 371 c 0,9,10
 699 212 699 212 603.5 99 c 128,-1,11
 508 -14 508 -14 373 -14 c 1,12,-1
 373 -14 l 1,0,1
373 52 m 1,13,14
 477 52 477 52 551 145.5 c 128,-1,15
 625 239 625 239 625 371 c 256,16,17
 625 503 625 503 551 596.5 c 128,-1,18
 477 690 477 690 373 690 c 0,19,20
 268 690 268 690 194 596.5 c 128,-1,21
 120 503 120 503 120 371 c 256,22,23
 120 239 120 239 194 145.5 c 128,-1,24
 268 52 268 52 373 52 c 1,25,-1
 373 52 l 1,13,14
EndSplineSet
Validated: 5
EndChar

StartChar: ddaodia
Encoding: 2849 2849 28
Width: 726
GlyphClass: 2
Flags: W
AnchorPoint: "oranchor-1" 370 0 basechar 0
LayerCount: 2
Back
Fore
SplineSet
367 -14 m 1,0,1
 272 -14 272 -14 205 51.5 c 128,-1,2
 138 117 138 117 138 209 c 0,3,4
 138 226 138 226 141 240.5 c 128,-1,5
 144 255 144 255 149 267 c 1,6,7
 97 286 97 286 65 339.5 c 128,-1,8
 33 393 33 393 33 461 c 0,9,10
 33 584 33 584 129.5 670.5 c 128,-1,11
 226 757 226 757 362 757 c 0,12,13
 500 757 500 757 597.5 670.5 c 128,-1,14
 695 584 695 584 695 461 c 0,15,16
 695 427 695 427 685.5 392.5 c 128,-1,17
 676 358 676 358 657 326 c 1,18,-1
 590 362 l 1,19,20
 604 387 604 387 611.5 412 c 128,-1,21
 619 437 619 437 619 461 c 0,22,23
 619 556 619 556 545 623 c 128,-1,24
 471 690 471 690 367 690 c 0,25,26
 259 690 259 690 182.5 623 c 128,-1,27
 106 556 106 556 106 461 c 0,28,29
 106 415 106 415 124.5 379.5 c 128,-1,30
 143 344 143 344 174 333 c 1,31,32
 190 361 190 361 213 384 c 128,-1,33
 236 407 236 407 265 423 c 1,34,-1
 307 371 l 1,35,36
 261 339 261 339 235.5 296 c 128,-1,37
 210 253 210 253 210 209 c 0,38,39
 210 147 210 147 256 103 c 128,-1,40
 302 59 302 59 367 59 c 0,41,42
 419 59 419 59 456 89 c 128,-1,43
 493 119 493 119 493 162 c 0,44,45
 493 190 493 190 468.5 209.5 c 128,-1,46
 444 229 444 229 410 229 c 1,47,-1
 352 162 l 1,48,-1
 293 215 l 1,49,-1
 481 422 l 1,50,-1
 538 371 l 1,51,-1
 463 290 l 1,52,53
 506 290 506 290 536.5 252.5 c 128,-1,54
 567 215 567 215 567 162 c 0,55,56
 567 89 567 89 508.5 37.5 c 128,-1,57
 450 -14 450 -14 367 -14 c 1,58,-1
 367 -14 l 1,0,1
EndSplineSet
EndChar

StartChar: ddhaodia
Encoding: 2850 2850 29
Width: 726
GlyphClass: 2
Flags: W
LayerCount: 2
Back
Fore
SplineSet
365 -12 m 1,0,1
 273 -12 273 -12 208.5 50 c 128,-1,2
 144 112 144 112 144 200 c 0,3,4
 144 225 144 225 147 243 c 128,-1,5
 150 261 150 261 155 270 c 1,6,7
 101 284 101 284 67 339 c 128,-1,8
 33 394 33 394 33 467 c 0,9,10
 33 587 33 587 129.5 672 c 128,-1,11
 226 757 226 757 362 757 c 0,12,13
 500 757 500 757 597.5 672 c 128,-1,14
 695 587 695 587 695 467 c 0,15,16
 695 426 695 426 685.5 390 c 128,-1,17
 676 354 676 354 657 328 c 1,18,-1
 590 357 l 1,19,20
 604 382 604 382 611.5 410 c 128,-1,21
 619 438 619 438 619 467 c 0,22,23
 619 556 619 556 543.5 619.5 c 128,-1,24
 468 683 468 683 362 683 c 256,25,26
 256 683 256 683 181.5 619.5 c 128,-1,27
 107 556 107 556 107 467 c 0,28,29
 107 413 107 413 128.5 374.5 c 128,-1,30
 150 336 150 336 181 333 c 1,31,32
 197 361 197 361 216.5 381.5 c 128,-1,33
 236 402 236 402 258 415 c 1,34,-1
 307 364 l 1,35,36
 266 335 266 335 242.5 291.5 c 128,-1,37
 219 248 219 248 219 200 c 0,38,39
 219 142 219 142 262 100.5 c 128,-1,40
 305 59 305 59 365 59 c 0,41,42
 382 59 382 59 394 62 c 128,-1,43
 406 65 406 65 410 70 c 1,44,45
 372 97 372 97 350.5 135.5 c 128,-1,46
 329 174 329 174 329 215 c 0,47,48
 329 274 329 274 368.5 315.5 c 128,-1,49
 408 357 408 357 464 357 c 0,50,51
 522 357 522 357 563.5 315.5 c 128,-1,52
 605 274 605 274 605 215 c 0,53,54
 605 176 605 176 584.5 137.5 c 128,-1,55
 564 99 564 99 526 67 c 1,56,-1
 581 23 l 1,57,-1
 538 -29 l 1,58,-1
 471 20 l 1,59,60
 449 4 449 4 421.5 -4 c 128,-1,61
 394 -12 394 -12 365 -12 c 1,62,-1
 365 -12 l 1,0,1
471 104 m 1,63,64
 500 124 500 124 516 153.5 c 128,-1,65
 532 183 532 183 532 215 c 0,66,67
 532 245 532 245 512 266 c 128,-1,68
 492 287 492 287 464 287 c 0,69,70
 437 287 437 287 418.5 266 c 128,-1,71
 400 245 400 245 400 215 c 0,72,73
 400 186 400 186 419 156.5 c 128,-1,74
 438 127 438 127 471 104 c 1,75,-1
 471 104 l 1,63,64
EndSplineSet
Validated: 5
EndChar

StartChar: nnaodia
Encoding: 2851 2851 30
Width: 760
GlyphClass: 2
Flags: W
LayerCount: 2
Back
Fore
SplineSet
348 -14 m 1,0,1
 225 -14 225 -14 130 99 c 128,-1,2
 35 212 35 212 35 357 c 0,3,4
 35 437 35 437 96 493.5 c 128,-1,5
 157 550 157 550 244 550 c 1,6,7
 240 558 240 558 237.5 567 c 128,-1,8
 235 576 235 576 235 586 c 0,9,10
 235 656 235 656 287.5 705 c 128,-1,11
 340 754 340 754 415 754 c 0,12,13
 469 754 469 754 518.5 727 c 128,-1,14
 568 700 568 700 600 652 c 1,15,-1
 600 725 l 1,16,-1
 673 725 l 1,17,-1
 673 0 l 1,18,-1
 600 0 l 1,19,-1
 600 542 l 1,20,21
 562 607 562 607 512.5 645 c 128,-1,22
 463 683 463 683 415 683 c 0,23,24
 372 683 372 683 341 654.5 c 128,-1,25
 310 626 310 626 310 586 c 0,26,27
 310 571 310 571 314 559.5 c 128,-1,28
 318 548 318 548 325 542 c 1,29,30
 357 531 357 531 382 514 c 128,-1,31
 407 497 407 497 425 476 c 1,32,-1
 377 423 l 1,33,34
 351 449 351 449 316 463.5 c 128,-1,35
 281 478 281 478 244 478 c 0,36,37
 188 478 188 478 149 440 c 128,-1,38
 110 402 110 402 110 348 c 1,39,40
 130 359 130 359 161.5 365 c 128,-1,41
 193 371 193 371 235 371 c 0,42,43
 348 371 348 371 427.5 305 c 128,-1,44
 507 239 507 239 507 145 c 0,45,46
 507 79 507 79 460.5 32.5 c 128,-1,47
 414 -14 414 -14 348 -14 c 1,48,-1
 348 -14 l 1,0,1
348 55 m 1,49,50
 384 55 384 55 410 81.5 c 128,-1,51
 436 108 436 108 436 145 c 0,52,53
 436 210 436 210 377 256 c 128,-1,54
 318 302 318 302 235 302 c 0,55,56
 200 302 200 302 171 296 c 128,-1,57
 142 290 142 290 122 278 c 1,58,59
 137 191 137 191 206 123 c 128,-1,60
 275 55 275 55 348 55 c 1,61,-1
 348 55 l 1,49,50
EndSplineSet
Validated: 5
EndChar

StartChar: taodia
Encoding: 2852 2852 31
Width: 712
GlyphClass: 2
Flags: W
AnchorPoint: "oranchor-1" 370 0 basechar 0
LayerCount: 2
Back
Fore
SplineSet
358 -14 m 1,0,1
 271 -14 271 -14 209.5 46.5 c 128,-1,2
 148 107 148 107 148 193 c 0,3,4
 148 211 148 211 149.5 226 c 128,-1,5
 151 241 151 241 154 252 c 1,6,7
 101 266 101 266 68 324.5 c 128,-1,8
 35 383 35 383 35 461 c 0,9,10
 35 584 35 584 129.5 670.5 c 128,-1,11
 224 757 224 757 358 757 c 256,12,13
 492 757 492 757 586.5 670.5 c 128,-1,14
 681 584 681 584 681 461 c 0,15,16
 681 422 681 422 671.5 389.5 c 128,-1,17
 662 357 662 357 644 336 c 1,18,-1
 581 365 l 1,19,20
 595 385 595 385 602 409.5 c 128,-1,21
 609 434 609 434 609 461 c 0,22,23
 609 553 609 553 535.5 618.5 c 128,-1,24
 462 684 462 684 358 684 c 0,25,26
 255 684 255 684 182.5 618.5 c 128,-1,27
 110 553 110 553 110 461 c 0,28,29
 110 411 110 411 130 372.5 c 128,-1,30
 150 334 150 334 183 319 c 1,31,32
 201 350 201 350 229 375 c 128,-1,33
 257 400 257 400 294 418 c 1,34,-1
 333 364 l 1,35,36
 279 333 279 333 248 287 c 128,-1,37
 217 241 217 241 217 193 c 0,38,39
 217 136 217 136 258.5 95.5 c 128,-1,40
 300 55 300 55 358 55 c 256,41,42
 416 55 416 55 457.5 93.5 c 128,-1,43
 499 132 499 132 499 186 c 0,44,45
 499 203 499 203 496.5 216 c 128,-1,46
 494 229 494 229 489 238 c 1,47,48
 481 231 481 231 471 227 c 128,-1,49
 461 223 461 223 449 223 c 0,50,51
 422 223 422 223 402.5 241.5 c 128,-1,52
 383 260 383 260 383 287 c 0,53,54
 383 316 383 316 405 336.5 c 128,-1,55
 427 357 427 357 458 357 c 0,56,57
 504 357 504 357 537 307 c 128,-1,58
 570 257 570 257 570 186 c 0,59,60
 570 103 570 103 508 44.5 c 128,-1,61
 446 -14 446 -14 358 -14 c 1,62,-1
 358 -14 l 1,0,1
EndSplineSet
EndChar

StartChar: thaodia
Encoding: 2853 2853 32
Width: 713
GlyphClass: 2
Flags: W
LayerCount: 2
Back
Fore
SplineSet
304 -14 m 1,0,1
 192 -14 192 -14 112.5 53 c 128,-1,2
 33 120 33 120 33 215 c 0,3,4
 33 290 33 290 95.5 354 c 128,-1,5
 158 418 158 418 257 445 c 0,6,7
 316 461 316 461 353 502.5 c 128,-1,8
 390 544 390 544 390 594 c 0,9,10
 390 631 390 631 358 657 c 128,-1,11
 326 683 326 683 280 683 c 0,12,13
 233 683 233 683 200 657 c 128,-1,14
 167 631 167 631 167 594 c 0,15,16
 167 578 167 578 171.5 566 c 128,-1,17
 176 554 176 554 183 550 c 0,18,19
 193 544 193 544 198.5 534 c 128,-1,20
 204 524 204 524 204 512 c 0,21,22
 204 497 204 497 193 486.5 c 128,-1,23
 182 476 182 476 167 476 c 0,24,25
 137 476 137 476 115.5 510.5 c 128,-1,26
 94 545 94 545 94 594 c 0,27,28
 94 662 94 662 148.5 709.5 c 128,-1,29
 203 757 203 757 280 757 c 256,30,31
 357 757 357 757 411 709.5 c 128,-1,32
 465 662 465 662 465 594 c 0,33,34
 465 523 465 523 415 465 c 128,-1,35
 365 407 365 407 286 386 c 0,36,37
 208 365 208 365 158.5 317.5 c 128,-1,38
 109 270 109 270 109 215 c 0,39,40
 109 150 109 150 166 104.5 c 128,-1,41
 223 59 223 59 304 59 c 0,42,43
 408 59 408 59 481 118 c 128,-1,44
 554 177 554 177 554 260 c 2,45,-1
 554 725 l 1,46,-1
 626 725 l 1,47,-1
 626 0 l 1,48,-1
 554 0 l 1,49,-1
 554 96 l 1,50,51
 519 44 519 44 452.5 15 c 128,-1,52
 386 -14 386 -14 304 -14 c 1,53,-1
 304 -14 l 1,0,1
EndSplineSet
Validated: 5
EndChar

StartChar: daodia
Encoding: 2854 2854 33
Width: 710
GlyphClass: 2
Flags: W
AnchorPoint: "oranchor-1" 352 40 basechar 0
LayerCount: 2
Back
Fore
SplineSet
434 0 m 1,0,-1
 434 104 l 1,1,2
 420 88 420 88 395 79 c 128,-1,3
 370 70 370 70 338 70 c 0,4,5
 267 70 267 70 217 119 c 128,-1,6
 167 168 167 168 167 238 c 0,7,8
 167 248 167 248 168.5 257.5 c 128,-1,9
 170 267 170 267 173 275 c 1,10,11
 114 280 114 280 73.5 338 c 128,-1,12
 33 396 33 396 33 476 c 0,13,14
 33 592 33 592 127.5 674.5 c 128,-1,15
 222 757 222 757 355 757 c 0,16,17
 489 757 489 757 584 674.5 c 128,-1,18
 679 592 679 592 679 476 c 0,19,20
 679 437 679 437 669.5 400.5 c 128,-1,21
 660 364 660 364 642 333 c 1,22,-1
 576 371 l 1,23,24
 590 396 590 396 597.5 422.5 c 128,-1,25
 605 449 605 449 605 476 c 0,26,27
 605 562 605 562 532 622.5 c 128,-1,28
 459 683 459 683 355 683 c 0,29,30
 252 683 252 683 179.5 622.5 c 128,-1,31
 107 562 107 562 107 476 c 0,32,33
 107 420 107 420 133 381 c 128,-1,34
 159 342 159 342 196 342 c 1,35,36
 211 368 211 368 236 389.5 c 128,-1,37
 261 411 261 411 293 426 c 1,38,-1
 329 371 l 1,39,40
 289 352 289 352 265 316 c 128,-1,41
 241 280 241 280 241 238 c 0,42,43
 241 198 241 198 269.5 169.5 c 128,-1,44
 298 141 298 141 338 141 c 256,45,46
 378 141 378 141 406 169.5 c 128,-1,47
 434 198 434 198 434 238 c 2,48,-1
 434 386 l 1,49,-1
 506 386 l 1,50,-1
 506 0 l 1,51,-1
 434 0 l 1,52,-1
 434 0 l 1,0,-1
EndSplineSet
EndChar

StartChar: dhaodia
Encoding: 2855 2855 34
Width: 755
GlyphClass: 2
Flags: W
LayerCount: 2
Back
Fore
SplineSet
315 -14 m 1,0,1
 198 -14 198 -14 115.5 57 c 128,-1,2
 33 128 33 128 33 229 c 0,3,4
 33 319 33 319 96 389 c 128,-1,5
 159 459 159 459 255 476 c 1,6,-1
 70 705 l 1,7,-1
 129 750 l 1,8,-1
 458 333 l 1,9,-1
 405 290 l 1,10,-1
 300 415 l 1,11,12
 218 408 218 408 162 354.5 c 128,-1,13
 106 301 106 301 106 229 c 0,14,15
 106 158 106 158 167 107.5 c 128,-1,16
 228 57 228 57 315 57 c 0,17,18
 407 57 407 57 484.5 114.5 c 128,-1,19
 562 172 562 172 596 267 c 1,20,-1
 596 725 l 1,21,-1
 668 725 l 1,22,-1
 668 0 l 1,23,-1
 596 0 l 1,24,-1
 596 126 l 1,25,26
 558 61 558 61 483 23.5 c 128,-1,27
 408 -14 408 -14 315 -14 c 1,28,-1
 315 -14 l 1,0,1
EndSplineSet
Validated: 5
EndChar

StartChar: naodia
Encoding: 2856 2856 35
Width: 716
GlyphClass: 2
Flags: W
AnchorPoint: "oranchor-1" 370 0 basechar 0
LayerCount: 2
Back
Fore
SplineSet
442 0 m 1,0,-1
 442 312 l 1,1,2
 348 312 348 312 282 255.5 c 128,-1,3
 216 199 216 199 216 119 c 0,4,5
 216 106 216 106 225.5 97 c 128,-1,6
 235 88 235 88 248 88 c 0,7,8
 270 88 270 88 285 74 c 128,-1,9
 300 60 300 60 300 41 c 0,10,11
 300 21 300 21 285 7 c 128,-1,12
 270 -7 270 -7 248 -7 c 0,13,14
 205 -7 205 -7 174.5 30 c 128,-1,15
 144 67 144 67 144 119 c 0,16,17
 144 158 144 158 159.5 195 c 128,-1,18
 175 232 175 232 203 260 c 1,19,20
 129 273 129 273 80.5 334 c 128,-1,21
 32 395 32 395 32 476 c 0,22,23
 32 592 32 592 127.5 674.5 c 128,-1,24
 223 757 223 757 358 757 c 0,25,26
 494 757 494 757 590 674.5 c 128,-1,27
 686 592 686 592 686 476 c 0,28,29
 686 439 686 439 676 405.5 c 128,-1,30
 666 372 666 372 647 345 c 1,31,-1
 580 374 l 1,32,33
 595 395 595 395 602.5 421 c 128,-1,34
 610 447 610 447 610 476 c 0,35,36
 610 563 610 563 536 624.5 c 128,-1,37
 462 686 462 686 358 686 c 256,38,39
 254 686 254 686 180 624.5 c 128,-1,40
 106 563 106 563 106 476 c 0,41,42
 106 411 106 411 149.5 365 c 128,-1,43
 193 319 193 319 254 319 c 1,44,45
 293 351 293 351 340.5 368.5 c 128,-1,46
 388 386 388 386 439 386 c 2,47,-1
 515 386 l 1,48,-1
 515 0 l 1,49,-1
 442 0 l 1,50,-1
 442 0 l 1,0,-1
EndSplineSet
EndChar

StartChar: paodia
Encoding: 2858 2858 36
Width: 771
GlyphClass: 2
Flags: W
LayerCount: 2
Back
Fore
SplineSet
612 0 m 1,0,-1
 612 93 l 1,1,2
 589 44 589 44 528.5 15 c 128,-1,3
 468 -14 468 -14 389 -14 c 0,4,5
 288 -14 288 -14 216 46.5 c 128,-1,6
 144 107 144 107 144 193 c 0,7,8
 144 221 144 221 152 244 c 128,-1,9
 160 267 160 267 174 281 c 1,10,11
 111 298 111 298 71.5 352.5 c 128,-1,12
 32 407 32 407 32 476 c 0,13,14
 32 592 32 592 128 674.5 c 128,-1,15
 224 757 224 757 360 757 c 0,16,17
 443 757 443 757 510.5 723 c 128,-1,18
 578 689 578 689 612 631 c 1,19,-1
 612 725 l 1,20,-1
 684 725 l 1,21,-1
 684 0 l 1,22,-1
 612 0 l 1,23,-1
 612 0 l 1,0,-1
389 52 m 1,24,25
 481 52 481 52 546.5 113 c 128,-1,26
 612 174 612 174 612 260 c 2,27,-1
 612 476 l 2,28,29
 612 565 612 565 538 627.5 c 128,-1,30
 464 690 464 690 360 690 c 0,31,32
 255 690 255 690 181 627.5 c 128,-1,33
 107 565 107 565 107 476 c 0,34,35
 107 426 107 426 138 388 c 128,-1,36
 169 350 169 350 217 342 c 1,37,38
 243 368 243 368 279 382.5 c 128,-1,39
 315 397 315 397 355 397 c 1,40,-1
 367 333 l 1,41,42
 303 327 303 327 260 287 c 128,-1,43
 217 247 217 247 217 193 c 0,44,45
 217 135 217 135 267.5 93.5 c 128,-1,46
 318 52 318 52 389 52 c 1,47,-1
 389 52 l 1,24,25
EndSplineSet
Validated: 5
EndChar

StartChar: phaodia
Encoding: 2859 2859 37
Width: 866
GlyphClass: 2
Flags: W
AnchorPoint: "oranchor-1" 630 0 basechar 0
LayerCount: 2
Back
Fore
SplineSet
594 0 m 1,0,-1
 594 96 l 1,1,2
 563 45 563 45 505.5 15.5 c 128,-1,3
 448 -14 448 -14 378 -14 c 0,4,5
 280 -14 280 -14 210.5 44.5 c 128,-1,6
 141 103 141 103 141 186 c 0,7,8
 141 215 141 215 148.5 239.5 c 128,-1,9
 156 264 156 264 171 281 c 1,10,11
 108 304 108 304 69 357.5 c 128,-1,12
 30 411 30 411 30 476 c 0,13,14
 30 592 30 592 123.5 674.5 c 128,-1,15
 217 757 217 757 349 757 c 0,16,17
 431 757 431 757 496.5 725 c 128,-1,18
 562 693 562 693 594 638 c 1,19,-1
 594 725 l 1,20,-1
 667 725 l 1,21,-1
 667 690 l 1,22,23
 676 701 676 701 692 707 c 128,-1,24
 708 713 708 713 728 713 c 0,25,26
 776 713 776 713 810.5 679 c 128,-1,27
 845 645 845 645 845 597 c 0,28,29
 845 550 845 550 810.5 516.5 c 128,-1,30
 776 483 776 483 728 483 c 0,31,32
 708 483 708 483 692 487 c 128,-1,33
 676 491 676 491 667 499 c 1,34,-1
 667 0 l 1,35,-1
 594 0 l 1,36,-1
 594 0 l 1,0,-1
378 52 m 1,37,38
 467 52 467 52 530.5 115 c 128,-1,39
 594 178 594 178 594 267 c 2,40,-1
 594 483 l 2,41,42
 594 569 594 569 522 629.5 c 128,-1,43
 450 690 450 690 349 690 c 256,44,45
 248 690 248 690 176 627.5 c 128,-1,46
 104 565 104 565 104 476 c 0,47,48
 104 426 104 426 135 386 c 128,-1,49
 166 346 166 346 216 333 c 1,50,51
 239 360 239 360 274 376.5 c 128,-1,52
 309 393 309 393 352 397 c 1,53,-1
 364 333 l 1,54,55
 301 328 301 328 258.5 285.5 c 128,-1,56
 216 243 216 243 216 186 c 0,57,58
 216 130 216 130 263.5 91 c 128,-1,59
 311 52 311 52 378 52 c 1,60,-1
 378 52 l 1,37,38
728 542 m 1,61,62
 752 542 752 542 769.5 558 c 128,-1,63
 787 574 787 574 787 597 c 256,64,65
 787 620 787 620 769.5 636 c 128,-1,66
 752 652 752 652 728 652 c 0,67,68
 703 652 703 652 685.5 636 c 128,-1,69
 668 620 668 620 668 597 c 256,70,71
 668 574 668 574 685.5 558 c 128,-1,72
 703 542 703 542 728 542 c 1,73,-1
 728 542 l 1,61,62
EndSplineSet
EndChar

StartChar: baodia
Encoding: 2860 2860 38
Width: 719
GlyphClass: 2
Flags: W
AnchorPoint: "oranchor-1" 370 0 basechar 0
LayerCount: 2
Back
Fore
SplineSet
460 0 m 1,0,-1
 460 100 l 1,1,2
 443 83 443 83 416 73.5 c 128,-1,3
 389 64 389 64 357 64 c 0,4,5
 284 64 284 64 232 112.5 c 128,-1,6
 180 161 180 161 180 229 c 0,7,8
 180 244 180 244 182 257 c 128,-1,9
 184 270 184 270 188 281 c 1,10,11
 120 293 120 293 76 349.5 c 128,-1,12
 32 406 32 406 32 481 c 0,13,14
 32 595 32 595 128 676 c 128,-1,15
 224 757 224 757 360 757 c 0,16,17
 495 757 495 757 591 676 c 128,-1,18
 687 595 687 595 687 481 c 0,19,20
 687 442 687 442 674.5 404 c 128,-1,21
 662 366 662 366 639 333 c 1,22,-1
 573 371 l 1,23,24
 592 394 592 394 602 422 c 128,-1,25
 612 450 612 450 612 481 c 0,26,27
 612 566 612 566 538 626.5 c 128,-1,28
 464 687 464 687 360 687 c 0,29,30
 255 687 255 687 180.5 626.5 c 128,-1,31
 106 566 106 566 106 481 c 0,32,33
 106 425 106 425 141 385 c 128,-1,34
 176 345 176 345 226 345 c 1,35,36
 252 371 252 371 286 385 c 128,-1,37
 320 399 320 399 357 399 c 0,38,39
 429 399 429 399 480.5 349 c 128,-1,40
 532 299 532 299 532 229 c 2,41,-1
 532 0 l 1,42,-1
 460 0 l 1,43,-1
 460 0 l 1,0,-1
357 133 m 1,44,45
 400 133 400 133 430 161 c 128,-1,46
 460 189 460 189 460 229 c 0,47,48
 460 270 460 270 430 299 c 128,-1,49
 400 328 400 328 357 328 c 256,50,51
 314 328 314 328 283 299 c 128,-1,52
 252 270 252 270 252 229 c 0,53,54
 252 189 252 189 283 161 c 128,-1,55
 314 133 314 133 357 133 c 1,56,-1
 357 133 l 1,44,45
EndSplineSet
EndChar

StartChar: bhaodia
Encoding: 2861 2861 39
Width: 770
GlyphClass: 2
Flags: W
AnchorPoint: "oranchor-1" 370 0 basechar 0
LayerCount: 2
Back
Fore
SplineSet
335 -14 m 1,0,1
 246 -14 246 -14 183 51.5 c 128,-1,2
 120 117 120 117 120 209 c 0,3,4
 120 247 120 247 124 273 c 128,-1,5
 128 299 128 299 135 312 c 1,6,7
 89 324 89 324 59.5 372.5 c 128,-1,8
 30 421 30 421 30 486 c 0,9,10
 30 598 30 598 127 677.5 c 128,-1,11
 224 757 224 757 361 757 c 0,12,13
 504 757 504 757 605 652.5 c 128,-1,14
 706 548 706 548 706 400 c 0,15,16
 706 328 706 328 692.5 271 c 128,-1,17
 679 214 679 214 654 178 c 1,18,-1
 725 23 l 1,19,-1
 654 -3 l 1,20,-1
 570 178 l 1,21,22
 600 221 600 221 616 278 c 128,-1,23
 632 335 632 335 632 400 c 0,24,25
 632 519 632 519 552.5 603 c 128,-1,26
 473 687 473 687 361 687 c 0,27,28
 255 687 255 687 179.5 628 c 128,-1,29
 104 569 104 569 104 486 c 0,30,31
 104 449 104 449 120.5 420 c 128,-1,32
 137 391 137 391 164 378 c 1,33,34
 175 398 175 398 188.5 413 c 128,-1,35
 202 428 202 428 216 438 c 1,36,-1
 265 390 l 1,37,38
 231 361 231 361 212 313.5 c 128,-1,39
 193 266 193 266 193 209 c 0,40,41
 193 145 193 145 234.5 100 c 128,-1,42
 276 55 276 55 335 55 c 0,43,44
 384 55 384 55 419 86.5 c 128,-1,45
 454 118 454 118 454 162 c 1,46,47
 446 152 446 152 429 147 c 128,-1,48
 412 142 412 142 390 142 c 0,49,50
 342 142 342 142 308.5 178.5 c 128,-1,51
 275 215 275 215 275 267 c 0,52,53
 275 311 275 311 292.5 349.5 c 128,-1,54
 310 388 310 388 342 415 c 1,55,-1
 393 371 l 1,56,57
 372 350 372 350 360.5 323 c 128,-1,58
 349 296 349 296 349 267 c 0,59,60
 349 243 349 243 364.5 226 c 128,-1,61
 380 209 380 209 402 209 c 256,62,63
 424 209 424 209 439 224 c 128,-1,64
 454 239 454 239 454 260 c 2,65,-1
 454 386 l 1,66,-1
 523 386 l 1,67,-1
 523 164 l 2,68,69
 523 90 523 90 468 38 c 128,-1,70
 413 -14 413 -14 335 -14 c 1,71,-1
 335 -14 l 1,0,1
EndSplineSet
EndChar

StartChar: maodia
Encoding: 2862 2862 40
Width: 755
GlyphClass: 2
Flags: W
LayerCount: 2
Back
Fore
SplineSet
219 -14 m 1,0,1
 188 -14 188 -14 162 18.5 c 128,-1,2
 136 51 136 51 136 90 c 0,3,4
 136 130 136 130 151.5 170 c 128,-1,5
 167 210 167 210 196 245 c 1,6,7
 124 264 124 264 78.5 326 c 128,-1,8
 33 388 33 388 33 467 c 0,9,10
 33 587 33 587 126.5 672 c 128,-1,11
 220 757 220 757 352 757 c 0,12,13
 427 757 427 757 491 728 c 128,-1,14
 555 699 555 699 596 647 c 1,15,-1
 596 725 l 1,16,-1
 668 725 l 1,17,-1
 668 0 l 1,18,-1
 596 0 l 1,19,-1
 596 467 l 2,20,21
 596 556 596 556 524.5 619.5 c 128,-1,22
 453 683 453 683 352 683 c 0,23,24
 250 683 250 683 178 619.5 c 128,-1,25
 106 556 106 556 106 467 c 0,26,27
 106 403 106 403 145 356 c 128,-1,28
 184 309 184 309 241 304 c 1,29,30
 295 349 295 349 341.5 376 c 128,-1,31
 388 403 388 403 425 409 c 1,32,-1
 451 348 l 1,33,34
 348 310 348 310 282.5 242 c 128,-1,35
 217 174 217 174 210 96 c 1,36,37
 238 96 238 96 257.5 79 c 128,-1,38
 277 62 277 62 277 38 c 0,39,40
 277 16 277 16 260 1 c 128,-1,41
 243 -14 243 -14 219 -14 c 1,42,-1
 219 -14 l 1,0,1
EndSplineSet
Validated: 5
EndChar

StartChar: yaodia
Encoding: 2863 2863 41
Width: 782
GlyphClass: 4
Flags: W
LayerCount: 2
Back
Fore
SplineSet
429 -14 m 1,0,1
 343 -14 343 -14 282.5 40 c 128,-1,2
 222 94 222 94 222 171 c 0,3,4
 222 188 222 188 225.5 201.5 c 128,-1,5
 229 215 229 215 236 223 c 1,6,7
 203 204 203 204 178.5 183.5 c 128,-1,8
 154 163 154 163 139 142 c 1,9,10
 149 135 149 135 155 122.5 c 128,-1,11
 161 110 161 110 161 96 c 0,12,13
 161 72 161 72 144 55 c 128,-1,14
 127 38 127 38 103 38 c 0,15,16
 78 38 78 38 60 55 c 128,-1,17
 42 72 42 72 42 96 c 0,18,19
 42 137 42 137 80 183 c 128,-1,20
 118 229 118 229 184 267 c 1,21,22
 128 282 128 282 93 340 c 128,-1,23
 58 398 58 398 58 476 c 0,24,25
 58 592 58 592 151.5 674.5 c 128,-1,26
 245 757 245 757 377 757 c 0,27,28
 455 757 455 757 520 727.5 c 128,-1,29
 585 698 585 698 622 645 c 1,30,-1
 622 725 l 1,31,-1
 695 725 l 1,32,-1
 695 0 l 1,33,-1
 622 0 l 1,34,-1
 622 104 l 1,35,36
 603 51 603 51 550 18.5 c 128,-1,37
 497 -14 497 -14 429 -14 c 1,38,-1
 429 -14 l 1,0,1
429 59 m 1,39,40
 509 59 509 59 565.5 128.5 c 128,-1,41
 622 198 622 198 622 297 c 2,42,-1
 622 476 l 2,43,44
 622 562 622 562 550 622.5 c 128,-1,45
 478 683 478 683 377 683 c 256,46,47
 276 683 276 683 204 622.5 c 128,-1,48
 132 562 132 562 132 476 c 0,49,50
 132 411 132 411 166 363.5 c 128,-1,51
 200 316 200 316 251 312 c 1,52,-1
 399 409 l 1,53,-1
 436 348 l 1,54,-1
 355 293 l 2,55,56
 327 275 327 275 310.5 242.5 c 128,-1,57
 294 210 294 210 294 171 c 0,58,59
 294 125 294 125 333.5 92 c 128,-1,60
 373 59 373 59 429 59 c 1,61,-1
 429 59 l 1,39,40
EndSplineSet
Validated: 5
EndChar

StartChar: raodia
Encoding: 2864 2864 42
Width: 745
GlyphClass: 2
Flags: W
AnchorPoint: "oranchor-1" 370 0 basechar 0
LayerCount: 2
Back
Fore
SplineSet
333 -22 m 1,0,1
 258 -22 258 -22 204.5 37.5 c 128,-1,2
 151 97 151 97 151 181 c 0,3,4
 151 200 151 200 154 214.5 c 128,-1,5
 157 229 157 229 162 238 c 1,6,7
 104 265 104 265 69.5 325.5 c 128,-1,8
 35 386 35 386 35 460 c 0,9,10
 35 583 35 583 129.5 670 c 128,-1,11
 224 757 224 757 357 757 c 0,12,13
 491 757 491 757 586 658 c 128,-1,14
 681 559 681 559 681 419 c 0,15,16
 681 347 681 347 666 283.5 c 128,-1,17
 651 220 651 220 623 171 c 1,18,-1
 705 29 l 1,19,-1
 641 -7 l 1,20,-1
 541 162 l 1,21,22
 574 220 574 220 591.5 285.5 c 128,-1,23
 609 351 609 351 609 419 c 0,24,25
 609 530 609 530 535 608.5 c 128,-1,26
 461 687 461 687 357 687 c 256,27,28
 253 687 253 687 179.5 620.5 c 128,-1,29
 106 554 106 554 106 460 c 0,30,31
 106 403 106 403 129.5 360 c 128,-1,32
 153 317 153 317 191 304 c 1,33,34
 218 343 218 343 255.5 364.5 c 128,-1,35
 293 386 293 386 333 386 c 0,36,37
 408 386 408 386 460.5 326 c 128,-1,38
 513 266 513 266 513 181 c 0,39,40
 513 97 513 97 460.5 37.5 c 128,-1,41
 408 -22 408 -22 333 -22 c 1,42,-1
 333 -22 l 1,0,1
333 52 m 1,43,44
 378 52 378 52 409.5 90 c 128,-1,45
 441 128 441 128 441 181 c 0,46,47
 441 235 441 235 409.5 273.5 c 128,-1,48
 378 312 378 312 333 312 c 256,49,50
 288 312 288 312 256.5 273.5 c 128,-1,51
 225 235 225 235 225 181 c 0,52,53
 225 128 225 128 256.5 90 c 128,-1,54
 288 52 288 52 333 52 c 1,55,-1
 333 52 l 1,43,44
EndSplineSet
EndChar

StartChar: laodia
Encoding: 2866 2866 43
Width: 783
GlyphClass: 2
Flags: W
AnchorPoint: "oranchor-1" 330 0 basechar 0
LayerCount: 2
Back
Fore
SplineSet
144 0 m 1,0,-1
 144 267 l 1,1,2
 93 291 93 291 63 347 c 128,-1,3
 33 403 33 403 33 474 c 0,4,5
 33 591 33 591 131 674 c 128,-1,6
 229 757 229 757 367 757 c 0,7,8
 511 757 511 757 613 657 c 128,-1,9
 715 557 715 557 715 415 c 0,10,11
 715 350 715 350 702 288 c 128,-1,12
 689 226 689 226 663 171 c 1,13,-1
 753 41 l 1,14,-1
 693 0 l 1,15,-1
 584 162 l 1,16,17
 613 223 613 223 627.5 287 c 128,-1,18
 642 351 642 351 642 415 c 0,19,20
 642 529 642 529 561.5 609.5 c 128,-1,21
 481 690 481 690 367 690 c 0,22,23
 259 690 259 690 182.5 626.5 c 128,-1,24
 106 563 106 563 106 474 c 0,25,26
 106 424 106 424 124 385.5 c 128,-1,27
 142 347 142 347 173 333 c 1,28,29
 185 354 185 354 207 366 c 128,-1,30
 229 378 229 378 255 378 c 0,31,32
 282 378 282 378 304 370 c 128,-1,33
 326 362 326 362 338 348 c 1,34,35
 350 362 350 362 369 370 c 128,-1,36
 388 378 388 378 410 378 c 0,37,38
 453 378 453 378 483 345.5 c 128,-1,39
 513 313 513 313 513 267 c 2,40,-1
 513 0 l 1,41,-1
 441 0 l 1,42,-1
 441 267 l 2,43,44
 441 286 441 286 430.5 299 c 128,-1,45
 420 312 420 312 405 312 c 0,46,47
 388 312 388 312 376.5 299 c 128,-1,48
 365 286 365 286 365 267 c 2,49,-1
 365 0 l 1,50,-1
 293 0 l 1,51,-1
 293 267 l 2,52,53
 293 286 293 286 282 299 c 128,-1,54
 271 312 271 312 255 312 c 256,55,56
 239 312 239 312 227.5 299 c 128,-1,57
 216 286 216 286 216 267 c 2,58,-1
 216 0 l 1,59,-1
 144 0 l 1,60,-1
 144 0 l 1,0,-1
EndSplineSet
EndChar

StartChar: llaodia
Encoding: 2867 2867 44
Width: 721
GlyphClass: 2
Flags: W
AnchorPoint: "oranchor-1" 360 0 basechar 0
LayerCount: 2
Back
Fore
SplineSet
175 0 m 1,0,-1
 175 252 l 1,1,2
 113 263 113 263 73 324 c 128,-1,3
 33 385 33 385 33 467 c 0,4,5
 33 587 33 587 129 672 c 128,-1,6
 225 757 225 757 361 757 c 0,7,8
 496 757 496 757 591.5 672 c 128,-1,9
 687 587 687 587 687 467 c 0,10,11
 687 415 687 415 674.5 374 c 128,-1,12
 662 333 662 333 639 310 c 1,13,-1
 579 352 l 1,14,15
 596 376 596 376 604.5 405.5 c 128,-1,16
 613 435 613 435 613 467 c 0,17,18
 613 558 613 558 539 622.5 c 128,-1,19
 465 687 465 687 361 687 c 256,20,21
 257 687 257 687 183 622.5 c 128,-1,22
 109 558 109 558 109 467 c 0,23,24
 109 411 109 411 131.5 370 c 128,-1,25
 154 329 154 329 190 319 c 1,26,27
 204 343 204 343 227.5 357 c 128,-1,28
 251 371 251 371 278 371 c 256,29,30
 305 371 305 371 327 359.5 c 128,-1,31
 349 348 349 348 361 328 c 1,32,33
 375 348 375 348 396.5 359.5 c 128,-1,34
 418 371 418 371 442 371 c 0,35,36
 484 371 484 371 514 336 c 128,-1,37
 544 301 544 301 544 252 c 2,38,-1
 544 0 l 1,39,-1
 471 0 l 1,40,-1
 471 252 l 2,41,42
 471 271 471 271 460 284 c 128,-1,43
 449 297 449 297 434 297 c 256,44,45
 419 297 419 297 408 284 c 128,-1,46
 397 271 397 271 397 252 c 2,47,-1
 397 0 l 1,48,-1
 323 0 l 1,49,-1
 323 252 l 2,50,51
 323 271 323 271 312 284 c 128,-1,52
 301 297 301 297 286 297 c 0,53,54
 270 297 270 297 259 284 c 128,-1,55
 248 271 248 271 248 252 c 2,56,-1
 248 0 l 1,57,-1
 175 0 l 1,58,-1
 175 0 l 1,0,-1
EndSplineSet
EndChar

StartChar: vaodia
Encoding: 2869 2869 45
Width: 702
GlyphClass: 2
Flags: W
AnchorPoint: "oranchor-1" 370 0 basechar 0
LayerCount: 2
Back
Fore
SplineSet
455 0 m 1,0,-1
 455 97 l 1,1,2
 438 80 438 80 411 70.5 c 128,-1,3
 384 61 384 61 351 61 c 0,4,5
 278 61 278 61 226 110 c 128,-1,6
 174 159 174 159 174 229 c 0,7,8
 174 245 174 245 176 258 c 128,-1,9
 178 271 178 271 181 281 c 1,10,11
 115 299 115 299 73.5 357 c 128,-1,12
 32 415 32 415 32 490 c 0,13,14
 32 601 32 601 125.5 679 c 128,-1,15
 219 757 219 757 351 757 c 0,16,17
 484 757 484 757 577.5 679 c 128,-1,18
 671 601 671 601 671 490 c 0,19,20
 671 448 671 448 657.5 410 c 128,-1,21
 644 372 644 372 619 342 c 1,22,-1
 560 378 l 1,23,24
 578 399 578 399 587.5 428 c 128,-1,25
 597 457 597 457 597 490 c 0,26,27
 597 572 597 572 525 629.5 c 128,-1,28
 453 687 453 687 351 687 c 0,29,30
 250 687 250 687 178.5 629.5 c 128,-1,31
 107 572 107 572 107 490 c 0,32,33
 107 431 107 431 139.5 388.5 c 128,-1,34
 172 346 172 346 220 342 c 1,35,36
 246 369 246 369 280.5 384 c 128,-1,37
 315 399 315 399 351 399 c 0,38,39
 424 399 424 399 476 349 c 128,-1,40
 528 299 528 299 528 229 c 2,41,-1
 528 0 l 1,42,-1
 455 0 l 1,43,-1
 455 0 l 1,0,-1
351 133 m 1,44,45
 394 133 394 133 424.5 161 c 128,-1,46
 455 189 455 189 455 229 c 0,47,48
 455 270 455 270 424.5 299 c 128,-1,49
 394 328 394 328 351 328 c 256,50,51
 308 328 308 328 278 299 c 128,-1,52
 248 270 248 270 248 229 c 0,53,54
 248 189 248 189 278 161 c 128,-1,55
 308 133 308 133 351 133 c 1,56,-1
 351 133 l 1,44,45
307 229 m 1,57,58
 307 248 307 248 320 261.5 c 128,-1,59
 333 275 333 275 351 275 c 0,60,61
 370 275 370 275 383.5 261.5 c 128,-1,62
 397 248 397 248 397 229 c 0,63,64
 397 211 397 211 383.5 198.5 c 128,-1,65
 370 186 370 186 351 186 c 0,66,67
 333 186 333 186 320 198.5 c 128,-1,68
 307 211 307 211 307 229 c 1,69,-1
 307 229 l 1,57,58
EndSplineSet
EndChar

StartChar: shaodia
Encoding: 2870 2870 46
Width: 738
GlyphClass: 2
Flags: W
LayerCount: 2
Back
Fore
SplineSet
336 -22 m 1,0,1
 261 -22 261 -22 208 37 c 128,-1,2
 155 96 155 96 155 180 c 0,3,4
 155 199 155 199 158 217.5 c 128,-1,5
 161 236 161 236 167 252 c 1,6,7
 107 252 107 252 64.5 291 c 128,-1,8
 22 330 22 330 22 386 c 0,9,10
 22 454 22 454 89.5 502 c 128,-1,11
 157 550 157 550 252 550 c 1,12,13
 238 562 238 562 230 580 c 128,-1,14
 222 598 222 598 222 618 c 0,15,16
 222 674 222 674 270 714 c 128,-1,17
 318 754 318 754 386 754 c 0,18,19
 450 754 450 754 502 722.5 c 128,-1,20
 554 691 554 691 579 638 c 1,21,-1
 579 725 l 1,22,-1
 651 725 l 1,23,-1
 651 0 l 1,24,-1
 579 0 l 1,25,-1
 579 452 l 2,26,27
 579 548 579 548 522.5 615.5 c 128,-1,28
 466 683 466 683 386 683 c 0,29,30
 349 683 349 683 322.5 663.5 c 128,-1,31
 296 644 296 644 296 616 c 0,32,33
 296 592 296 592 306 574 c 128,-1,34
 316 556 316 556 333 550 c 1,35,36
 364 545 364 545 395 532.5 c 128,-1,37
 426 520 426 520 455 502 c 1,38,-1
 423 438 l 1,39,40
 389 458 389 458 347 468 c 128,-1,41
 305 478 305 478 258 478 c 0,42,43
 191 478 191 478 143.5 451 c 128,-1,44
 96 424 96 424 96 386 c 0,45,46
 96 355 96 355 125.5 333.5 c 128,-1,47
 155 312 155 312 197 312 c 1,48,49
 218 346 218 346 255 366 c 128,-1,50
 292 386 292 386 336 386 c 0,51,52
 412 386 412 386 465.5 326 c 128,-1,53
 519 266 519 266 519 181 c 0,54,55
 519 97 519 97 465.5 37.5 c 128,-1,56
 412 -22 412 -22 336 -22 c 1,57,-1
 336 -22 l 1,0,1
336 52 m 1,58,59
 381 52 381 52 412.5 90 c 128,-1,60
 444 128 444 128 444 181 c 0,61,62
 444 235 444 235 412.5 273.5 c 128,-1,63
 381 312 381 312 336 312 c 0,64,65
 292 312 292 312 260.5 273.5 c 128,-1,66
 229 235 229 235 229 181 c 0,67,68
 229 128 229 128 260.5 90 c 128,-1,69
 292 52 292 52 336 52 c 1,70,-1
 336 52 l 1,58,59
EndSplineSet
Validated: 5
EndChar

StartChar: ssaodia
Encoding: 2871 2871 47
Width: 757
GlyphClass: 2
Flags: W
LayerCount: 2
Back
Fore
SplineSet
367 -14 m 1,0,1
 278 -14 278 -14 214.5 36 c 128,-1,2
 151 86 151 86 151 157 c 0,3,4
 151 195 151 195 165 226.5 c 128,-1,5
 179 258 179 258 203 275 c 1,6,7
 130 281 130 281 81 336.5 c 128,-1,8
 32 392 32 392 32 467 c 0,9,10
 32 587 32 587 123.5 672 c 128,-1,11
 215 757 215 757 345 757 c 0,12,13
 429 757 429 757 495.5 729 c 128,-1,14
 562 701 562 701 597 652 c 1,15,-1
 597 725 l 1,16,-1
 670 725 l 1,17,-1
 670 0 l 1,18,-1
 597 0 l 1,19,-1
 597 104 l 1,20,21
 558 49 558 49 497 17.5 c 128,-1,22
 436 -14 436 -14 367 -14 c 1,23,-1
 367 -14 l 1,0,1
367 52 m 1,24,25
 426 52 426 52 479.5 86 c 128,-1,26
 533 120 533 120 567 178 c 1,27,-1
 412 364 l 1,28,-1
 284 267 l 2,29,30
 257 248 257 248 241.5 219 c 128,-1,31
 226 190 226 190 226 157 c 0,32,33
 226 114 226 114 267.5 83 c 128,-1,34
 309 52 309 52 367 52 c 1,35,-1
 367 52 l 1,24,25
232 333 m 1,36,37
 251 333 251 333 285 353.5 c 128,-1,38
 319 374 319 374 367 415 c 1,39,-1
 188 626 l 1,40,41
 150 599 150 599 128.5 557 c 128,-1,42
 107 515 107 515 107 467 c 0,43,44
 107 411 107 411 143.5 372 c 128,-1,45
 180 333 180 333 232 333 c 1,46,-1
 232 333 l 1,36,37
597 238 m 1,47,-1
 597 490 l 2,48,49
 597 573 597 573 523 631.5 c 128,-1,50
 449 690 449 690 345 690 c 0,51,52
 319 690 319 690 292.5 682.5 c 128,-1,53
 266 675 266 675 241 661 c 1,54,-1
 597 238 l 1,55,-1
 597 238 l 1,47,-1
EndSplineSet
Validated: 5
EndChar

StartChar: saodia
Encoding: 2872 2872 48
Width: 744
GlyphClass: 2
Flags: W
LayerCount: 2
Back
Fore
SplineSet
663 -29 m 1,0,-1
 135 133 l 1,1,-1
 135 159 l 1,2,-1
 225 238 l 1,3,4
 139 264 139 264 85.5 330 c 128,-1,5
 32 396 32 396 32 476 c 0,6,7
 32 592 32 592 123.5 674.5 c 128,-1,8
 215 757 215 757 344 757 c 0,9,10
 418 757 418 757 481.5 726.5 c 128,-1,11
 545 696 545 696 583 642 c 1,12,-1
 583 725 l 1,13,-1
 655 725 l 1,14,-1
 655 49 l 1,15,-1
 692 35 l 1,16,-1
 663 -29 l 1,17,-1
 663 -29 l 1,0,-1
583 71 m 1,18,-1
 583 476 l 2,19,20
 583 563 583 563 513 625 c 128,-1,21
 443 687 443 687 344 687 c 256,22,23
 245 687 245 687 175.5 625 c 128,-1,24
 106 563 106 563 106 476 c 0,25,26
 106 410 106 410 157 358.5 c 128,-1,27
 208 307 208 307 287 293 c 1,28,-1
 463 438 l 1,29,-1
 515 386 l 1,30,-1
 262 175 l 1,31,-1
 583 71 l 1,32,-1
 583 71 l 1,18,-1
EndSplineSet
Validated: 5
EndChar

StartChar: haodia
Encoding: 2873 2873 49
Width: 681
GlyphClass: 2
Flags: W
AnchorPoint: "oranchor-1" 370 0 basechar 0
LayerCount: 2
Back
Fore
SplineSet
579 -26 m 1,0,-1
 110 59 l 1,1,-1
 110 90 l 1,2,-1
 244 200 l 1,3,4
 216 216 216 216 199.5 246 c 128,-1,5
 183 276 183 276 183 312 c 1,6,-1
 186 333 l 1,7,8
 118 345 118 345 73.5 397.5 c 128,-1,9
 29 450 29 450 29 519 c 0,10,11
 29 618 29 618 120.5 687.5 c 128,-1,12
 212 757 212 757 342 757 c 0,13,14
 470 757 470 757 561 687.5 c 128,-1,15
 652 618 652 618 652 519 c 0,16,17
 652 483 652 483 638.5 448 c 128,-1,18
 625 413 625 413 600 383 c 1,19,-1
 542 423 l 1,20,21
 560 444 560 444 569.5 469 c 128,-1,22
 579 494 579 494 579 519 c 0,23,24
 579 590 579 590 509.5 640 c 128,-1,25
 440 690 440 690 342 690 c 0,26,27
 243 690 243 690 173.5 640 c 128,-1,28
 104 590 104 590 104 519 c 0,29,30
 104 470 104 470 134 435 c 128,-1,31
 164 400 164 400 207 400 c 1,32,33
 220 428 220 428 245 449.5 c 128,-1,34
 270 471 270 471 304 483 c 1,35,-1
 333 423 l 1,36,37
 297 410 297 410 274.5 379.5 c 128,-1,38
 252 349 252 349 252 312 c 0,39,40
 252 278 252 278 278.5 253.5 c 128,-1,41
 305 229 305 229 342 229 c 0,42,43
 378 229 378 229 403.5 253.5 c 128,-1,44
 429 278 429 278 429 312 c 2,45,-1
 429 431 l 1,46,-1
 505 431 l 1,47,-1
 505 104 l 1,48,-1
 429 104 l 1,49,-1
 429 191 l 1,50,51
 417 176 417 176 394 167.5 c 128,-1,52
 371 159 371 159 342 159 c 0,53,54
 335 159 335 159 325 160.5 c 128,-1,55
 315 162 315 162 303 165 c 1,56,-1
 229 104 l 1,57,-1
 594 35 l 1,58,-1
 579 -26 l 1,59,-1
 579 -26 l 1,0,-1
EndSplineSet
EndChar

StartChar: nuktasignodia
Encoding: 2876 2876 50
Width: 0
GlyphClass: 4
Flags: W
LayerCount: 2
Back
Fore
SplineSet
-511 -209 m 1,0,1
 -539 -209 -539 -209 -558.5 -189.5 c 128,-1,2
 -578 -170 -578 -170 -578 -142 c 256,3,4
 -578 -114 -578 -114 -558.5 -94 c 128,-1,5
 -539 -74 -539 -74 -511 -74 c 0,6,7
 -484 -74 -484 -74 -464.5 -94 c 128,-1,8
 -445 -114 -445 -114 -445 -142 c 256,9,10
 -445 -170 -445 -170 -464.5 -189.5 c 128,-1,11
 -484 -209 -484 -209 -511 -209 c 1,12,-1
 -511 -209 l 1,0,1
EndSplineSet
Validated: 5
EndChar

StartChar: avagrahasignodia
Encoding: 2877 2877 51
Width: 561
GlyphClass: 2
Flags: W
LayerCount: 2
Back
Fore
SplineSet
87 513 m 1,0,-1
 428 755 l 1,1,-1
 473 683 l 1,2,-1
 241 522 l 1,3,-1
 510 380 l 1,4,-1
 246 209 l 1,5,-1
 473 59 l 1,6,-1
 422 -13 l 1,7,-1
 87 209 l 1,8,-1
 361 373 l 1,9,-1
 87 513 l 1,10,-1
 87 513 l 1,0,-1
EndSplineSet
Validated: 5
EndChar

StartChar: aasignodia
Encoding: 2878 2878 52
Width: 246
GlyphClass: 4
Flags: W
LayerCount: 2
Back
Fore
SplineSet
87 0 m 1,0,-1
 87 725 l 1,1,-1
 159 725 l 1,2,-1
 159 0 l 1,3,-1
 87 0 l 1,4,-1
 87 0 l 1,0,-1
EndSplineSet
Validated: 5
EndChar

StartChar: isignodia
Encoding: 2879 2879 53
Width: 0
GlyphClass: 4
Flags: W
LayerCount: 2
Back
Fore
SplineSet
-631 816 m 1,0,-1
 -683 869 l 1,1,2
 -631 921 -631 921 -554 949 c 128,-1,3
 -477 977 -477 977 -387 977 c 0,4,5
 -296 977 -296 977 -218.5 949 c 128,-1,6
 -141 921 -141 921 -89 869 c 1,7,-1
 -141 816 l 1,8,9
 -184 859 -184 859 -248 882.5 c 128,-1,10
 -312 906 -312 906 -386 906 c 256,11,12
 -460 906 -460 906 -524 882.5 c 128,-1,13
 -588 859 -588 859 -631 816 c 1,14,-1
 -631 816 l 1,0,-1
EndSplineSet
Validated: 5
EndChar

StartChar: iisignodia
Encoding: 2880 2880 54
Width: 325
GlyphClass: 4
Flags: W
LayerCount: 2
Back
Fore
SplineSet
165 0 m 1,0,-1
 165 652 l 1,1,-1
 54 557 l 1,2,-1
 10 616 l 1,3,-1
 165 742 l 2,4,5
 182 756 182 756 195.5 763.5 c 128,-1,6
 209 771 209 771 217 771 c 0,7,8
 226 771 226 771 232 765 c 128,-1,9
 238 759 238 759 238 750 c 2,10,-1
 238 0 l 1,11,-1
 165 0 l 1,12,-1
 165 0 l 1,0,-1
EndSplineSet
Validated: 5
EndChar

StartChar: usignodia
Encoding: 2881 2881 55
Width: 0
GlyphClass: 4
Flags: W
AnchorPoint: "oranchor-1" -124 4 mark 0
LayerCount: 2
Back
Fore
SplineSet
-277 -290 m 1,0,1
 -336 -290 -336 -290 -377.5 -261.5 c 128,-1,2
 -419 -233 -419 -233 -419 -193 c 256,3,4
 -419 -153 -419 -153 -384 -124.5 c 128,-1,5
 -349 -96 -349 -96 -300 -96 c 0,6,7
 -259 -96 -259 -96 -227 -103.5 c 128,-1,8
 -195 -111 -195 -111 -174 -126 c 1,9,10
 -168 -121 -168 -121 -165 -107 c 128,-1,11
 -162 -93 -162 -93 -159 -67 c 2,12,-1
 -159 14 l 1,13,-1
 -87 14 l 1,14,-1
 -87 -67 l 2,15,16
 -87 -98 -87 -98 -94 -126 c 128,-1,17
 -101 -154 -101 -154 -115 -178 c 1,18,19
 -90 -203 -90 -203 -59 -217 c 128,-1,20
 -28 -231 -28 -231 4 -231 c 0,21,22
 30 -231 30 -231 54 -215 c 128,-1,23
 78 -199 78 -199 94 -171 c 1,24,-1
 138 -215 l 1,25,26
 116 -253 116 -253 78 -275 c 128,-1,27
 40 -297 40 -297 -4 -297 c 0,28,29
 -39 -297 -39 -297 -78.5 -282 c 128,-1,30
 -118 -267 -118 -267 -159 -238 c 1,31,32
 -180 -263 -180 -263 -211 -276.5 c 128,-1,33
 -242 -290 -242 -290 -277 -290 c 1,34,-1
 -277 -290 l 1,0,1
-286 -238 m 1,35,36
 -268 -238 -268 -238 -247 -226.5 c 128,-1,37
 -226 -215 -226 -215 -204 -193 c 1,38,39
 -216 -172 -216 -172 -238 -160 c 128,-1,40
 -260 -148 -260 -148 -286 -148 c 0,41,42
 -317 -148 -317 -148 -338.5 -161 c 128,-1,43
 -360 -174 -360 -174 -360 -193 c 256,44,45
 -360 -212 -360 -212 -338.5 -225 c 128,-1,46
 -317 -238 -317 -238 -286 -238 c 1,47,-1
 -286 -238 l 1,35,36
EndSplineSet
EndChar

StartChar: uusignodia
Encoding: 2882 2882 56
Width: 0
GlyphClass: 4
Flags: W
AnchorPoint: "oranchor-1" -124 4 mark 0
LayerCount: 2
Back
Fore
SplineSet
-153 -360 m 1,0,1
 -211 -360 -211 -360 -252.5 -323.5 c 128,-1,2
 -294 -287 -294 -287 -294 -235 c 0,3,4
 -294 -182 -294 -182 -255 -144.5 c 128,-1,5
 -216 -107 -216 -107 -161 -107 c 1,6,-1
 -161 14 l 1,7,-1
 -88 14 l 1,8,-1
 -88 -174 l 1,9,-1
 -153 -174 l 2,10,11
 -184 -174 -184 -174 -205.5 -192 c 128,-1,12
 -227 -210 -227 -210 -227 -235 c 0,13,14
 -227 -259 -227 -259 -205.5 -276 c 128,-1,15
 -184 -293 -184 -293 -153 -293 c 0,16,17
 -116 -293 -116 -293 -89 -271.5 c 128,-1,18
 -62 -250 -62 -250 -59 -219 c 1,19,-1
 3 -204 l 1,20,-1
 203 -316 l 1,21,-1
 173 -368 l 1,22,-1
 -4 -271 l 1,23,24
 -23 -312 -23 -312 -63.5 -336 c 128,-1,25
 -104 -360 -104 -360 -153 -360 c 1,26,-1
 -153 -360 l 1,0,1
EndSplineSet
EndChar

StartChar: vocalicrsignodia
Encoding: 2883 2883 57
Width: 0
GlyphClass: 4
Flags: W
AnchorPoint: "oranchor-1" -133 0 mark 0
LayerCount: 2
Back
Fore
SplineSet
-139 -333 m 1,0,1
 -206 -333 -206 -333 -253.5 -290.5 c 128,-1,2
 -301 -248 -301 -248 -301 -188 c 0,3,4
 -301 -120 -301 -120 -249 -71.5 c 128,-1,5
 -197 -23 -197 -23 -123 -23 c 1,6,-1
 -123 -86 l 1,7,8
 -170 -90 -170 -90 -202 -119.5 c 128,-1,9
 -234 -149 -234 -149 -234 -188 c 0,10,11
 -234 -222 -234 -222 -206 -246.5 c 128,-1,12
 -178 -271 -178 -271 -139 -271 c 0,13,14
 -102 -271 -102 -271 -75.5 -253.5 c 128,-1,15
 -49 -236 -49 -236 -49 -212 c 0,16,17
 -49 -200 -49 -200 -57.5 -191.5 c 128,-1,18
 -66 -183 -66 -183 -78 -183 c 0,19,20
 -89 -183 -89 -183 -98.5 -186.5 c 128,-1,21
 -108 -190 -108 -190 -115 -197 c 1,22,-1
 -153 -152 l 1,23,24
 -141 -138 -141 -138 -121.5 -130 c 128,-1,25
 -102 -122 -102 -122 -78 -122 c 0,26,27
 -38 -122 -38 -122 -10 -148.5 c 128,-1,28
 18 -175 18 -175 18 -212 c 0,29,30
 18 -262 18 -262 -28 -297.5 c 128,-1,31
 -74 -333 -74 -333 -139 -333 c 1,32,-1
 -139 -333 l 1,0,1
EndSplineSet
EndChar

StartChar: esignodia
Encoding: 2887 2887 58
Width: 568
GlyphClass: 4
Flags: W
LayerCount: 2
Back
Fore
SplineSet
355 -14 m 1,0,1
 227 -14 227 -14 136.5 99 c 128,-1,2
 46 212 46 212 46 371 c 0,3,4
 46 531 46 531 137.5 644 c 128,-1,5
 229 757 229 757 358 757 c 0,6,7
 432 757 432 757 484 722 c 128,-1,8
 536 687 536 687 536 638 c 0,9,10
 536 622 536 622 527 611 c 128,-1,11
 518 600 518 600 506 600 c 0,12,13
 490 600 490 600 476 608.5 c 128,-1,14
 462 617 462 617 454 631 c 0,15,16
 438 658 438 658 412.5 674 c 128,-1,17
 387 690 387 690 358 690 c 0,18,19
 259 690 259 690 189.5 598.5 c 128,-1,20
 120 507 120 507 120 378 c 1,21,22
 146 387 146 387 172.5 392 c 128,-1,23
 199 397 199 397 225 397 c 0,24,25
 348 397 348 397 435 319.5 c 128,-1,26
 522 242 522 242 522 133 c 0,27,28
 522 72 522 72 473 29 c 128,-1,29
 424 -14 424 -14 355 -14 c 1,30,-1
 355 -14 l 1,0,1
355 55 m 1,31,32
 394 55 394 55 421 78 c 128,-1,33
 448 101 448 101 448 133 c 0,34,35
 448 214 448 214 382.5 271 c 128,-1,36
 317 328 317 328 225 328 c 0,37,38
 198 328 198 328 173.5 322 c 128,-1,39
 149 316 149 316 129 304 c 1,40,41
 138 198 138 198 203 126.5 c 128,-1,42
 268 55 268 55 355 55 c 1,43,-1
 355 55 l 1,31,32
EndSplineSet
Validated: 5
EndChar

StartChar: aisignodia
Encoding: 2888 2888 59
Width: 567
GlyphClass: 4
Flags: W
LayerCount: 2
Back
Fore
SplineSet
958 728 m 1,0,-1
 958 780 l 2,1,2
 958 823 958 823 932 853.5 c 128,-1,3
 906 884 906 884 870 884 c 0,4,5
 826 884 826 884 740 861 c 128,-1,6
 654 838 654 838 610 838 c 0,7,8
 557 838 557 838 513 851.5 c 128,-1,9
 469 865 469 865 439 890 c 1,10,-1
 477 948 l 1,11,12
 500 927 500 927 534.5 916 c 128,-1,13
 569 905 569 905 610 905 c 0,14,15
 655 905 655 905 740 931 c 128,-1,16
 825 957 825 957 870 957 c 0,17,18
 938 957 938 957 986 905 c 128,-1,19
 1034 853 1034 853 1034 780 c 2,20,-1
 1034 728 l 1,21,-1
 958 728 l 1,22,-1
 958 728 l 1,0,-1
355 -14 m 1,23,24
 227 -14 227 -14 136.5 99 c 128,-1,25
 46 212 46 212 46 371 c 0,26,27
 46 531 46 531 137.5 644 c 128,-1,28
 229 757 229 757 358 757 c 0,29,30
 431 757 431 757 483 722 c 128,-1,31
 535 687 535 687 535 638 c 0,32,33
 535 622 535 622 526.5 611 c 128,-1,34
 518 600 518 600 506 600 c 0,35,36
 490 600 490 600 476 608.5 c 128,-1,37
 462 617 462 617 454 631 c 0,38,39
 438 658 438 658 412.5 674 c 128,-1,40
 387 690 387 690 358 690 c 0,41,42
 259 690 259 690 189.5 598.5 c 128,-1,43
 120 507 120 507 120 378 c 1,44,45
 150 389 150 389 176.5 394.5 c 128,-1,46
 203 400 203 400 225 400 c 0,47,48
 348 400 348 400 434.5 322 c 128,-1,49
 521 244 521 244 521 133 c 0,50,51
 521 72 521 72 472.5 29 c 128,-1,52
 424 -14 424 -14 355 -14 c 1,53,-1
 355 -14 l 1,23,24
358 52 m 1,54,55
 395 52 395 52 421.5 75.5 c 128,-1,56
 448 99 448 99 448 133 c 0,57,58
 448 216 448 216 382.5 274.5 c 128,-1,59
 317 333 317 333 225 333 c 0,60,61
 202 333 202 333 177.5 325.5 c 128,-1,62
 153 318 153 318 128 304 c 1,63,64
 137 197 137 197 203.5 124.5 c 128,-1,65
 270 52 270 52 358 52 c 1,66,-1
 358 52 l 1,54,55
EndSplineSet
Validated: 5
EndChar

StartChar: osignodia
Encoding: 2891 2891 60
Width: 1045
GlyphClass: 4
Flags: W
LayerCount: 2
Back
Fore
SplineSet
886 0 m 1,0,-1
 886 725 l 1,1,-1
 958 725 l 1,2,-1
 958 0 l 1,3,-1
 886 0 l 1,4,-1
 886 0 l 1,0,-1
355 -14 m 1,5,6
 227 -14 227 -14 136.5 99 c 128,-1,7
 46 212 46 212 46 371 c 0,8,9
 46 531 46 531 137.5 644 c 128,-1,10
 229 757 229 757 358 757 c 0,11,12
 431 757 431 757 483 722 c 128,-1,13
 535 687 535 687 535 638 c 0,14,15
 535 622 535 622 526.5 611 c 128,-1,16
 518 600 518 600 506 600 c 0,17,18
 490 600 490 600 476 608.5 c 128,-1,19
 462 617 462 617 454 631 c 0,20,21
 438 658 438 658 412.5 674 c 128,-1,22
 387 690 387 690 358 690 c 0,23,24
 259 690 259 690 189.5 598.5 c 128,-1,25
 120 507 120 507 120 378 c 1,26,27
 150 389 150 389 176.5 394.5 c 128,-1,28
 203 400 203 400 225 400 c 0,29,30
 348 400 348 400 434.5 322 c 128,-1,31
 521 244 521 244 521 133 c 0,32,33
 521 72 521 72 472.5 29 c 128,-1,34
 424 -14 424 -14 355 -14 c 1,35,-1
 355 -14 l 1,5,6
358 52 m 1,36,37
 395 52 395 52 421.5 75.5 c 128,-1,38
 448 99 448 99 448 133 c 0,39,40
 448 216 448 216 382.5 274.5 c 128,-1,41
 317 333 317 333 225 333 c 0,42,43
 202 333 202 333 177.5 325.5 c 128,-1,44
 153 318 153 318 128 304 c 1,45,46
 137 197 137 197 203.5 124.5 c 128,-1,47
 270 52 270 52 358 52 c 1,48,-1
 358 52 l 1,36,37
EndSplineSet
Validated: 5
EndChar

StartChar: ausignodia
Encoding: 2892 2892 61
Width: 1121
GlyphClass: 4
Flags: W
LayerCount: 2
Back
Fore
SplineSet
961 0 m 1,0,-1
 961 780 l 2,1,2
 961 823 961 823 934.5 853.5 c 128,-1,3
 908 884 908 884 870 884 c 0,4,5
 826 884 826 884 740 861 c 128,-1,6
 654 838 654 838 610 838 c 0,7,8
 557 838 557 838 513 851.5 c 128,-1,9
 469 865 469 865 439 890 c 1,10,-1
 477 948 l 1,11,12
 497 931 497 931 531.5 922 c 128,-1,13
 566 913 566 913 610 913 c 256,14,15
 654 913 654 913 740 935 c 128,-1,16
 826 957 826 957 870 957 c 0,17,18
 938 957 938 957 986 905 c 128,-1,19
 1034 853 1034 853 1034 780 c 2,20,-1
 1034 0 l 1,21,-1
 961 0 l 1,22,-1
 961 0 l 1,0,-1
355 -14 m 1,23,24
 227 -14 227 -14 136.5 99 c 128,-1,25
 46 212 46 212 46 371 c 0,26,27
 46 531 46 531 137.5 644 c 128,-1,28
 229 757 229 757 358 757 c 0,29,30
 431 757 431 757 483 722 c 128,-1,31
 535 687 535 687 535 638 c 0,32,33
 535 622 535 622 526.5 611 c 128,-1,34
 518 600 518 600 506 600 c 0,35,36
 490 600 490 600 476 608.5 c 128,-1,37
 462 617 462 617 454 631 c 0,38,39
 438 658 438 658 412.5 674 c 128,-1,40
 387 690 387 690 358 690 c 0,41,42
 259 690 259 690 189.5 598.5 c 128,-1,43
 120 507 120 507 120 378 c 1,44,45
 150 389 150 389 176.5 394.5 c 128,-1,46
 203 400 203 400 225 400 c 0,47,48
 348 400 348 400 434.5 322 c 128,-1,49
 521 244 521 244 521 133 c 0,50,51
 521 72 521 72 472.5 29 c 128,-1,52
 424 -14 424 -14 355 -14 c 1,53,-1
 355 -14 l 1,23,24
358 52 m 1,54,55
 395 52 395 52 421.5 75.5 c 128,-1,56
 448 99 448 99 448 133 c 0,57,58
 448 216 448 216 382.5 274.5 c 128,-1,59
 317 333 317 333 225 333 c 0,60,61
 202 333 202 333 177.5 325.5 c 128,-1,62
 153 318 153 318 128 304 c 1,63,64
 137 197 137 197 203.5 124.5 c 128,-1,65
 270 52 270 52 358 52 c 1,66,-1
 358 52 l 1,54,55
EndSplineSet
Validated: 5
EndChar

StartChar: viramasignodia
Encoding: 2893 2893 62
Width: 0
GlyphClass: 4
Flags: W
LayerCount: 2
Back
Fore
SplineSet
-18 -255 m 1,0,-1
 -166 -32 l 1,1,-1
 -85 -32 l 1,2,-1
 72 -255 l 1,3,-1
 -18 -255 l 1,4,-1
 -18 -255 l 1,0,-1
EndSplineSet
Validated: 5
EndChar

StartChar: ailengthodia
Encoding: 2902 2902 63
Width: 0
GlyphClass: 4
Flags: W
LayerCount: 2
Back
Fore
SplineSet
-532 816 m 1,0,1
 -573 816 -573 816 -611 829.5 c 128,-1,2
 -649 843 -649 843 -680 869 c 1,3,-1
 -637 925 l 1,4,5
 -615 907 -615 907 -588 897 c 128,-1,6
 -561 887 -561 887 -532 887 c 0,7,8
 -510 887 -510 887 -472.5 896.5 c 128,-1,9
 -435 906 -435 906 -383 925 c 0,10,11
 -334 943 -334 943 -295 952 c 128,-1,12
 -256 961 -256 961 -228 961 c 0,13,14
 -170 961 -170 961 -129 923 c 128,-1,15
 -88 885 -88 885 -88 831 c 2,16,-1
 -88 742 l 1,17,-1
 -161 742 l 1,18,-1
 -161 831 l 2,19,20
 -161 855 -161 855 -180.5 872.5 c 128,-1,21
 -200 890 -200 890 -228 890 c 256,22,23
 -256 890 -256 890 -294 881 c 128,-1,24
 -332 872 -332 872 -378 854 c 0,25,26
 -427 835 -427 835 -466 825.5 c 128,-1,27
 -505 816 -505 816 -532 816 c 1,28,-1
 -532 816 l 1,0,1
EndSplineSet
Validated: 5
EndChar

StartChar: aulengthodia
Encoding: 2903 2903 64
Width: 246
GlyphClass: 4
Flags: W
LayerCount: 2
Back
Fore
SplineSet
87 0 m 1,0,-1
 87 809 l 2,1,2
 87 840 87 840 61 862 c 128,-1,3
 35 884 35 884 -1 884 c 0,4,5
 -45 884 -45 884 -131 861 c 128,-1,6
 -217 838 -217 838 -261 838 c 0,7,8
 -314 838 -314 838 -358 851.5 c 128,-1,9
 -402 865 -402 865 -432 890 c 1,10,-1
 -394 945 l 1,11,12
 -360 925 -360 925 -326 915 c 128,-1,13
 -292 905 -292 905 -261 905 c 0,14,15
 -216 905 -216 905 -131 931 c 128,-1,16
 -46 957 -46 957 -1 957 c 0,17,18
 66 957 66 957 113 913.5 c 128,-1,19
 160 870 160 870 160 809 c 2,20,-1
 160 0 l 1,21,-1
 87 0 l 1,22,-1
 87 0 l 1,0,-1
EndSplineSet
Validated: 5
EndChar

StartChar: rraodia
Encoding: 2908 2908 65
Width: 716
GlyphClass: 2
Flags: W
AnchorPoint: "oranchor-1" 523 -149 basechar 0
LayerCount: 2
Back
Fore
SplineSet
371 -209 m 1,0,1
 343 -209 343 -209 323.5 -189.5 c 128,-1,2
 304 -170 304 -170 304 -142 c 256,3,4
 304 -114 304 -114 323.5 -94 c 128,-1,5
 343 -74 343 -74 371 -74 c 256,6,7
 399 -74 399 -74 418.5 -94 c 128,-1,8
 438 -114 438 -114 438 -142 c 256,9,10
 438 -170 438 -170 418.5 -189.5 c 128,-1,11
 399 -209 399 -209 371 -209 c 1,12,-1
 371 -209 l 1,0,1
371 -14 m 1,13,14
 276 -14 276 -14 208.5 48.5 c 128,-1,15
 141 111 141 111 141 200 c 0,16,17
 141 219 141 219 144.5 238 c 128,-1,18
 148 257 148 257 154 275 c 1,19,20
 100 295 100 295 66.5 350.5 c 128,-1,21
 33 406 33 406 33 478 c 0,22,23
 33 594 33 594 129 675.5 c 128,-1,24
 225 757 225 757 360 757 c 256,25,26
 495 757 495 757 591 675.5 c 128,-1,27
 687 594 687 594 687 478 c 0,28,29
 687 445 687 445 677.5 414 c 128,-1,30
 668 383 668 383 650 357 c 1,31,-1
 583 393 l 1,32,33
 597 410 597 410 604.5 432 c 128,-1,34
 612 454 612 454 612 478 c 0,35,36
 612 564 612 564 538 625 c 128,-1,37
 464 686 464 686 360 686 c 0,38,39
 254 686 254 686 179 625 c 128,-1,40
 104 564 104 564 104 478 c 0,41,42
 104 428 104 428 125.5 390 c 128,-1,43
 147 352 147 352 183 339 c 1,44,45
 200 368 200 368 227.5 391 c 128,-1,46
 255 414 255 414 290 429 c 1,47,-1
 326 371 l 1,48,49
 274 347 274 347 243 300.5 c 128,-1,50
 212 254 212 254 212 200 c 0,51,52
 212 140 212 140 258.5 97.5 c 128,-1,53
 305 55 305 55 371 55 c 0,54,55
 424 55 424 55 461.5 85 c 128,-1,56
 499 115 499 115 499 157 c 0,57,58
 499 182 499 182 477.5 199.5 c 128,-1,59
 456 217 456 217 425 217 c 1,60,-1
 378 157 l 1,61,-1
 312 206 l 1,62,-1
 478 419 l 1,63,-1
 542 370 l 1,64,65
 505 326 505 326 489.5 306.5 c 128,-1,66
 474 287 474 287 467 275 c 1,67,68
 511 271 511 271 541 237 c 128,-1,69
 571 203 571 203 571 157 c 0,70,71
 571 86 571 86 512.5 36 c 128,-1,72
 454 -14 454 -14 371 -14 c 1,73,-1
 371 -14 l 1,13,14
EndSplineSet
LCarets2: 1 0
Ligature2: "'nukt' Nukta Forms lookup 5-1" ddaodia nuktasignodia
Ligature2: "'nukt' Nukta Forms in Oriya lookup 15-1" nuktasignodia ddaodia
EndChar

StartChar: rhaodia
Encoding: 2909 2909 66
Width: 722
GlyphClass: 2
Flags: W
AnchorPoint: "oranchor-1" 523 -149 basechar 0
LayerCount: 2
Back
Fore
SplineSet
360 -209 m 1,0,1
 332 -209 332 -209 312.5 -189.5 c 128,-1,2
 293 -170 293 -170 293 -142 c 256,3,4
 293 -114 293 -114 312.5 -94 c 128,-1,5
 332 -74 332 -74 360 -74 c 0,6,7
 387 -74 387 -74 406.5 -94 c 128,-1,8
 426 -114 426 -114 426 -142 c 256,9,10
 426 -170 426 -170 406.5 -189.5 c 128,-1,11
 387 -209 387 -209 360 -209 c 1,12,-1
 360 -209 l 1,0,1
360 -14 m 1,13,14
 277 -14 277 -14 218 44.5 c 128,-1,15
 159 103 159 103 159 186 c 0,16,17
 159 213 159 213 163 233.5 c 128,-1,18
 167 254 167 254 174 267 c 1,19,20
 112 284 112 284 72.5 342 c 128,-1,21
 33 400 33 400 33 476 c 0,22,23
 33 592 33 592 129 674.5 c 128,-1,24
 225 757 225 757 360 757 c 0,25,26
 497 757 497 757 593.5 674.5 c 128,-1,27
 690 592 690 592 690 476 c 0,28,29
 690 427 690 427 675.5 386 c 128,-1,30
 661 345 661 345 635 319 c 1,31,-1
 576 364 l 1,32,33
 595 383 595 383 605.5 412 c 128,-1,34
 616 441 616 441 616 476 c 0,35,36
 616 565 616 565 541 627.5 c 128,-1,37
 466 690 466 690 360 690 c 0,38,39
 255 690 255 690 181 627.5 c 128,-1,40
 107 565 107 565 107 476 c 0,41,42
 107 420 107 420 134 379 c 128,-1,43
 161 338 161 338 203 331 c 1,44,45
 220 361 220 361 242.5 383 c 128,-1,46
 265 405 265 405 290 418 c 1,47,-1
 331 364 l 1,48,49
 286 332 286 332 260.5 285 c 128,-1,50
 235 238 235 238 235 186 c 0,51,52
 235 132 235 132 271.5 93.5 c 128,-1,53
 308 55 308 55 360 55 c 0,54,55
 374 55 374 55 386.5 58 c 128,-1,56
 399 61 399 61 409 67 c 1,57,58
 375 95 375 95 356.5 132.5 c 128,-1,59
 338 170 338 170 338 209 c 0,60,61
 338 270 338 270 376 313.5 c 128,-1,62
 414 357 414 357 467 357 c 0,63,64
 521 357 521 357 559 313.5 c 128,-1,65
 597 270 597 270 597 209 c 0,66,67
 597 167 597 167 576 125.5 c 128,-1,68
 555 84 555 84 516 52 c 1,69,-1
 571 12 l 1,70,-1
 531 -38 l 1,71,-1
 464 14 l 1,72,73
 444 0 444 0 417.5 -7 c 128,-1,74
 391 -14 391 -14 360 -14 c 1,75,-1
 360 -14 l 1,13,14
471 96 m 1,76,77
 496 117 496 117 509.5 146.5 c 128,-1,78
 523 176 523 176 523 209 c 0,79,80
 523 239 523 239 506.5 260 c 128,-1,81
 490 281 490 281 467 281 c 256,82,83
 444 281 444 281 428 260 c 128,-1,84
 412 239 412 239 412 209 c 0,85,86
 412 175 412 175 427.5 145 c 128,-1,87
 443 115 443 115 471 96 c 1,88,-1
 471 96 l 1,76,77
EndSplineSet
LCarets2: 1 0
Ligature2: "'nukt' Nukta Forms lookup 5-1" ddhaodia nuktasignodia
Ligature2: "'nukt' Nukta Forms in Oriya lookup 15-1" nuktasignodia ddhaodia
EndChar

StartChar: yyaodia
Encoding: 2911 2911 67
Width: 783
GlyphClass: 2
Flags: W
LayerCount: 2
Back
Fore
SplineSet
361 -14 m 1,0,1
 294 -14 294 -14 246.5 37.5 c 128,-1,2
 199 89 199 89 199 162 c 0,3,4
 199 181 199 181 203 196.5 c 128,-1,5
 207 212 207 212 215 223 c 1,6,7
 199 217 199 217 180 201.5 c 128,-1,8
 161 186 161 186 141 162 c 1,9,10
 154 156 154 156 162 140 c 128,-1,11
 170 124 170 124 170 104 c 0,12,13
 170 82 170 82 152.5 67 c 128,-1,14
 135 52 135 52 110 52 c 0,15,16
 84 52 84 52 63.5 74.5 c 128,-1,17
 43 97 43 97 43 126 c 0,18,19
 43 168 43 168 79.5 210 c 128,-1,20
 116 252 116 252 178 281 c 1,21,22
 124 306 124 306 91.5 363.5 c 128,-1,23
 59 421 59 421 59 493 c 0,24,25
 59 602 59 602 142.5 679.5 c 128,-1,26
 226 757 226 757 344 757 c 0,27,28
 418 757 418 757 478.5 726 c 128,-1,29
 539 695 539 695 570 642 c 1,30,-1
 570 725 l 1,31,-1
 642 725 l 1,32,-1
 642 267 l 1,33,34
 685 259 685 259 713 228 c 128,-1,35
 741 197 741 197 741 157 c 0,36,37
 741 118 741 118 727 87.5 c 128,-1,38
 713 57 713 57 689 43 c 1,39,-1
 764 14 l 1,40,-1
 726 -43 l 1,41,-1
 570 38 l 1,42,43
 618 60 618 60 646 92.5 c 128,-1,44
 674 125 674 125 674 157 c 0,45,46
 674 179 674 179 657 194 c 128,-1,47
 640 209 640 209 616 209 c 0,48,49
 581 209 581 209 553.5 181.5 c 128,-1,50
 526 154 526 154 519 112 c 0,51,52
 509 57 509 57 464.5 21.5 c 128,-1,53
 420 -14 420 -14 361 -14 c 1,54,-1
 361 -14 l 1,0,1
362 52 m 1,55,56
 397 52 397 52 426.5 79 c 128,-1,57
 456 106 456 106 467 148 c 0,58,59
 481 199 481 199 509 231.5 c 128,-1,60
 537 264 537 264 570 267 c 1,61,-1
 570 476 l 2,62,63
 570 565 570 565 504 627.5 c 128,-1,64
 438 690 438 690 344 690 c 0,65,66
 256 690 256 690 194 632.5 c 128,-1,67
 132 575 132 575 132 493 c 0,68,69
 132 433 132 433 163 385.5 c 128,-1,70
 194 338 194 338 245 319 c 1,71,-1
 370 400 l 1,72,-1
 415 342 l 1,73,-1
 341 297 l 2,74,75
 310 279 310 279 292 243 c 128,-1,76
 274 207 274 207 274 162 c 0,77,78
 274 116 274 116 300 84 c 128,-1,79
 326 52 326 52 362 52 c 1,80,-1
 362 52 l 1,55,56
EndSplineSet
Validated: 5
EndChar

StartChar: vocalicrrodia
Encoding: 2912 2912 68
Width: 741
GlyphClass: 2
Flags: W
LayerCount: 2
Back
Fore
SplineSet
323 -14 m 1,0,1
 249 -14 249 -14 196.5 42 c 128,-1,2
 144 98 144 98 144 178 c 0,3,4
 144 202 144 202 147.5 221 c 128,-1,5
 151 240 151 240 158 252 c 1,6,7
 101 279 101 279 67 335.5 c 128,-1,8
 33 392 33 392 33 461 c 0,9,10
 33 584 33 584 126.5 670.5 c 128,-1,11
 220 757 220 757 352 757 c 0,12,13
 481 757 481 757 572.5 665.5 c 128,-1,14
 664 574 664 574 664 445 c 0,15,16
 664 410 664 410 652 380.5 c 128,-1,17
 640 351 640 351 619 333 c 1,18,19
 640 321 640 321 652 303.5 c 128,-1,20
 664 286 664 286 664 267 c 0,21,22
 664 253 664 253 660 239.5 c 128,-1,23
 656 226 656 226 648 215 c 1,24,25
 670 205 670 205 682.5 185 c 128,-1,26
 695 165 695 165 695 142 c 0,27,28
 695 120 695 120 682.5 100 c 128,-1,29
 670 80 670 80 648 67 c 1,30,-1
 738 -59 l 1,31,-1
 686 -104 l 1,32,-1
 552 90 l 1,33,34
 580 90 580 90 599.5 105 c 128,-1,35
 619 120 619 120 619 142 c 0,36,37
 619 170 619 170 597.5 189.5 c 128,-1,38
 576 209 576 209 545 209 c 1,39,40
 565 216 565 216 577.5 232 c 128,-1,41
 590 248 590 248 590 267 c 0,42,43
 590 287 590 287 573 304 c 128,-1,44
 556 321 556 321 529 328 c 1,45,46
 558 352 558 352 574 383 c 128,-1,47
 590 414 590 414 590 445 c 0,48,49
 590 546 590 546 520.5 618 c 128,-1,50
 451 690 451 690 352 690 c 0,51,52
 251 690 251 690 179 623 c 128,-1,53
 107 556 107 556 107 461 c 0,54,55
 107 406 107 406 132 366 c 128,-1,56
 157 326 157 326 196 319 c 1,57,58
 217 344 217 344 250 357.5 c 128,-1,59
 283 371 283 371 323 371 c 0,60,61
 396 371 396 371 448 314.5 c 128,-1,62
 500 258 500 258 500 178 c 256,63,64
 500 98 500 98 448 42 c 128,-1,65
 396 -14 396 -14 323 -14 c 1,66,-1
 323 -14 l 1,0,1
323 52 m 1,67,68
 366 52 366 52 396 89 c 128,-1,69
 426 126 426 126 426 178 c 256,70,71
 426 230 426 230 396 267 c 128,-1,72
 366 304 366 304 323 304 c 256,73,74
 280 304 280 304 249.5 267 c 128,-1,75
 219 230 219 230 219 178 c 256,76,77
 219 126 219 126 249.5 89 c 128,-1,78
 280 52 280 52 323 52 c 1,79,-1
 323 52 l 1,67,68
EndSplineSet
Validated: 5
EndChar

StartChar: vocalicllodia
Encoding: 2913 2913 69
Width: 639
GlyphClass: 2
Flags: W
LayerCount: 2
Back
Fore
SplineSet
26 209 m 1,0,1
 26 291 26 291 101.5 358 c 128,-1,2
 177 425 177 425 293 445 c 0,3,4
 363 457 363 457 409 495.5 c 128,-1,5
 455 534 455 534 455 580 c 0,6,7
 455 616 455 616 418.5 642 c 128,-1,8
 382 668 382 668 331 668 c 0,9,10
 278 668 278 668 240.5 642 c 128,-1,11
 203 616 203 616 203 580 c 1,12,-1
 129 580 l 1,13,14
 129 647 129 647 188 694.5 c 128,-1,15
 247 742 247 742 331 742 c 0,16,17
 414 742 414 742 472.5 694.5 c 128,-1,18
 531 647 531 647 531 580 c 0,19,20
 531 512 531 512 472 457 c 128,-1,21
 413 402 413 402 322 386 c 0,22,23
 225 369 225 369 162 319 c 128,-1,24
 99 269 99 269 99 209 c 0,25,26
 99 153 99 153 156 114 c 128,-1,27
 213 75 213 75 293 75 c 1,28,29
 293 160 293 160 349.5 220.5 c 128,-1,30
 406 281 406 281 486 281 c 0,31,32
 541 281 541 281 580 246 c 128,-1,33
 619 211 619 211 619 162 c 0,34,35
 619 95 619 95 545 47.5 c 128,-1,36
 471 0 471 0 367 0 c 1,37,38
 370 -36 370 -36 398.5 -84 c 128,-1,39
 427 -132 427 -132 478 -186 c 1,40,-1
 426 -238 l 1,41,42
 366 -176 366 -176 332 -115 c 128,-1,43
 298 -54 298 -54 293 0 c 1,44,45
 182 0 182 0 104 61 c 128,-1,46
 26 122 26 122 26 209 c 1,47,-1
 26 209 l 1,0,1
367 74 m 1,48,49
 441 74 441 74 493 100 c 128,-1,50
 545 126 545 126 545 162 c 0,51,52
 545 181 545 181 527.5 195 c 128,-1,53
 510 209 510 209 486 209 c 0,54,55
 437 209 437 209 402 169.5 c 128,-1,56
 367 130 367 130 367 74 c 1,57,-1
 367 74 l 1,48,49
EndSplineSet
Validated: 5
EndChar

StartChar: zeroodia
Encoding: 2918 2918 70
Width: 725
GlyphClass: 2
Flags: W
LayerCount: 2
Back
Fore
SplineSet
362 113 m 1,0,1
 255 113 255 113 179 188.5 c 128,-1,2
 103 264 103 264 103 371 c 256,3,4
 103 478 103 478 179 553.5 c 128,-1,5
 255 629 255 629 362 629 c 0,6,7
 470 629 470 629 546 553.5 c 128,-1,8
 622 478 622 478 622 371 c 256,9,10
 622 264 622 264 546 188.5 c 128,-1,11
 470 113 470 113 362 113 c 1,12,-1
 362 113 l 1,0,1
362 186 m 1,13,14
 439 186 439 186 493.5 240 c 128,-1,15
 548 294 548 294 548 371 c 256,16,17
 548 448 548 448 493.5 502.5 c 128,-1,18
 439 557 439 557 362 557 c 256,19,20
 285 557 285 557 231 502.5 c 128,-1,21
 177 448 177 448 177 371 c 256,22,23
 177 294 177 294 231 240 c 128,-1,24
 285 186 285 186 362 186 c 1,25,-1
 362 186 l 1,13,14
EndSplineSet
Validated: 5
EndChar

StartChar: oneodia
Encoding: 2919 2919 71
Width: 725
GlyphClass: 2
Flags: W
LayerCount: 2
Back
Fore
SplineSet
506 -14 m 1,0,1
 347 60 347 60 253 211 c 128,-1,2
 159 362 159 362 159 542 c 0,3,4
 159 631 159 631 219.5 694 c 128,-1,5
 280 757 280 757 365 757 c 0,6,7
 448 757 448 757 506.5 698.5 c 128,-1,8
 565 640 565 640 565 557 c 256,9,10
 565 474 565 474 506.5 415.5 c 128,-1,11
 448 357 448 357 365 357 c 0,12,13
 331 357 331 357 302 368 c 128,-1,14
 273 379 273 379 252 400 c 1,15,16
 272 286 272 286 349 191.5 c 128,-1,17
 426 97 426 97 542 43 c 1,18,-1
 506 -14 l 1,19,-1
 506 -14 l 1,0,1
365 423 m 1,20,21
 417 423 417 423 453.5 462 c 128,-1,22
 490 501 490 501 490 557 c 0,23,24
 490 612 490 612 453.5 651 c 128,-1,25
 417 690 417 690 365 690 c 0,26,27
 312 690 312 690 275 649 c 128,-1,28
 238 608 238 608 238 550 c 0,29,30
 238 497 238 497 275 460 c 128,-1,31
 312 423 312 423 365 423 c 1,32,-1
 365 423 l 1,20,21
EndSplineSet
Validated: 5
EndChar

StartChar: twoodia
Encoding: 2920 2920 72
Width: 725
GlyphClass: 2
Flags: W
LayerCount: 2
Back
Fore
SplineSet
229 -14 m 1,0,-1
 191 38 l 1,1,2
 315 125 315 125 390.5 219 c 128,-1,3
 466 313 466 313 481 400 c 1,4,5
 456 379 456 379 422 368 c 128,-1,6
 388 357 388 357 348 357 c 0,7,8
 268 357 268 357 211 413.5 c 128,-1,9
 154 470 154 470 154 550 c 0,10,11
 154 636 154 636 215 696.5 c 128,-1,12
 276 757 276 757 362 757 c 0,13,14
 449 757 449 757 510 694 c 128,-1,15
 571 631 571 631 571 542 c 0,16,17
 571 376 571 376 479.5 227 c 128,-1,18
 388 78 388 78 229 -14 c 1,19,-1
 229 -14 l 1,0,-1
348 423 m 1,20,21
 409 423 409 423 452.5 460 c 128,-1,22
 496 497 496 497 496 550 c 0,23,24
 496 608 496 608 457 649 c 128,-1,25
 418 690 418 690 362 690 c 0,26,27
 307 690 307 690 268 649 c 128,-1,28
 229 608 229 608 229 550 c 0,29,30
 229 497 229 497 264 460 c 128,-1,31
 299 423 299 423 348 423 c 1,32,-1
 348 423 l 1,20,21
EndSplineSet
Validated: 5
EndChar

StartChar: threeodia
Encoding: 2921 2921 73
Width: 725
GlyphClass: 2
Flags: W
LayerCount: 2
Back
Fore
SplineSet
325 0 m 1,0,-1
 325 542 l 2,1,2
 325 603 325 603 299 646.5 c 128,-1,3
 273 690 273 690 236 690 c 0,4,5
 184 690 184 690 147 631.5 c 128,-1,6
 110 573 110 573 110 490 c 0,7,8
 110 425 110 425 133.5 379 c 128,-1,9
 157 333 157 333 191 333 c 0,10,11
 207 333 207 333 218 346 c 128,-1,12
 229 359 229 359 229 378 c 0,13,14
 229 393 229 393 217 407 c 128,-1,15
 205 421 205 421 184 431 c 1,16,-1
 206 493 l 1,17,18
 247 489 247 489 275 456 c 128,-1,19
 303 423 303 423 303 378 c 0,20,21
 303 329 303 329 270 294.5 c 128,-1,22
 237 260 237 260 191 260 c 0,23,24
 126 260 126 260 80.5 327.5 c 128,-1,25
 35 395 35 395 35 490 c 0,26,27
 35 601 35 601 94.5 679 c 128,-1,28
 154 757 154 757 238 757 c 0,29,30
 285 757 285 757 322 730 c 128,-1,31
 359 703 359 703 370 661 c 1,32,33
 390 705 390 705 427.5 731 c 128,-1,34
 465 757 465 757 507 757 c 0,35,36
 583 757 583 757 636.5 702.5 c 128,-1,37
 690 648 690 648 690 571 c 2,38,-1
 690 0 l 1,39,-1
 615 0 l 1,40,-1
 615 571 l 2,41,42
 615 620 615 620 584 655 c 128,-1,43
 553 690 553 690 510 690 c 0,44,45
 464 690 464 690 432 646.5 c 128,-1,46
 400 603 400 603 400 542 c 2,47,-1
 400 0 l 1,48,-1
 325 0 l 1,49,-1
 325 0 l 1,0,-1
EndSplineSet
Validated: 5
EndChar

StartChar: fourodia
Encoding: 2922 2922 74
Width: 725
GlyphClass: 2
Flags: W
LayerCount: 2
Back
Fore
SplineSet
374 -14 m 1,0,1
 282 -14 282 -14 216.5 44.5 c 128,-1,2
 151 103 151 103 151 186 c 0,3,4
 151 263 151 263 195 333 c 128,-1,5
 239 403 239 403 315 447 c 1,6,7
 246 487 246 487 177.5 564 c 128,-1,8
 109 641 109 641 46 750 c 1,9,-1
 122 780 l 1,10,11
 165 688 165 688 229.5 615.5 c 128,-1,12
 294 543 294 543 374 497 c 1,13,14
 429 523 429 523 490 591.5 c 128,-1,15
 551 660 551 660 612 766 c 1,16,-1
 679 735 l 1,17,18
 622 636 622 636 560 562.5 c 128,-1,19
 498 489 498 489 435 445 c 1,20,21
 516 389 516 389 559 317 c 128,-1,22
 602 245 602 245 596 178 c 0,23,24
 596 98 596 98 531 42 c 128,-1,25
 466 -14 466 -14 374 -14 c 1,26,-1
 374 -14 l 1,0,1
374 52 m 1,27,28
 435 52 435 52 478.5 93.5 c 128,-1,29
 522 135 522 135 522 193 c 0,30,31
 522 249 522 249 482.5 304.5 c 128,-1,32
 443 360 443 360 374 400 c 1,33,34
 306 368 306 368 265.5 310 c 128,-1,35
 225 252 225 252 225 186 c 0,36,37
 225 130 225 130 268.5 91 c 128,-1,38
 312 52 312 52 374 52 c 1,39,-1
 374 52 l 1,27,28
EndSplineSet
Validated: 37
EndChar

StartChar: fiveodia
Encoding: 2923 2923 75
Width: 724
GlyphClass: 2
Flags: W
LayerCount: 2
Back
Fore
SplineSet
329 -14 m 1,0,1
 246 -14 246 -14 187 40 c 128,-1,2
 128 94 128 94 128 171 c 0,3,4
 128 219 128 219 166 269 c 128,-1,5
 204 319 204 319 270 357 c 1,6,7
 214 378 214 378 154.5 430.5 c 128,-1,8
 95 483 95 483 39 564 c 1,9,-1
 99 609 l 1,10,11
 141 536 141 536 188.5 488 c 128,-1,12
 236 440 236 440 284 423 c 1,13,14
 252 455 252 455 234.5 493.5 c 128,-1,15
 217 532 217 532 217 571 c 0,16,17
 217 648 217 648 273.5 702.5 c 128,-1,18
 330 757 330 757 410 757 c 0,19,20
 487 757 487 757 541.5 700.5 c 128,-1,21
 596 644 596 644 596 564 c 0,22,23
 596 515 596 515 558 465.5 c 128,-1,24
 520 416 520 416 455 378 c 1,25,26
 507 359 507 359 565.5 312 c 128,-1,27
 624 265 624 265 684 193 c 1,28,-1
 626 148 l 1,29,30
 594 204 594 204 554 243.5 c 128,-1,31
 514 283 514 283 470 304 c 1,32,33
 499 263 499 263 514 225.5 c 128,-1,34
 529 188 529 188 529 157 c 0,35,36
 529 86 529 86 470.5 36 c 128,-1,37
 412 -14 412 -14 329 -14 c 1,38,-1
 329 -14 l 1,0,1
329 52 m 1,39,40
 381 52 381 52 418 83 c 128,-1,41
 455 114 455 114 455 157 c 0,42,43
 455 208 455 208 431 253 c 128,-1,44
 407 298 407 298 365 328 c 1,45,46
 293 309 293 309 248 265 c 128,-1,47
 203 221 203 221 203 171 c 0,48,49
 203 122 203 122 240 87 c 128,-1,50
 277 52 277 52 329 52 c 1,51,-1
 329 52 l 1,39,40
381 415 m 1,52,53
 446 445 446 445 484 485.5 c 128,-1,54
 522 526 522 526 522 564 c 0,55,56
 522 616 522 616 489 653 c 128,-1,57
 456 690 456 690 410 690 c 0,58,59
 362 690 362 690 327.5 655 c 128,-1,60
 293 620 293 620 293 571 c 0,61,62
 293 532 293 532 316 491 c 128,-1,63
 339 450 339 450 381 415 c 1,64,-1
 381 415 l 1,52,53
EndSplineSet
Validated: 5
EndChar

StartChar: sixodia
Encoding: 2924 2924 76
Width: 725
GlyphClass: 2
Flags: W
LayerCount: 2
Back
Fore
SplineSet
158 0 m 1,0,-1
 55 0 l 1,1,-1
 55 74 l 1,2,-1
 158 74 l 2,3,4
 339 74 339 74 467.5 191.5 c 128,-1,5
 596 309 596 309 596 476 c 0,6,7
 596 565 596 565 541.5 627.5 c 128,-1,8
 487 690 487 690 410 690 c 0,9,10
 358 690 358 690 321 663.5 c 128,-1,11
 284 637 284 637 284 600 c 0,12,13
 284 585 284 585 300 567.5 c 128,-1,14
 316 550 316 550 344 534 c 0,15,16
 378 514 378 514 398 486.5 c 128,-1,17
 418 459 418 459 418 431 c 0,18,19
 418 369 418 369 367.5 325 c 128,-1,20
 317 281 317 281 246 281 c 0,21,22
 192 281 192 281 142.5 313 c 128,-1,23
 93 345 93 345 61 400 c 1,24,-1
 122 438 l 1,25,26
 152 396 152 396 184.5 372 c 128,-1,27
 217 348 217 348 246 348 c 0,28,29
 287 348 287 348 315.5 370 c 128,-1,30
 344 392 344 392 344 423 c 0,31,32
 344 443 344 443 326 463 c 128,-1,33
 308 483 308 483 277 497 c 0,34,35
 246 515 246 515 228 543 c 128,-1,36
 210 571 210 571 210 602 c 0,37,38
 210 666 210 666 268.5 711.5 c 128,-1,39
 327 757 327 757 410 757 c 0,40,41
 518 757 518 757 594 674.5 c 128,-1,42
 670 592 670 592 670 476 c 0,43,44
 670 279 670 279 520 139.5 c 128,-1,45
 370 0 370 0 158 0 c 1,46,-1
 158 0 l 1,0,-1
EndSplineSet
Validated: 5
EndChar

StartChar: sevenodia
Encoding: 2925 2925 77
Width: 725
GlyphClass: 2
Flags: W
LayerCount: 2
Back
Fore
SplineSet
125 -14 m 1,0,-1
 51 -14 l 1,1,-1
 51 52 l 1,2,-1
 125 52 l 2,3,4
 322 52 322 52 461 173.5 c 128,-1,5
 600 295 600 295 600 467 c 0,6,7
 600 559 600 559 527 624.5 c 128,-1,8
 454 690 454 690 351 690 c 0,9,10
 257 690 257 690 191 630.5 c 128,-1,11
 125 571 125 571 125 487 c 0,12,13
 125 473 125 473 128.5 460.5 c 128,-1,14
 132 448 132 448 139 438 c 1,15,16
 154 479 154 479 190 503.5 c 128,-1,17
 226 528 226 528 270 528 c 0,18,19
 330 528 330 528 372.5 489 c 128,-1,20
 415 450 415 450 415 394 c 256,21,22
 415 338 415 338 373.5 299 c 128,-1,23
 332 260 332 260 273 260 c 0,24,25
 181 260 181 260 116 326.5 c 128,-1,26
 51 393 51 393 51 487 c 0,27,28
 51 599 51 599 139 678 c 128,-1,29
 227 757 227 757 351 757 c 0,30,31
 485 757 485 757 579.5 672 c 128,-1,32
 674 587 674 587 674 467 c 0,33,34
 674 268 674 268 513 127 c 128,-1,35
 352 -14 352 -14 125 -14 c 1,36,-1
 125 -14 l 1,0,-1
273 328 m 1,37,38
 300 328 300 328 319.5 347.5 c 128,-1,39
 339 367 339 367 339 394 c 0,40,41
 339 418 339 418 319 435 c 128,-1,42
 299 452 299 452 270 452 c 0,43,44
 239 452 239 452 214.5 429 c 128,-1,45
 190 406 190 406 184 371 c 1,46,47
 193 351 193 351 217 339.5 c 128,-1,48
 241 328 241 328 273 328 c 1,49,-1
 273 328 l 1,37,38
EndSplineSet
Validated: 5
EndChar

StartChar: eightodia
Encoding: 2926 2926 78
Width: 725
GlyphClass: 2
Flags: W
LayerCount: 2
Back
Fore
SplineSet
113 0 m 1,0,-1
 113 742 l 1,1,-1
 612 742 l 1,2,-1
 612 676 l 1,3,-1
 188 676 l 1,4,-1
 188 0 l 1,5,-1
 113 0 l 1,6,-1
 113 0 l 1,0,-1
EndSplineSet
Validated: 5
EndChar

StartChar: nineodia
Encoding: 2927 2927 79
Width: 724
GlyphClass: 2
Flags: W
LayerCount: 2
Back
Fore
SplineSet
455 -14 m 1,0,1
 308 40 308 40 218 153.5 c 128,-1,2
 128 267 128 267 128 400 c 0,3,4
 128 494 128 494 173 584 c 128,-1,5
 218 674 218 674 299 742 c 1,6,-1
 313 742 l 1,7,-1
 522 528 l 1,8,-1
 522 742 l 1,9,-1
 596 742 l 1,10,-1
 596 378 l 2,11,12
 596 375 596 375 591.5 373 c 128,-1,13
 587 371 587 371 581 371 c 1,14,-1
 310 647 l 1,15,16
 259 596 259 596 231 531.5 c 128,-1,17
 203 467 203 467 203 400 c 0,18,19
 203 301 203 301 279 206.5 c 128,-1,20
 355 112 355 112 484 52 c 1,21,-1
 455 -14 l 1,22,-1
 455 -14 l 1,0,1
EndSplineSet
Validated: 5
EndChar

StartChar: issharodia
Encoding: 2928 2928 80
Width: 718
GlyphClass: 2
Flags: W
LayerCount: 2
Back
Fore
SplineSet
312 59 m 1,0,-1
 87 531 l 1,1,-1
 157 557 l 1,2,-1
 323 209 l 1,3,-1
 570 713 l 1,4,-1
 631 690 l 1,5,-1
 335 59 l 1,6,-1
 312 59 l 1,7,-1
 312 59 l 1,0,-1
326 542 m 1,8,-1
 271 600 l 1,9,-1
 326 658 l 1,10,-1
 384 600 l 1,11,-1
 326 542 l 1,12,-1
 326 542 l 1,8,-1
EndSplineSet
Validated: 5
EndChar

StartChar: waodia
Encoding: 2929 2929 81
Width: 639
GlyphClass: 2
Flags: W
LayerCount: 2
Back
Fore
SplineSet
342 217 m 1,0,1
 299 217 299 217 265.5 224.5 c 128,-1,2
 232 232 232 232 212 246 c 1,3,4
 211 242 211 242 210 234 c 128,-1,5
 209 226 209 226 209 215 c 0,6,7
 209 166 209 166 246 131 c 128,-1,8
 283 96 283 96 336 96 c 0,9,10
 390 96 390 96 428.5 131 c 128,-1,11
 467 166 467 166 467 215 c 2,12,-1
 467 244 l 1,13,14
 434 231 434 231 402.5 224 c 128,-1,15
 371 217 371 217 342 217 c 1,16,-1
 342 217 l 1,0,1
148 278 m 1,17,18
 96 322 96 322 67 382 c 128,-1,19
 38 442 38 442 38 507 c 0,20,21
 38 586 38 586 69 658.5 c 128,-1,22
 100 731 100 731 157 786 c 1,23,-1
 209 744 l 1,24,25
 163 700 163 700 138 638 c 128,-1,26
 113 576 113 576 113 507 c 0,27,28
 113 413 113 413 180 347 c 128,-1,29
 247 281 247 281 342 281 c 0,30,31
 413 281 413 281 463 315 c 128,-1,32
 513 349 513 349 513 397 c 0,33,34
 513 437 513 437 488 465.5 c 128,-1,35
 463 494 463 494 428 494 c 1,36,37
 407 480 407 480 382.5 469.5 c 128,-1,38
 358 459 358 459 331 452 c 1,39,-1
 306 507 l 1,40,41
 386 535 386 535 435 580.5 c 128,-1,42
 484 626 484 626 484 673 c 0,43,44
 484 700 484 700 460.5 719 c 128,-1,45
 437 738 437 738 403 738 c 256,46,47
 369 738 369 738 344.5 717 c 128,-1,48
 320 696 320 696 320 667 c 0,49,50
 320 664 320 664 322 658 c 128,-1,51
 324 652 324 652 328 644 c 0,52,53
 330 639 330 639 331.5 633.5 c 128,-1,54
 333 628 333 628 333 623 c 0,55,56
 333 612 333 612 324 604.5 c 128,-1,57
 315 597 315 597 302 597 c 0,58,59
 279 597 279 597 262.5 617.5 c 128,-1,60
 246 638 246 638 246 667 c 0,61,62
 246 726 246 726 292 767.5 c 128,-1,63
 338 809 338 809 403 809 c 0,64,65
 467 809 467 809 512.5 769 c 128,-1,66
 558 729 558 729 558 673 c 0,67,68
 558 639 558 639 540.5 606.5 c 128,-1,69
 523 574 523 574 492 550 c 1,70,71
 536 530 536 530 562.5 488.5 c 128,-1,72
 589 447 589 447 589 397 c 0,73,74
 589 361 589 361 576.5 330.5 c 128,-1,75
 564 300 564 300 542 280 c 1,76,-1
 542 0 l 1,77,-1
 467 0 l 1,78,-1
 467 78 l 1,79,80
 445 52 445 52 410 37.5 c 128,-1,81
 375 23 375 23 333 23 c 0,82,83
 250 23 250 23 191.5 79 c 128,-1,84
 133 135 133 135 133 215 c 0,85,86
 133 230 133 230 137 246 c 128,-1,87
 141 262 141 262 148 278 c 1,88,-1
 148 278 l 1,17,18
EndSplineSet
Validated: 5
EndChar

StartChar: zerowidthnonjoinerodia
Encoding: 8204 8204 82
Width: 0
GlyphClass: 2
Flags: W
LayerCount: 2
Back
Fore
SplineSet
0 -364 m 1,0,-1
 0 1114 l 1,1,-1
 59 1114 l 1,2,-1
 59 -364 l 1,3,-1
 0 -364 l 1,4,-1
 0 -364 l 1,0,-1
EndSplineSet
Validated: 5
EndChar

StartChar: zerowidthjoinerodia
Encoding: 8205 8205 83
Width: 0
GlyphClass: 2
Flags: W
LayerCount: 2
Back
Fore
SplineSet
0 -364 m 1,0,-1
 0 1114 l 1,1,-1
 252 1114 l 1,2,-1
 252 1054 l 1,3,-1
 59 1054 l 1,4,-1
 59 -364 l 1,5,-1
 0 -364 l 1,6,-1
 0 -364 l 1,0,-1
EndSplineSet
Validated: 5
EndChar

StartChar: dottefcircleodia
Encoding: 9676 9676 84
Width: 841
GlyphClass: 4
Flags: W
LayerCount: 2
Back
Fore
SplineSet
367 719 m 1,0,1
 367 741 367 741 382.5 756 c 128,-1,2
 398 771 398 771 420 771 c 256,3,4
 442 771 442 771 457.5 756 c 128,-1,5
 473 741 473 741 473 719 c 256,6,7
 473 697 473 697 457.5 681.5 c 128,-1,8
 442 666 442 666 420 666 c 256,9,10
 398 666 398 666 382.5 681.5 c 128,-1,11
 367 697 367 697 367 719 c 1,12,-1
 367 719 l 1,0,1
367 23 m 1,13,14
 367 45 367 45 382.5 61 c 128,-1,15
 398 77 398 77 420 77 c 256,16,17
 442 77 442 77 457.5 61 c 128,-1,18
 473 45 473 45 473 23 c 256,19,20
 473 1 473 1 457.5 -14 c 128,-1,21
 442 -29 442 -29 420 -29 c 256,22,23
 398 -29 398 -29 382.5 -14 c 128,-1,24
 367 1 367 1 367 23 c 1,25,-1
 367 23 l 1,13,14
20 371 m 1,26,27
 20 393 20 393 35 409 c 128,-1,28
 50 425 50 425 72 425 c 256,29,30
 94 425 94 425 110 409 c 128,-1,31
 126 393 126 393 126 371 c 256,32,33
 126 349 126 349 110 333.5 c 128,-1,34
 94 318 94 318 72 318 c 256,35,36
 50 318 50 318 35 333.5 c 128,-1,37
 20 349 20 349 20 371 c 1,38,-1
 20 371 l 1,26,27
713 371 m 1,39,40
 713 393 713 393 729 409 c 128,-1,41
 745 425 745 425 768 425 c 0,42,43
 790 425 790 425 805.5 409 c 128,-1,44
 821 393 821 393 821 371 c 256,45,46
 821 349 821 349 805.5 333.5 c 128,-1,47
 790 318 790 318 768 318 c 0,48,49
 745 318 745 318 729 333.5 c 128,-1,50
 713 349 713 349 713 371 c 1,51,-1
 713 371 l 1,39,40
67 197 m 1,52,53
 67 219 67 219 82.5 235 c 128,-1,54
 98 251 98 251 120 251 c 256,55,56
 142 251 142 251 158 235 c 128,-1,57
 174 219 174 219 174 197 c 256,58,59
 174 175 174 175 158 160 c 128,-1,60
 142 145 142 145 120 145 c 256,61,62
 98 145 98 145 82.5 160 c 128,-1,63
 67 175 67 175 67 197 c 1,64,-1
 67 197 l 1,52,53
668 545 m 1,65,66
 668 567 668 567 684 582 c 128,-1,67
 700 597 700 597 722 597 c 256,68,69
 744 597 744 597 759 582 c 128,-1,70
 774 567 774 567 774 545 c 256,71,72
 774 523 774 523 759 507.5 c 128,-1,73
 744 492 744 492 722 492 c 256,74,75
 700 492 700 492 684 507.5 c 128,-1,76
 668 523 668 523 668 545 c 1,77,-1
 668 545 l 1,65,66
539 673 m 1,78,79
 539 695 539 695 555 710 c 128,-1,80
 571 725 571 725 594 725 c 0,81,82
 616 725 616 725 631.5 710 c 128,-1,83
 647 695 647 695 647 673 c 256,84,85
 647 651 647 651 631.5 635 c 128,-1,86
 616 619 616 619 594 619 c 0,87,88
 571 619 571 619 555 635 c 128,-1,89
 539 651 539 651 539 673 c 1,90,-1
 539 673 l 1,78,79
193 71 m 1,91,92
 193 93 193 93 208.5 109 c 128,-1,93
 224 125 224 125 246 125 c 256,94,95
 268 125 268 125 284 109 c 128,-1,96
 300 93 300 93 300 71 c 256,97,98
 300 49 300 49 284 33 c 128,-1,99
 268 17 268 17 246 17 c 256,100,101
 224 17 224 17 208.5 33 c 128,-1,102
 193 49 193 49 193 71 c 1,103,-1
 193 71 l 1,91,92
67 545 m 1,104,105
 67 567 67 567 82.5 582 c 128,-1,106
 98 597 98 597 120 597 c 256,107,108
 142 597 142 597 158 582 c 128,-1,109
 174 567 174 567 174 545 c 256,110,111
 174 523 174 523 158 507.5 c 128,-1,112
 142 492 142 492 120 492 c 256,113,114
 98 492 98 492 82.5 507.5 c 128,-1,115
 67 523 67 523 67 545 c 1,116,-1
 67 545 l 1,104,105
668 197 m 1,117,118
 668 219 668 219 684 235 c 128,-1,119
 700 251 700 251 722 251 c 256,120,121
 744 251 744 251 759 235 c 128,-1,122
 774 219 774 219 774 197 c 256,123,124
 774 175 774 175 759 160 c 128,-1,125
 744 145 744 145 722 145 c 256,126,127
 700 145 700 145 684 160 c 128,-1,128
 668 175 668 175 668 197 c 1,129,-1
 668 197 l 1,117,118
193 673 m 1,130,131
 193 695 193 695 208.5 710 c 128,-1,132
 224 725 224 725 246 725 c 256,133,134
 268 725 268 725 284 710 c 128,-1,135
 300 695 300 695 300 673 c 256,136,137
 300 651 300 651 284 635 c 128,-1,138
 268 619 268 619 246 619 c 256,139,140
 224 619 224 619 208.5 635 c 128,-1,141
 193 651 193 651 193 673 c 1,142,-1
 193 673 l 1,130,131
539 71 m 1,143,144
 539 93 539 93 555 109 c 128,-1,145
 571 125 571 125 594 125 c 0,146,147
 616 125 616 125 631.5 109 c 128,-1,148
 647 93 647 93 647 71 c 256,149,150
 647 49 647 49 631.5 33 c 128,-1,151
 616 17 616 17 594 17 c 0,152,153
 571 17 571 17 555 33 c 128,-1,154
 539 49 539 49 539 71 c 1,155,-1
 539 71 l 1,143,144
EndSplineSet
Validated: 5
EndChar

StartChar: kaodia_viramasignodia_kaodia
Encoding: 65553 -1 85
Width: 735
GlyphClass: 2
Flags: W
LayerCount: 2
Back
Fore
SplineSet
480 -14 m 1,0,-1
 480 64 l 1,1,2
 472 58 472 58 461.5 55 c 128,-1,3
 451 52 451 52 439 52 c 0,4,5
 395 52 395 52 363.5 85 c 128,-1,6
 332 118 332 118 332 164 c 1,7,-1
 289 164 l 1,8,-1
 289 238 l 1,9,10
 280 231 280 231 268.5 227 c 128,-1,11
 257 223 257 223 244 223 c 0,12,13
 195 223 195 223 160 258.5 c 128,-1,14
 125 294 125 294 125 345 c 2,15,-1
 126 362 l 1,16,17
 82 378 82 378 55 417.5 c 128,-1,18
 28 457 28 457 28 505 c 0,19,20
 28 613 28 613 120.5 689.5 c 128,-1,21
 213 766 213 766 344 766 c 256,22,23
 475 766 475 766 567.5 689.5 c 128,-1,24
 660 613 660 613 660 505 c 0,25,26
 660 469 660 469 644.5 430.5 c 128,-1,27
 629 392 629 392 599 357 c 1,28,-1
 541 394 l 1,29,30
 562 419 562 419 573 447.5 c 128,-1,31
 584 476 584 476 584 505 c 0,32,33
 584 582 584 582 513.5 636 c 128,-1,34
 443 690 443 690 344 690 c 0,35,36
 244 690 244 690 173.5 636 c 128,-1,37
 103 582 103 582 103 505 c 0,38,39
 103 474 103 474 118 452.5 c 128,-1,40
 133 431 133 431 155 431 c 1,41,42
 173 452 173 452 196.5 464 c 128,-1,43
 220 476 220 476 244 476 c 0,44,45
 275 476 275 476 298.5 464 c 128,-1,46
 322 452 322 452 332 431 c 1,47,48
 344 448 344 448 361 457.5 c 128,-1,49
 378 467 378 467 396 467 c 0,50,51
 437 467 437 467 466.5 434 c 128,-1,52
 496 401 496 401 496 354 c 2,53,-1
 496 255 l 1,54,55
 503 254 503 254 509 249.5 c 128,-1,56
 515 245 515 245 518 238 c 1,57,58
 526 251 526 251 545 259 c 128,-1,59
 564 267 564 267 589 267 c 0,60,61
 630 267 630 267 659.5 237 c 128,-1,62
 689 207 689 207 689 164 c 2,63,-1
 689 -14 l 1,64,-1
 616 -14 l 1,65,-1
 616 162 l 2,66,67
 616 178 616 178 606.5 189 c 128,-1,68
 597 200 597 200 584 200 c 256,69,70
 571 200 571 200 561.5 189 c 128,-1,71
 552 178 552 178 552 162 c 2,72,-1
 552 -14 l 1,73,-1
 480 -14 l 1,74,-1
 480 -14 l 1,0,-1
444 112 m 1,75,76
 463 112 463 112 476 126.5 c 128,-1,77
 489 141 489 141 489 162 c 0,78,79
 489 184 489 184 476 199.5 c 128,-1,80
 463 215 463 215 444 215 c 256,81,82
 425 215 425 215 412 199.5 c 128,-1,83
 399 184 399 184 399 162 c 0,84,85
 399 141 399 141 412 126.5 c 128,-1,86
 425 112 425 112 444 112 c 1,87,-1
 444 112 l 1,75,76
244 290 m 1,88,89
 265 290 265 290 279.5 306 c 128,-1,90
 294 322 294 322 294 345 c 256,91,92
 294 368 294 368 279.5 384 c 128,-1,93
 265 400 265 400 244 400 c 0,94,95
 222 400 222 400 206.5 384 c 128,-1,96
 191 368 191 368 191 345 c 256,97,98
 191 322 191 322 206.5 306 c 128,-1,99
 222 290 222 290 244 290 c 1,100,-1
 244 290 l 1,88,89
362 238 m 1,101,102
 368 248 368 248 383.5 255.5 c 128,-1,103
 399 263 399 263 422 267 c 1,104,-1
 422 357 l 2,105,106
 422 372 422 372 413.5 383 c 128,-1,107
 405 394 405 394 393 394 c 0,108,109
 380 394 380 394 371 383 c 128,-1,110
 362 372 362 372 362 357 c 2,111,-1
 362 238 l 1,112,-1
 362 238 l 1,101,102
EndSplineSet
Validated: 5
Ligature2: "'pres' Pre Base Substitutions in Oriya lookup 13-1" kaodia viramasignodia kaodia
Ligature2: "'pres' Pre Base Substitutions in Oriya lookup 7-1" kaodia viramasignodia_kaodia
EndChar

StartChar: kaodia_viramasignodia_taodia
Encoding: 65554 -1 86
Width: 761
GlyphClass: 2
Flags: W
LayerCount: 2
Back
Fore
SplineSet
469 262 m 1,0,-1
 469 217 l 1,1,2
 481 227 481 227 497 232 c 128,-1,3
 513.006 237 513.006 237 532 237 c 0,4,5
 592 237 592 237 628.5 201 c 128,-1,6
 665 165 665 165 665 106 c 0,7,8
 665 19 665 19 580.5 -33.5 c 128,-1,9
 495.999 -86 495.999 -86 355 -86 c 0,10,11
 293 -86 293 -86 244 -71 c 128,-1,12
 195 -56 195 -56 166 -29 c 1,13,-1
 204 24 l 1,14,15
 241 2 241 2 279 -9 c 128,-1,16
 317 -20 317 -20 352 -20 c 0,17,18
 397 -20 397 -20 425.5 -15.5 c 128,-1,19
 454 -11 454 -11 465 -2 c 1,20,21
 434 9 434 9 415.5 39.5 c 128,-1,22
 397 70 397 70 397 109 c 2,23,-1
 397 236 l 1,24,-1
 397 312 l 2,25,26
 397 331.253 397 331.253 388 344 c 0,27,28
 379 357 379 357 367 357 c 0,29,30
 354 357 354 357 345 344 c 128,-1,31
 336 331 336 331 336 312 c 2,32,-1
 336 90 l 1,33,-1
 262 90 l 1,34,-1
 262 186 l 1,35,36
 252 179 252 179 239.5 175 c 128,-1,37
 227 171 227 171 215 171 c 0,38,39
 167 171 167 171 133 208 c 128,-1,40
 99 245 99 245 99 297 c 0,41,42
 99 308 99 308 101 319.5 c 128,-1,43
 103 331 103 331 107 342 c 1,44,45
 72 362 72 362 52 401.5 c 128,-1,46
 32 441 32 441 32 490 c 0,47,48
 32 601 32 601 130 679 c 128,-1,49
 228 757 228 757 367 757 c 0,50,51
 496 757 496 757 587.5 672 c 128,-1,52
 679 587 679 587 679 467 c 0,53,54
 679 431 679 431 670 396 c 0,55,56
 655 343 655 343 646 336 c 0,57,58
 632 327 632 327 575 332 c 1,59,-1
 582 342 l 1,60,61
 590 362 590 362 596 388 c 0,62,63
 603 422 603 422 603 467 c 0,64,65
 603 559 603 559 534 624.5 c 128,-1,66
 465 690 465 690 367 690 c 0,67,68
 259 690 259 690 183 631.5 c 128,-1,69
 107 573 107 573 107 490 c 0,70,71
 107 462 107 462 116.5 437 c 128,-1,72
 126 412 126 412 144 394 c 1,73,74
 156 408 156 408 175 415.5 c 128,-1,75
 194 423 194 423 217 423 c 0,76,77
 242 423 242 423 262.5 413 c 128,-1,78
 283 403 283 403 293 386 c 1,79,80
 303 403 303 403 323 413 c 128,-1,81
 343 423 343 423 367 423 c 0,82,83
 410 423 410 423 440 390 c 0,84,85
 470.843 354.126 470.843 354.126 470 312 c 2,86,-1
 469 262 l 1,0,-1
532 40 m 0,87,88
 556 40 556 40 573 59.5 c 128,-1,89
 590 79 590 79 590 106 c 0,90,91
 590 134 590 134 573 153.5 c 128,-1,92
 556 173 556 173 532 173 c 0,93,94
 507 173 507 173 489 153.5 c 128,-1,95
 471 134 471 134 471 106 c 0,96,97
 471 79 471 79 489 59.5 c 128,-1,98
 507 40 507 40 532 40 c 0,87,88
215 229 m 128,-1,100
 238 229 238 229 254 249 c 128,-1,101
 270 269 270 269 270 297 c 256,102,103
 270 325 270 325 254 344.5 c 128,-1,104
 238 364 238 364 215 364 c 256,105,106
 192 364 192 364 175.5 344.5 c 128,-1,107
 159 325 159 325 159 297 c 256,108,109
 159 269 159 269 175.5 249 c 128,-1,99
 192 229 192 229 215 229 c 128,-1,100
EndSplineSet
LCarets2: 1 0
Ligature2: "'pres' Pre Base Substitutions in Oriya lookup 7-1" kaodia viramasignodia_taodia
EndChar

StartChar: kaodia_virm_taodia_virm_raodia
Encoding: 65555 -1 87
Width: 766
GlyphClass: 2
Flags: W
LayerCount: 2
Back
Fore
SplineSet
351 -59 m 1,0,1
 311 -59 311 -59 270 -51.5 c 128,-1,2
 229 -44 229 -44 188 -29 c 1,3,-1
 188 43 l 1,4,5
 219 25 219 25 260.5 16 c 128,-1,6
 302 7 302 7 351 7 c 0,7,8
 442 7 442 7 512 37 c 128,-1,9
 582 67 582 67 612 119 c 1,10,11
 566 119 566 119 533 151 c 128,-1,12
 500 183 500 183 500 229 c 0,13,14
 500 264 500 264 520.5 291.5 c 128,-1,15
 541 319 541 319 574 328 c 1,16,17
 589 350 589 350 597 385.5 c 128,-1,18
 605 421 605 421 605 467 c 0,19,20
 605 559 605 559 535.5 624.5 c 128,-1,21
 466 690 466 690 367 690 c 0,22,23
 259 690 259 690 183 631.5 c 128,-1,24
 107 573 107 573 107 490 c 0,25,26
 107 462 107 462 117 437 c 128,-1,27
 127 412 127 412 145 394 c 1,28,29
 157 408 157 408 175.5 415.5 c 128,-1,30
 194 423 194 423 217 423 c 0,31,32
 242 423 242 423 262.5 413 c 128,-1,33
 283 403 283 403 293 386 c 1,34,35
 303 403 303 403 323 413 c 128,-1,36
 343 423 343 423 367 423 c 0,37,38
 410 423 410 423 440 390.5 c 128,-1,39
 470 358 470 358 470 312 c 2,40,-1
 470 90 l 1,41,-1
 397 90 l 1,42,-1
 397 312 l 2,43,44
 397 331 397 331 388 344 c 128,-1,45
 379 357 379 357 367 357 c 0,46,47
 354 357 354 357 345 344 c 128,-1,48
 336 331 336 331 336 312 c 2,49,-1
 336 90 l 1,50,-1
 264 90 l 1,51,-1
 264 186 l 1,52,53
 254 179 254 179 241.5 175 c 128,-1,54
 229 171 229 171 217 171 c 0,55,56
 163 171 163 171 131 205.5 c 128,-1,57
 99 240 99 240 99 297 c 0,58,59
 99 308 99 308 101 319.5 c 128,-1,60
 103 331 103 331 107 342 c 1,61,62
 72 362 72 362 52 401.5 c 128,-1,63
 32 441 32 441 32 490 c 0,64,65
 32 601 32 601 130 679 c 128,-1,66
 228 757 228 757 367 757 c 0,67,68
 496 757 496 757 587.5 672 c 128,-1,69
 679 587 679 587 679 467 c 0,70,71
 679 434 679 434 669.5 399.5 c 128,-1,72
 660 365 660 365 641 333 c 1,73,74
 676 327 676 327 699 297.5 c 128,-1,75
 722 268 722 268 722 229 c 0,76,77
 722 202 722 202 713.5 180 c 128,-1,78
 705 158 705 158 690 145 c 1,79,-1
 690 -223 l 1,80,-1
 157 -223 l 1,81,-1
 157 -157 l 1,82,-1
 616 -157 l 1,83,-1
 616 26 l 1,84,85
 563 -15 563 -15 495 -37 c 128,-1,86
 427 -59 427 -59 351 -59 c 1,87,-1
 351 -59 l 1,0,1
215 229 m 1,88,89
 238 229 238 229 254 249 c 128,-1,90
 270 269 270 269 270 297 c 256,91,92
 270 325 270 325 254 344.5 c 128,-1,93
 238 364 238 364 215 364 c 256,94,95
 192 364 192 364 175.5 344.5 c 128,-1,96
 159 325 159 325 159 297 c 256,97,98
 159 269 159 269 175.5 249 c 128,-1,99
 192 229 192 229 215 229 c 1,100,-1
 215 229 l 1,88,89
615 186 m 1,101,102
 635 186 635 186 649.5 198.5 c 128,-1,103
 664 211 664 211 664 229 c 0,104,105
 664 248 664 248 649.5 261.5 c 128,-1,106
 635 275 635 275 615 275 c 256,107,108
 595 275 595 275 581 261.5 c 128,-1,109
 567 248 567 248 567 229 c 0,110,111
 567 211 567 211 581 198.5 c 128,-1,112
 595 186 595 186 615 186 c 1,113,-1
 615 186 l 1,101,102
EndSplineSet
Validated: 517
Ligature2: "'pres' Pre Base Substitutions in Oriya lookup 13-1" kaodia viramasignodia_taodia viramasignodia_raodia
Ligature2: "'pres' Pre Base Substitutions in Oriya lookup 7-1" kaodia viramasignodia_taodia viramasignodia_raodia
EndChar

StartChar: kaodia_viramasignodia_baodia
Encoding: 65556 -1 88
Width: 760
GlyphClass: 2
Flags: W
LayerCount: 2
Back
Fore
SplineSet
332 126 m 1,0,-1
 332 197 l 1,1,2
 321 186 321 186 303.5 180 c 128,-1,3
 286 174 286 174 265 174 c 0,4,5
 207 174 207 174 166 215.5 c 128,-1,6
 125 257 125 257 125 315 c 0,7,8
 125 327 125 327 127 337.5 c 128,-1,9
 129 348 129 348 133 357 c 1,10,11
 86 375 86 375 57 416 c 128,-1,12
 28 457 28 457 28 506 c 0,13,14
 28 620 28 620 123.5 688.5 c 128,-1,15
 219 757 219 757 377 757 c 0,16,17
 529 757 529 757 620.5 688.5 c 128,-1,18
 712 620 712 620 712 506 c 0,19,20
 712 468 712 468 698.5 435 c 128,-1,21
 685 402 685 402 660 380 c 1,22,-1
 599 409 l 1,23,24
 617 432 617 432 627 457 c 128,-1,25
 637 482 637 482 637 506 c 0,26,27
 637 582 637 582 561 635.5 c 128,-1,28
 485 689 485 689 377 689 c 0,29,30
 264 689 264 689 183.5 635.5 c 128,-1,31
 103 582 103 582 103 506 c 0,32,33
 103 468 103 468 123 442 c 128,-1,34
 143 416 143 416 170 418 c 1,35,36
 187 436 187 436 212 445.5 c 128,-1,37
 237 455 237 455 265 455 c 0,38,39
 299 455 299 455 327 442 c 128,-1,40
 355 429 355 429 370 406 c 1,41,42
 385 429 385 429 409 442 c 128,-1,43
 433 455 433 455 460 455 c 0,44,45
 511 455 511 455 547.5 420 c 128,-1,46
 584 385 584 385 584 336 c 2,47,-1
 584 126 l 1,48,-1
 526 126 l 1,49,50
 518 116 518 116 513.5 103.5 c 128,-1,51
 509 91 509 91 509 77 c 0,52,53
 509 54 509 54 527.5 38 c 128,-1,54
 546 22 546 22 573 22 c 0,55,56
 599 22 599 22 617 37.5 c 128,-1,57
 635 53 635 53 635 75 c 2,58,-1
 635 162 l 1,59,-1
 708 162 l 1,60,-1
 708 -90 l 1,61,-1
 635 -90 l 1,62,-1
 635 -35 l 1,63,64
 627 -43 627 -43 611 -47.5 c 128,-1,65
 595 -52 595 -52 573 -52 c 0,66,67
 519 -52 519 -52 480.5 -14 c 128,-1,68
 442 24 442 24 442 77 c 0,69,70
 442 107 442 107 452 133.5 c 128,-1,71
 462 160 462 160 480 178 c 1,72,-1
 510 159 l 1,73,-1
 510 336 l 2,74,75
 510 357 510 357 495.5 371.5 c 128,-1,76
 481 386 481 386 460 386 c 0,77,78
 438 386 438 386 422.5 371.5 c 128,-1,79
 407 357 407 357 407 336 c 2,80,-1
 407 126 l 1,81,-1
 332 126 l 1,82,-1
 332 126 l 1,0,-1
265 235 m 1,83,84
 293 235 293 235 312.5 253 c 128,-1,85
 332 271 332 271 332 296 c 2,86,-1
 332 328 l 2,87,88
 332 352 332 352 312.5 369 c 128,-1,89
 293 386 293 386 265 386 c 0,90,91
 238 386 238 386 218.5 363.5 c 128,-1,92
 199 341 199 341 199 310 c 256,93,94
 199 279 199 279 218.5 257 c 128,-1,95
 238 235 238 235 265 235 c 1,96,-1
 265 235 l 1,83,84
EndSplineSet
Validated: 37
Ligature2: "'pres' Pre Base Substitutions in Oriya lookup 7-1" kaodia viramasignodia_baodia
EndChar

StartChar: kaodia_viramasignodia_llaodia
Encoding: 65557 -1 89
Width: 776
GlyphClass: 4
Flags: W
LayerCount: 2
Back
Fore
SplineSet
333 139 m 1,0,-1
 333 184 l 1,1,2
 318 173 318 173 300.5 167.5 c 128,-1,3
 283 162 283 162 265 162 c 0,4,5
 207 162 207 162 166.5 203.5 c 128,-1,6
 126 245 126 245 126 304 c 0,7,8
 126 316 126 316 127.5 325.5 c 128,-1,9
 129 335 129 335 132 342 c 1,10,11
 85 360 85 360 57 404 c 128,-1,12
 29 448 29 448 29 502 c 0,13,14
 29 615 29 615 124.5 683 c 128,-1,15
 220 751 220 751 378 751 c 0,16,17
 530 751 530 751 621 683 c 128,-1,18
 712 615 712 615 712 502 c 0,19,20
 712 464 712 464 700 430.5 c 128,-1,21
 688 397 688 397 666 371 c 1,22,-1
 600 403 l 1,23,24
 618 425 618 425 627.5 450.5 c 128,-1,25
 637 476 637 476 637 502 c 0,26,27
 637 577 637 577 561 630 c 128,-1,28
 485 683 485 683 378 683 c 0,29,30
 264 683 264 683 183.5 630 c 128,-1,31
 103 577 103 577 103 502 c 0,32,33
 103 461 103 461 121.5 432.5 c 128,-1,34
 140 404 140 404 165 406 c 1,35,36
 179 426 179 426 205.5 437 c 128,-1,37
 232 448 232 448 265 448 c 256,38,39
 298 448 298 448 326 434.5 c 128,-1,40
 354 421 354 421 370 397 c 1,41,42
 386 421 386 421 412 434.5 c 128,-1,43
 438 448 438 448 468 448 c 0,44,45
 517 448 517 448 551.5 414.5 c 128,-1,46
 586 381 586 381 586 333 c 2,47,-1
 586 159 l 1,48,49
 598 166 598 166 611 169.5 c 128,-1,50
 624 173 624 173 637 173 c 0,51,52
 680 173 680 173 710.5 144 c 128,-1,53
 741 115 741 115 741 74 c 2,54,-1
 741 -55 l 1,55,-1
 674 -55 l 1,56,-1
 674 72 l 2,57,58
 674 89 674 89 660.5 101 c 128,-1,59
 647 113 647 113 628 113 c 0,60,61
 611 113 611 113 599 101 c 128,-1,62
 587 89 587 89 587 72 c 2,63,-1
 587 -55 l 1,64,-1
 515 -55 l 1,65,-1
 515 72 l 2,66,67
 515 89 515 89 502.5 101 c 128,-1,68
 490 113 490 113 473 113 c 0,69,70
 457 113 457 113 445.5 101 c 128,-1,71
 434 89 434 89 434 72 c 2,72,-1
 434 -55 l 1,73,-1
 361 -55 l 1,74,-1
 361 72 l 2,75,76
 361 91 361 91 369.5 109 c 128,-1,77
 378 127 378 127 393 139 c 1,78,-1
 333 139 l 1,79,-1
 333 139 l 1,0,-1
512 159 m 1,80,-1
 512 333 l 2,81,82
 512 352 512 352 496 366 c 128,-1,83
 480 380 480 380 458 380 c 256,84,85
 436 380 436 380 420.5 366 c 128,-1,86
 405 352 405 352 405 333 c 2,87,-1
 405 151 l 1,88,89
 417 162 417 162 433 167.5 c 128,-1,90
 449 173 449 173 467 173 c 0,91,92
 477 173 477 173 488.5 169.5 c 128,-1,93
 500 166 500 166 512 159 c 1,94,-1
 512 159 l 1,80,-1
265 229 m 1,95,96
 293 229 293 229 313 247 c 128,-1,97
 333 265 333 265 333 290 c 2,98,-1
 333 320 l 2,99,100
 333 345 333 345 313 362.5 c 128,-1,101
 293 380 293 380 265 380 c 0,102,103
 238 380 238 380 218.5 357.5 c 128,-1,104
 199 335 199 335 199 304 c 256,105,106
 199 273 199 273 218.5 251 c 128,-1,107
 238 229 238 229 265 229 c 1,108,-1
 265 229 l 1,95,96
EndSplineSet
Validated: 37
Ligature2: "'pres' Pre Base Substitutions in Oriya lookup 7-1" kaodia viramasignodia_llaodia
EndChar

StartChar: kaodia_viramasignodia_ssaodia
Encoding: 65558 -1 90
Width: 784
GlyphClass: 4
Flags: W
LayerCount: 2
Back
Fore
SplineSet
432 -14 m 1,0,1
 352 -14 352 -14 295.5 37.5 c 128,-1,2
 239 89 239 89 239 162 c 0,3,4
 239 187 239 187 240.5 202 c 128,-1,5
 242 217 242 217 246 223 c 1,6,7
 195 180 195 180 169 154.5 c 128,-1,8
 143 129 143 129 135 112 c 1,9,10
 148 109 148 109 156 98 c 128,-1,11
 164 87 164 87 164 74 c 0,12,13
 164 53 164 53 147 38 c 128,-1,14
 130 23 130 23 106 23 c 0,15,16
 81 23 81 23 63 42.5 c 128,-1,17
 45 62 45 62 45 90 c 0,18,19
 45 119 45 119 82.5 162 c 128,-1,20
 120 205 120 205 187 252 c 1,21,22
 128 268 128 268 91 321.5 c 128,-1,23
 54 375 54 375 54 445 c 0,24,25
 54 574 54 574 156 665.5 c 128,-1,26
 258 757 258 757 402 757 c 0,27,28
 481 750 481 750 540 721 c 128,-1,29
 599 692 599 692 625 647 c 1,30,-1
 625 725 l 1,31,-1
 697 725 l 1,32,-1
 697 0 l 1,33,-1
 625 0 l 1,34,-1
 625 104 l 1,35,36
 593 49 593 49 541.5 17.5 c 128,-1,37
 490 -14 490 -14 432 -14 c 1,38,-1
 432 -14 l 1,0,1
432 52 m 1,39,40
 488 52 488 52 537 92.5 c 128,-1,41
 586 133 586 133 610 200 c 1,42,-1
 447 357 l 1,43,-1
 344 275 l 1,44,45
 327 267 327 267 316.5 236.5 c 128,-1,46
 306 206 306 206 306 162 c 0,47,48
 306 116 306 116 343 84 c 128,-1,49
 380 52 380 52 432 52 c 1,50,-1
 432 52 l 1,39,40
254 297 m 1,51,-1
 402 409 l 1,52,-1
 210 609 l 1,53,54
 172 587 172 587 150 543 c 128,-1,55
 128 499 128 499 128 445 c 0,56,57
 128 384 128 384 165 340.5 c 128,-1,58
 202 297 202 297 254 297 c 1,59,-1
 254 297 l 1,51,-1
625 267 m 1,60,-1
 625 505 l 1,61,62
 597 583 597 583 536.5 633.5 c 128,-1,63
 476 684 476 684 402 690 c 0,64,65
 355 690 355 690 317 679 c 128,-1,66
 279 668 279 668 254 647 c 1,67,-1
 625 267 l 1,68,-1
 625 267 l 1,60,-1
EndSplineSet
Validated: 5
Ligature2: "'akhn' Akhand lookup 0-1" kaodia viramasignodia ssaodia
EndChar

StartChar: kaodia_vir_ssaodia_vir_nnaodia
Encoding: 65559 -1 91
Width: 758
GlyphClass: 3
Flags: W
LayerCount: 2
Back
Fore
SplineSet
30 223 m 0,0,1
 30 266 30 266 70 310 c 128,-1,2
 110 354 110 354 178 386 c 1,3,4
 126 395 126 395 92.5 441.5 c 128,-1,5
 59 488 59 488 59 550 c 0,6,7
 59 633 59 633 144 691.5 c 128,-1,8
 229 750 229 750 349 750 c 1,9,10
 413 744 413 744 461.5 725 c 128,-1,11
 510 706 510 706 535 676 c 1,12,-1
 535 725 l 1,13,-1
 608 725 l 1,14,-1
 608 223 l 1,15,16
 626 223 626 223 639 219 c 128,-1,17
 652 215 652 215 654 209 c 1,18,-1
 654 252 l 1,19,-1
 726 252 l 1,20,-1
 726 -59 l 1,21,-1
 654 -59 l 1,22,-1
 654 119 l 2,23,24
 654 137 654 137 639 149.5 c 128,-1,25
 624 162 624 162 602 162 c 0,26,27
 582 162 582 162 568.5 153 c 128,-1,28
 555 144 555 144 557 133 c 1,29,-1
 587 119 l 1,30,-1
 557 74 l 1,31,32
 538 85 538 85 525 90.5 c 128,-1,33
 512 96 512 96 505 96 c 0,34,35
 470 96 470 96 447 73.5 c 128,-1,36
 424 51 424 51 431 23 c 1,37,38
 439 33 439 33 454.5 38 c 128,-1,39
 470 43 470 43 490 43 c 0,40,41
 533 43 533 43 563 18 c 128,-1,42
 593 -7 593 -7 593 -43 c 0,43,44
 593 -77 593 -77 565 -101.5 c 128,-1,45
 537 -126 537 -126 497 -126 c 0,46,47
 442 -126 442 -126 403 -85 c 128,-1,48
 364 -44 364 -44 364 14 c 0,49,50
 364 70 364 70 400.5 106.5 c 128,-1,51
 437 143 437 143 497 148 c 1,52,53
 497 169 497 169 507.5 186 c 128,-1,54
 518 203 518 203 535 209 c 1,55,-1
 535 238 l 1,56,57
 493 209 493 209 451 193.5 c 128,-1,58
 409 178 409 178 371 178 c 0,59,60
 297 178 297 178 252 219 c 128,-1,61
 207 260 207 260 207 328 c 1,62,63
 174 313 174 313 151.5 293.5 c 128,-1,64
 129 274 129 274 119 252 c 1,65,66
 126 240 126 240 129.5 230.5 c 128,-1,67
 133 221 133 221 133 215 c 0,68,69
 133 197 133 197 120 184 c 128,-1,70
 107 171 107 171 88 171 c 0,71,72
 64 171 64 171 47 186 c 128,-1,73
 30 201 30 201 30 223 c 0,0,1
490 -74 m 0,74,75
 511 -74 511 -74 526 -63.5 c 128,-1,76
 541 -53 541 -53 541 -38 c 0,77,78
 541 -22 541 -22 528 -11 c 128,-1,79
 515 0 515 0 497 0 c 0,80,81
 475 0 475 0 460 -11 c 128,-1,82
 445 -22 445 -22 445 -38 c 0,83,84
 445 -53 445 -53 458 -63.5 c 128,-1,85
 471 -74 471 -74 490 -74 c 0,74,75
371 238 m 0,86,87
 427 238 427 238 471.5 262.5 c 128,-1,88
 516 287 516 287 535 328 c 1,89,-1
 402 438 l 1,90,91
 357 426 357 426 312 389 c 128,-1,92
 267 352 267 352 267 328 c 0,93,94
 267 291 267 291 297.5 264.5 c 128,-1,95
 328 238 328 238 371 238 c 0,86,87
231 423 m 1,96,-1
 355 490 l 1,97,-1
 194 647 l 1,98,99
 168 631 168 631 150.5 605.5 c 128,-1,100
 133 580 133 580 128 551 c 1,101,102
 128 503 128 503 157 467 c 128,-1,103
 186 431 186 431 231 423 c 1,96,-1
535 397 m 1,104,-1
 535 542 l 1,105,106
 525 596 525 596 476 636.5 c 128,-1,107
 427 677 427 677 355 690 c 1,108,-1
 304.5 690 l 2,109,110
 258 690 258 690 245 679 c 1,111,-1
 535 397 l 1,104,-1
EndSplineSet
Ligature2: "'pres' Pre Base Substitutions in Oriya lookup 13-1" kaodia_viramasignodia_ssaodia viramasignodia nnaodia
Ligature2: "'pres' Pre Base Substitutions in Oriya lookup 7-1" kaodia viramasignodia ssaodia viramasignodia nnaodia
EndChar

StartChar: kaodia_virm_ssaodia_virm_maodia
Encoding: 65560 -1 92
Width: 780
GlyphClass: 2
Flags: W
LayerCount: 2
Back
Fore
SplineSet
425 135 m 1,0,1
 342 135 342 135 283.5 180.5 c 128,-1,2
 225 226 225 226 225 290 c 0,3,4
 225 303 225 303 226 311 c 128,-1,5
 227 319 227 319 229 322 c 1,6,-1
 128 246 l 1,7,8
 141 244 141 244 149 231.5 c 128,-1,9
 157 219 157 219 157 203 c 0,10,11
 157 185 157 185 140 172 c 128,-1,12
 123 159 123 159 99 159 c 0,13,14
 74 159 74 159 56.5 177 c 128,-1,15
 39 195 39 195 39 220 c 0,16,17
 39 246 39 246 73 280 c 128,-1,18
 107 314 107 314 165 348 c 1,19,20
 113 357 113 357 79.5 402 c 128,-1,21
 46 447 46 447 46 507 c 0,22,23
 46 609 46 609 138.5 681 c 128,-1,24
 231 753 231 753 362 753 c 0,25,26
 439 753 439 753 505.5 728 c 128,-1,27
 572 703 572 703 618 657 c 1,28,-1
 618 738 l 1,29,-1
 693 738 l 1,30,-1
 693 -104 l 1,31,-1
 621 -104 l 1,32,-1
 621 81 l 1,33,34
 579 78 579 78 545.5 68.5 c 128,-1,35
 512 59 512 59 490 43 c 1,36,37
 510 31 510 31 522 8.5 c 128,-1,38
 534 -14 534 -14 534 -41 c 0,39,40
 534 -80 534 -80 503 -108 c 128,-1,41
 472 -136 472 -136 429 -136 c 256,42,43
 386 -136 386 -136 355.5 -108 c 128,-1,44
 325 -80 325 -80 325 -41 c 0,45,46
 325 -17 325 -17 335 5 c 128,-1,47
 345 27 345 27 364 43 c 1,48,-1
 300 81 l 1,49,-1
 333 142 l 1,50,-1
 428 90 l 1,51,52
 469 114 469 114 517 129 c 128,-1,53
 565 144 565 144 618 151 c 1,54,-1
 618 222 l 1,55,56
 583 181 583 181 532.5 158 c 128,-1,57
 482 135 482 135 425 135 c 1,58,-1
 425 135 l 1,0,1
425 203 m 1,59,60
 482 203 482 203 530 234 c 128,-1,61
 578 265 578 265 603 318 c 1,62,-1
 441 439 l 1,63,-1
 336 376 l 1,64,65
 319 370 319 370 309 346.5 c 128,-1,66
 299 323 299 323 299 290 c 0,67,68
 299 254 299 254 336 228.5 c 128,-1,69
 373 203 373 203 425 203 c 1,70,-1
 425 203 l 1,59,60
246 391 m 1,71,-1
 394 480 l 1,72,-1
 203 632 l 1,73,74
 165 614 165 614 142.5 580 c 128,-1,75
 120 546 120 546 120 507 c 0,76,77
 120 459 120 459 157 425 c 128,-1,78
 194 391 194 391 246 391 c 1,79,-1
 246 391 l 1,71,-1
618 381 m 1,80,-1
 618 510 l 2,81,82
 618 574 618 574 544.5 624 c 128,-1,83
 471 674 471 674 362 684 c 0,84,85
 325 684 325 684 299 680.5 c 128,-1,86
 273 677 273 677 258 670 c 1,87,-1
 618 381 l 1,88,-1
 618 381 l 1,80,-1
429 -70 m 1,89,90
 444 -70 444 -70 454.5 -61.5 c 128,-1,91
 465 -53 465 -53 465 -41 c 0,92,93
 465 -23 465 -23 455 -7.5 c 128,-1,94
 445 8 445 8 428 14 c 1,95,96
 412 3 412 3 403 -11.5 c 128,-1,97
 394 -26 394 -26 394 -41 c 0,98,99
 394 -53 394 -53 404.5 -61.5 c 128,-1,100
 415 -70 415 -70 429 -70 c 1,101,-1
 429 -70 l 1,89,90
EndSplineSet
Validated: 517
Ligature2: "'pres' Pre Base Substitutions in Oriya lookup 7-1" kaodia_viramasignodia_ssaodia viramasignodia_maodia
EndChar

StartChar: kaodia_virm_ssaodia_virm_yaodia
Encoding: 65561 -1 93
Width: 1215
GlyphClass: 2
Flags: W
LayerCount: 2
Back
Fore
SplineSet
432 -14 m 1,0,1
 349 -14 349 -14 290.5 37.5 c 128,-1,2
 232 89 232 89 232 162 c 0,3,4
 232 181 232 181 235.5 196.5 c 128,-1,5
 239 212 239 212 245 223 c 1,6,7
 196 182 196 182 169.5 155.5 c 128,-1,8
 143 129 143 129 135 112 c 1,9,10
 148 109 148 109 156 98 c 128,-1,11
 164 87 164 87 164 74 c 0,12,13
 164 53 164 53 147 38 c 128,-1,14
 130 23 130 23 106 23 c 0,15,16
 81 23 81 23 63 42.5 c 128,-1,17
 45 62 45 62 45 90 c 0,18,19
 45 119 45 119 82.5 162 c 128,-1,20
 120 205 120 205 187 252 c 1,21,22
 128 268 128 268 91 321.5 c 128,-1,23
 54 375 54 375 54 445 c 0,24,25
 54 574 54 574 156 665.5 c 128,-1,26
 258 757 258 757 402 757 c 0,27,28
 476 757 476 757 536 727.5 c 128,-1,29
 596 698 596 698 625 647 c 1,30,-1
 625 742 l 1,31,-1
 699 742 l 1,32,-1
 699 0 l 1,33,-1
 625 0 l 1,34,-1
 625 87 l 1,35,36
 598 40 598 40 546.5 13 c 128,-1,37
 495 -14 495 -14 432 -14 c 1,38,-1
 432 -14 l 1,0,1
431 57 m 1,39,40
 488 57 488 57 537.5 96.5 c 128,-1,41
 587 136 587 136 610 200 c 1,42,-1
 447 357 l 1,43,-1
 342 275 l 2,44,45
 325 262 325 262 315.5 232 c 128,-1,46
 306 202 306 202 306 162 c 0,47,48
 306 119 306 119 342.5 88 c 128,-1,49
 379 57 379 57 431 57 c 1,50,-1
 431 57 l 1,39,40
258 307 m 1,51,-1
 402 409 l 1,52,-1
 199 609 l 1,53,54
 165 585 165 585 145.5 541.5 c 128,-1,55
 126 498 126 498 126 445 c 0,56,57
 126 388 126 388 164.5 347.5 c 128,-1,58
 203 307 203 307 258 307 c 1,59,-1
 258 307 l 1,51,-1
625 273 m 1,60,-1
 625 505 l 1,61,62
 597 583 597 583 536.5 633.5 c 128,-1,63
 476 684 476 684 402 690 c 0,64,65
 355 690 355 690 317 679 c 128,-1,66
 279 668 279 668 254 647 c 1,67,-1
 625 273 l 1,68,-1
 625 273 l 1,60,-1
1054 0 m 1,69,-1
 1054 333 l 1,70,71
 1042 319 1042 319 1022.5 311.5 c 128,-1,72
 1003 304 1003 304 979 304 c 0,73,74
 918 304 918 304 874.5 343 c 128,-1,75
 831 382 831 382 831 438 c 2,76,-1
 831 742 l 1,77,-1
 905 742 l 1,78,-1
 905 438 l 2,79,80
 905 410 905 410 926.5 390.5 c 128,-1,81
 948 371 948 371 979 371 c 256,82,83
 1010 371 1010 371 1032 390.5 c 128,-1,84
 1054 410 1054 410 1054 438 c 2,85,-1
 1054 742 l 1,86,-1
 1128 742 l 1,87,-1
 1128 0 l 1,88,-1
 1054 0 l 1,89,-1
 1054 0 l 1,69,-1
EndSplineSet
Validated: 5
EndChar

StartChar: kaodia_viramasignodia_saodia
Encoding: 65562 -1 94
Width: 755
GlyphClass: 2
Flags: W
LayerCount: 2
Back
Fore
SplineSet
274 186 m 1,0,1
 219 186 219 186 180 224 c 128,-1,2
 141 262 141 262 141 316 c 0,3,4
 141 327 141 327 143 337 c 128,-1,5
 145 347 145 347 148 357 c 1,6,7
 95 371 95 371 62 418.5 c 128,-1,8
 29 466 29 466 29 528 c 0,9,10
 29 635 29 635 133 710.5 c 128,-1,11
 237 786 237 786 384 786 c 0,12,13
 526 786 526 786 626 710.5 c 128,-1,14
 726 635 726 635 726 528 c 0,15,16
 726 493 726 493 715 458.5 c 128,-1,17
 704 424 704 424 683 394 c 1,18,-1
 622 431 l 1,19,20
 637 452 637 452 644.5 477 c 128,-1,21
 652 502 652 502 652 528 c 0,22,23
 652 607 652 607 573.5 663 c 128,-1,24
 495 719 495 719 384 719 c 0,25,26
 268 719 268 719 185.5 663 c 128,-1,27
 103 607 103 607 103 528 c 0,28,29
 103 488 103 488 125.5 455 c 128,-1,30
 148 422 148 422 184 409 c 1,31,32
 198 426 198 426 223.5 435.5 c 128,-1,33
 249 445 249 445 280 445 c 256,34,35
 311 445 311 445 338.5 433 c 128,-1,36
 366 421 366 421 384 400 c 1,37,38
 396 421 396 421 420 433 c 128,-1,39
 444 445 444 445 474 445 c 0,40,41
 526 445 526 445 562.5 410.5 c 128,-1,42
 599 376 599 376 599 328 c 2,43,-1
 599 -148 l 1,44,-1
 526 -148 l 1,45,-1
 265 -90 l 1,46,-1
 370 -29 l 1,47,48
 326 -33 326 -33 293 -13 c 128,-1,49
 260 7 260 7 260 38 c 0,50,51
 260 84 260 84 311.5 116 c 128,-1,52
 363 148 363 148 436 148 c 0,53,54
 463 148 463 148 486 140.5 c 128,-1,55
 509 133 509 133 526 119 c 1,56,-1
 526 328 l 2,57,58
 526 349 526 349 511 363.5 c 128,-1,59
 496 378 496 378 474 378 c 256,60,61
 452 378 452 378 436 362.5 c 128,-1,62
 420 347 420 347 420 325 c 2,63,-1
 420 178 l 1,64,-1
 348 178 l 1,65,-1
 348 215 l 1,66,67
 336 201 336 201 317 193.5 c 128,-1,68
 298 186 298 186 274 186 c 1,69,-1
 274 186 l 1,0,1
281 252 m 1,70,71
 309 252 309 252 328.5 265 c 128,-1,72
 348 278 348 278 348 297 c 2,73,-1
 348 333 l 2,74,75
 348 352 348 352 328.5 365 c 128,-1,76
 309 378 309 378 281 378 c 0,77,78
 254 378 254 378 234.5 359.5 c 128,-1,79
 215 341 215 341 215 315 c 256,80,81
 215 289 215 289 234.5 270.5 c 128,-1,82
 254 252 254 252 281 252 c 1,83,-1
 281 252 l 1,70,71
526 -90 m 1,84,-1
 526 38 l 1,85,86
 517 58 517 58 492.5 69.5 c 128,-1,87
 468 81 468 81 436 81 c 0,88,89
 393 81 393 81 363 68.5 c 128,-1,90
 333 56 333 56 333 38 c 0,91,92
 333 21 333 21 371.5 10.5 c 128,-1,93
 410 0 410 0 467 0 c 1,94,-1
 474 -29 l 1,95,-1
 407 -67 l 1,96,-1
 526 -90 l 1,97,-1
 526 -90 l 1,84,-1
EndSplineSet
Validated: 37
Ligature2: "'pres' Pre Base Substitutions in Oriya lookup 13-1" kaodia viramasignodia saodia
Ligature2: "'pres' Pre Base Substitutions in Oriya lookup 7-1" kaodia viramasignodia_saodia
EndChar

StartChar: gaodia_viramasignodia_daodia
Encoding: 65563 -1 95
Width: 768
GlyphClass: 2
Flags: W
LayerCount: 2
Back
Fore
SplineSet
594 725 m 1,0,-1
 667 725 l 1,1,-1
 667 229 l 1,2,3
 697 227 697 227 718.5 222 c 128,-1,4
 740 217 740 217 751 209 c 1,5,-1
 737 148 l 1,6,7
 706 159 706 159 670 165 c 128,-1,8
 634 171 634 171 594 171 c 0,9,10
 514 171 514 171 458 147.5 c 128,-1,11
 402 124 402 124 402 90 c 0,12,13
 402 80 402 80 411 73.5 c 128,-1,14
 420 67 420 67 432 67 c 1,15,16
 445 78 445 78 462.5 84 c 128,-1,17
 480 90 480 90 499 90 c 1,18,-1
 513 38 l 1,19,20
 486 38 486 38 466.5 23 c 128,-1,21
 447 8 447 8 447 -14 c 0,22,23
 447 -26 447 -26 468.5 -34.5 c 128,-1,24
 490 -43 490 -43 521 -43 c 0,25,26
 561 -43 561 -43 596 -28 c 128,-1,27
 631 -13 631 -13 654 14 c 1,28,-1
 654 81 l 1,29,-1
 726 81 l 1,30,-1
 726 -112 l 1,31,-1
 654 -112 l 1,32,-1
 654 -67 l 1,33,34
 623 -89 623 -89 589 -100.5 c 128,-1,35
 555 -112 555 -112 521 -112 c 0,36,37
 459 -112 459 -112 415 -83.5 c 128,-1,38
 371 -55 371 -55 371 -14 c 0,39,40
 371 -1 371 -1 377 10 c 128,-1,41
 383 21 383 21 394 29 c 1,42,43
 367 29 367 29 347.5 47 c 128,-1,44
 328 65 328 65 328 90 c 0,45,46
 328 156 328 156 398 192.5 c 128,-1,47
 468 229 468 229 594 229 c 1,48,-1
 594 497 l 1,49,50
 554 582 554 582 479.5 632.5 c 128,-1,51
 405 683 405 683 319 683 c 0,52,53
 230 683 230 683 167 637.5 c 128,-1,54
 104 592 104 592 104 528 c 0,55,56
 104 506 104 506 114.5 489 c 128,-1,57
 125 472 125 472 142 467 c 1,58,59
 166 496 166 496 201 512 c 128,-1,60
 236 528 236 528 275 528 c 0,61,62
 352 528 352 528 406.5 478 c 128,-1,63
 461 428 461 428 461 357 c 0,64,65
 461 289 461 289 406.5 241 c 128,-1,66
 352 193 352 193 275 193 c 256,67,68
 198 193 198 193 144 241 c 128,-1,69
 90 289 90 289 90 357 c 0,70,71
 90 377 90 377 92 390 c 128,-1,72
 94 403 94 403 97 409 c 1,73,74
 66 427 66 427 48 459 c 128,-1,75
 30 491 30 491 30 528 c 0,76,77
 30 623 30 623 114.5 690 c 128,-1,78
 199 757 199 757 319 757 c 0,79,80
 404 757 404 757 477 721.5 c 128,-1,81
 550 686 550 686 594 623 c 1,82,-1
 594 725 l 1,83,-1
 594 725 l 1,0,-1
275 260 m 1,84,85
 321 260 321 260 353.5 288.5 c 128,-1,86
 386 317 386 317 386 357 c 0,87,88
 386 396 386 396 353.5 424 c 128,-1,89
 321 452 321 452 275 452 c 256,90,91
 229 452 229 452 196.5 424 c 128,-1,92
 164 396 164 396 164 357 c 0,93,94
 164 317 164 317 196.5 288.5 c 128,-1,95
 229 260 229 260 275 260 c 1,96,-1
 275 260 l 1,84,85
EndSplineSet
Validated: 5
Ligature2: "'pres' Pre Base Substitutions in Oriya lookup 13-1" gaodia viramasignodia daodia
Ligature2: "'pres' Pre Base Substitutions in Oriya lookup 7-1" gaodia viramasignodia_daodia
EndChar

StartChar: gaodia_viramasignodia_dhaodia
Encoding: 65564 -1 96
Width: 747
GlyphClass: 2
Flags: W
LayerCount: 2
Back
Fore
SplineSet
587 725 m 1,0,-1
 660 725 l 1,1,-1
 660 -109 l 1,2,-1
 587 -109 l 1,3,-1
 587 -35 l 1,4,5
 552 -77 552 -77 505.5 -100 c 128,-1,6
 459 -123 459 -123 409 -123 c 0,7,8
 341 -123 341 -123 293 -88 c 128,-1,9
 245 -53 245 -53 245 -4 c 0,10,11
 245 32 245 32 267 58 c 128,-1,12
 289 84 289 84 320 84 c 1,13,-1
 187 129 l 1,14,-1
 209 188 l 1,15,-1
 492 93 l 1,16,-1
 461 32 l 1,17,-1
 387 55 l 1,18,19
 359 55 359 55 339.5 37.5 c 128,-1,20
 320 20 320 20 320 -4 c 0,21,22
 320 -26 320 -26 346 -41.5 c 128,-1,23
 372 -57 372 -57 409 -57 c 0,24,25
 458 -57 458 -57 505.5 -23 c 128,-1,26
 553 11 553 11 587 70 c 1,27,-1
 587 435 l 2,28,29
 587 538 587 538 503 610.5 c 128,-1,30
 419 683 419 683 300 683 c 0,31,32
 216 683 216 683 156.5 641 c 128,-1,33
 97 599 97 599 97 539 c 0,34,35
 97 509 97 509 116.5 488 c 128,-1,36
 136 467 136 467 164 467 c 1,37,38
 181 491 181 491 216.5 505 c 128,-1,39
 252 519 252 519 297 519 c 0,40,41
 374 519 374 519 428.5 471.5 c 128,-1,42
 483 424 483 424 483 357 c 0,43,44
 483 289 483 289 428.5 241 c 128,-1,45
 374 193 374 193 297 193 c 0,46,47
 222 193 222 193 168.5 241 c 128,-1,48
 115 289 115 289 115 357 c 0,49,50
 115 369 115 369 118 380 c 128,-1,51
 121 391 121 391 126 400 c 1,52,53
 82 412 82 412 54 450.5 c 128,-1,54
 26 489 26 489 26 539 c 0,55,56
 26 629 26 629 106.5 693 c 128,-1,57
 187 757 187 757 300 757 c 0,58,59
 395 757 395 757 472 719 c 128,-1,60
 549 681 549 681 587 615 c 1,61,-1
 587 725 l 1,62,-1
 587 725 l 1,0,-1
297 260 m 1,63,64
 343 260 343 260 376 288.5 c 128,-1,65
 409 317 409 317 409 357 c 0,66,67
 409 396 409 396 376 424 c 128,-1,68
 343 452 343 452 297 452 c 256,69,70
 251 452 251 452 219 424 c 128,-1,71
 187 396 187 396 187 357 c 0,72,73
 187 317 187 317 219 288.5 c 128,-1,74
 251 260 251 260 297 260 c 1,75,-1
 297 260 l 1,63,64
EndSplineSet
Validated: 5
Ligature2: "'pres' Pre Base Substitutions in Oriya lookup 13-1" gaodia viramasignodia dhaodia
Ligature2: "'pres' Pre Base Substitutions in Oriya lookup 7-1" gaodia viramasignodia_dhaodia
EndChar

StartChar: gaodia_viramasignodia_naodia
Encoding: 65565 -1 97
Width: 744
GlyphClass: 2
Flags: W
LayerCount: 2
Back
Fore
SplineSet
584 725 m 1,0,-1
 657 725 l 1,1,-1
 657 -20 l 1,2,-1
 584 -20 l 1,3,-1
 584 99 l 1,4,5
 550 102 550 102 509.5 82 c 128,-1,6
 469 62 469 62 463 39 c 1,7,8
 473 35 473 35 479.5 21 c 128,-1,9
 486 7 486 7 486 -13 c 256,10,11
 486 -33 486 -33 468.5 -47 c 128,-1,12
 451 -61 451 -61 426 -61 c 0,13,14
 399 -61 399 -61 379.5 -40.5 c 128,-1,15
 360 -20 360 -20 360 9 c 0,16,17
 360 77 360 77 425.5 125 c 128,-1,18
 491 173 491 173 584 173 c 1,19,-1
 584 505 l 2,20,21
 584 579 584 579 507.5 631 c 128,-1,22
 431 683 431 683 323 683 c 0,23,24
 231 683 231 683 165.5 641.5 c 128,-1,25
 100 600 100 600 100 542 c 0,26,27
 100 510 100 510 120.5 485 c 128,-1,28
 141 460 141 460 173 451 c 1,29,30
 191 469 191 469 222.5 479 c 128,-1,31
 254 489 254 489 293 489 c 0,32,33
 369 489 369 489 423 436.5 c 128,-1,34
 477 384 477 384 477 310 c 0,35,36
 477 239 477 239 422.5 189 c 128,-1,37
 368 139 368 139 291 139 c 256,38,39
 214 139 214 139 160 189 c 128,-1,40
 106 239 106 239 106 310 c 0,41,42
 106 336 106 336 112 357 c 128,-1,43
 118 378 118 378 129 391 c 1,44,45
 84 403 84 403 56 445 c 128,-1,46
 28 487 28 487 28 542 c 0,47,48
 28 631 28 631 114.5 694 c 128,-1,49
 201 757 201 757 323 757 c 0,50,51
 410 757 410 757 479.5 728.5 c 128,-1,52
 549 700 549 700 584 650 c 1,53,-1
 584 725 l 1,54,-1
 584 725 l 1,0,-1
291 206 m 1,55,56
 337 206 337 206 370 236.5 c 128,-1,57
 403 267 403 267 403 310 c 256,58,59
 403 353 403 353 370 384 c 128,-1,60
 337 415 337 415 291 415 c 256,61,62
 245 415 245 415 213 384 c 128,-1,63
 181 353 181 353 181 310 c 256,64,65
 181 267 181 267 213 236.5 c 128,-1,66
 245 206 245 206 291 206 c 1,67,-1
 291 206 l 1,55,56
EndSplineSet
Validated: 37
Ligature2: "'pres' Pre Base Substitutions in Oriya lookup 7-1" gaodia viramasignodia_naodia
EndChar

StartChar: gaodia_viramasignodia_llaodia
Encoding: 65566 -1 98
Width: 802
GlyphClass: 2
Flags: W
LayerCount: 2
Back
Fore
SplineSet
300 142 m 1,0,1
 223 142 223 142 169 194 c 128,-1,2
 115 246 115 246 115 319 c 0,3,4
 115 343 115 343 118.5 360.5 c 128,-1,5
 122 378 122 378 129 389 c 1,6,7
 85 398 85 398 56.5 443 c 128,-1,8
 28 488 28 488 28 548 c 0,9,10
 28 636 28 636 107.5 698 c 128,-1,11
 187 760 187 760 300 760 c 0,12,13
 389 760 389 760 458 731.5 c 128,-1,14
 527 703 527 703 560 652 c 1,15,-1
 560 729 l 1,16,-1
 632 729 l 1,17,-1
 632 151 l 1,18,19
 639 156 639 156 652.5 159 c 128,-1,20
 666 162 666 162 686 162 c 0,21,22
 727 162 727 162 755.5 132.5 c 128,-1,23
 784 103 784 103 784 61 c 2,24,-1
 784 -51 l 1,25,-1
 712 -51 l 1,26,-1
 712 61 l 2,27,28
 712 79 712 79 699.5 91.5 c 128,-1,29
 687 104 687 104 670 104 c 256,30,31
 653 104 653 104 640.5 91.5 c 128,-1,32
 628 79 628 79 628 61 c 2,33,-1
 628 -51 l 1,34,-1
 555 -51 l 1,35,-1
 555 61 l 2,36,37
 555 79 555 79 543.5 91.5 c 128,-1,38
 532 104 532 104 515 104 c 0,39,40
 496 104 496 104 483 91.5 c 128,-1,41
 470 79 470 79 470 61 c 2,42,-1
 470 -51 l 1,43,-1
 397 -51 l 1,44,-1
 397 61 l 2,45,46
 397 103 397 103 431.5 132.5 c 128,-1,47
 466 162 466 162 515 162 c 0,48,49
 528 162 528 162 539.5 158.5 c 128,-1,50
 551 155 551 155 560 148 c 1,51,-1
 560 505 l 2,52,53
 560 580 560 580 484 633 c 128,-1,54
 408 686 408 686 300 686 c 0,55,56
 217 686 217 686 158 645.5 c 128,-1,57
 99 605 99 605 99 548 c 0,58,59
 99 510 99 510 117.5 481.5 c 128,-1,60
 136 453 136 453 165 447 c 1,61,62
 187 472 187 472 222 485.5 c 128,-1,63
 257 499 257 499 300 499 c 0,64,65
 377 499 377 499 431.5 446.5 c 128,-1,66
 486 394 486 394 486 319 c 0,67,68
 486 246 486 246 431.5 194 c 128,-1,69
 377 142 377 142 300 142 c 1,70,-1
 300 142 l 1,0,1
300 209 m 1,71,72
 346 209 346 209 379 241 c 128,-1,73
 412 273 412 273 412 319 c 0,74,75
 412 363 412 363 379 394.5 c 128,-1,76
 346 426 346 426 300 426 c 256,77,78
 254 426 254 426 221 394.5 c 128,-1,79
 188 363 188 363 188 319 c 0,80,81
 188 273 188 273 221 241 c 128,-1,82
 254 209 254 209 300 209 c 1,83,-1
 300 209 l 1,71,72
EndSplineSet
Validated: 5
Ligature2: "'pres' Pre Base Substitutions in Oriya lookup 7-1" gaodia viramasignodia_llaodia
EndChar

StartChar: ghaodia_viramasignodia_naodia
Encoding: 65567 -1 99
Width: 737
GlyphClass: 2
Flags: W
LayerCount: 2
Back
Fore
SplineSet
577 725 m 1,0,-1
 650 725 l 1,1,-1
 650 0 l 1,2,-1
 577 0 l 1,3,-1
 577 99 l 1,4,5
 537 103 537 103 490 86 c 128,-1,6
 443 69 443 69 438 49 c 1,7,8
 454 43 454 43 464 29 c 128,-1,9
 474 15 474 15 474 -3 c 0,10,11
 474 -25 474 -25 459 -40 c 128,-1,12
 444 -55 444 -55 422 -55 c 0,13,14
 394 -55 394 -55 374.5 -33 c 128,-1,15
 355 -11 355 -11 355 20 c 0,16,17
 355 77 355 77 419 121 c 128,-1,18
 483 165 483 165 577 173 c 1,19,-1
 577 225 l 1,20,21
 563 209 563 209 541.5 200 c 128,-1,22
 520 191 520 191 494 191 c 0,23,24
 451 191 451 191 418.5 211.5 c 128,-1,25
 386 232 386 232 377 264 c 1,26,27
 368 232 368 232 332 211.5 c 128,-1,28
 296 191 296 191 248 191 c 0,29,30
 187 191 187 191 144 234.5 c 128,-1,31
 101 278 101 278 101 339 c 0,32,33
 101 363 101 363 106.5 384 c 128,-1,34
 112 405 112 405 123 420 c 1,35,36
 79 441 79 441 52.5 479.5 c 128,-1,37
 26 518 26 518 26 563 c 0,38,39
 26 643 26 643 106 700 c 128,-1,40
 186 757 186 757 299 757 c 0,41,42
 393 757 393 757 467 728 c 128,-1,43
 541 699 541 699 577 647 c 1,44,-1
 577 725 l 1,45,-1
 577 725 l 1,0,-1
577 505 m 1,46,47
 577 582 577 582 495.5 636 c 128,-1,48
 414 690 414 690 299 690 c 0,49,50
 215 690 215 690 156 653 c 128,-1,51
 97 616 97 616 97 563 c 0,52,53
 97 534 97 534 115 511.5 c 128,-1,54
 133 489 133 489 161 481 c 1,55,56
 181 505 181 505 211.5 521.5 c 128,-1,57
 242 538 242 538 278 544 c 1,58,-1
 299 490 l 1,59,60
 243 470 243 470 209 428.5 c 128,-1,61
 175 387 175 387 175 339 c 0,62,63
 175 302 175 302 196.5 275.5 c 128,-1,64
 218 249 218 249 249 249 c 0,65,66
 286 249 286 249 312.5 280 c 128,-1,67
 339 311 339 311 339 354 c 2,68,-1
 339 422 l 1,69,-1
 413 422 l 1,70,-1
 413 354 l 2,71,72
 413 311 413 311 436.5 280 c 128,-1,73
 460 249 460 249 494 249 c 256,74,75
 528 249 528 249 552.5 280 c 128,-1,76
 577 311 577 311 577 354 c 2,77,-1
 577 505 l 1,78,-1
 577 505 l 1,46,47
EndSplineSet
Validated: 37
Ligature2: "'pres' Pre Base Substitutions in Oriya lookup 7-1" ghaodia viramasignodia_naodia
EndChar

StartChar: ngaodia_viramasignodia_kaodia
Encoding: 65568 -1 100
Width: 841
GlyphClass: 2
Flags: W
LayerCount: 2
Back
Fore
SplineSet
418 0 m 1,0,-1
 418 96 l 1,1,2
 411 86 411 86 399 80 c 128,-1,3
 387 74 387 74 374 74 c 0,4,5
 347 74 347 74 326.5 88.5 c 128,-1,6
 306 103 306 103 300 126 c 1,7,8
 291 103 291 103 268.5 88.5 c 128,-1,9
 246 74 246 74 217 74 c 0,10,11
 171 74 171 74 139 119.5 c 128,-1,12
 107 165 107 165 107 229 c 0,13,14
 107 262 107 262 112.5 285 c 128,-1,15
 118 308 118 308 129 319 c 1,16,17
 85 335 85 335 58.5 380 c 128,-1,18
 32 425 32 425 32 483 c 0,19,20
 32 596 32 596 125.5 676.5 c 128,-1,21
 219 757 219 757 351 757 c 0,22,23
 427 757 427 757 497 737.5 c 128,-1,24
 567 718 567 718 625 680 c 1,25,26
 638 696 638 696 659 704.5 c 128,-1,27
 680 713 680 713 705 713 c 0,28,29
 752 713 752 713 785.5 677.5 c 128,-1,30
 819 642 819 642 819 592 c 0,31,32
 819 540 819 540 785.5 503.5 c 128,-1,33
 752 467 752 467 705 467 c 0,34,35
 657 467 657 467 623 502.5 c 128,-1,36
 589 538 589 538 589 589 c 1,37,-1
 592 609 l 1,38,39
 552 645 552 645 490 664 c 128,-1,40
 428 683 428 683 351 683 c 0,41,42
 250 683 250 683 178.5 624.5 c 128,-1,43
 107 566 107 566 107 483 c 0,44,45
 107 437 107 437 128 403.5 c 128,-1,46
 149 370 149 370 181 364 c 1,47,48
 187 368 187 368 202 369.5 c 128,-1,49
 217 371 217 371 241 371 c 0,50,51
 257 371 257 371 274.5 361 c 128,-1,52
 292 351 292 351 307 333 c 1,53,54
 320 351 320 351 338.5 361 c 128,-1,55
 357 371 357 371 378 371 c 0,56,57
 397 371 397 371 417 361 c 128,-1,58
 437 351 437 351 455 333 c 1,59,60
 470 351 470 351 491.5 361 c 128,-1,61
 513 371 513 371 536 371 c 0,62,63
 585 371 585 371 620 338 c 128,-1,64
 655 305 655 305 655 258 c 2,65,-1
 655 0 l 1,66,-1
 583 0 l 1,67,-1
 583 258 l 2,68,69
 583 277 583 277 569 290.5 c 128,-1,70
 555 304 555 304 536 304 c 256,71,72
 517 304 517 304 503.5 291 c 128,-1,73
 490 278 490 278 490 260 c 2,74,-1
 490 0 l 1,75,-1
 418 0 l 1,76,-1
 418 0 l 1,0,-1
220 142 m 1,77,78
 241 142 241 142 255.5 165.5 c 128,-1,79
 270 189 270 189 270 223 c 256,80,81
 270 257 270 257 255.5 280.5 c 128,-1,82
 241 304 241 304 220 304 c 0,83,84
 201 304 201 304 187.5 280.5 c 128,-1,85
 174 257 174 257 174 223 c 256,86,87
 174 189 174 189 187.5 165.5 c 128,-1,88
 201 142 201 142 220 142 c 1,89,-1
 220 142 l 1,77,78
374 142 m 1,90,91
 392 142 392 142 405 165.5 c 128,-1,92
 418 189 418 189 418 223 c 256,93,94
 418 257 418 257 405 280.5 c 128,-1,95
 392 304 392 304 374 304 c 0,96,97
 355 304 355 304 342 280.5 c 128,-1,98
 329 257 329 257 329 223 c 256,99,100
 329 189 329 189 342 165.5 c 128,-1,101
 355 142 355 142 374 142 c 1,102,-1
 374 142 l 1,90,91
705 534 m 1,103,104
 725 534 725 534 739 550 c 128,-1,105
 753 566 753 566 753 589 c 0,106,107
 753 613 753 613 739 630 c 128,-1,108
 725 647 725 647 705 647 c 0,109,110
 684 647 684 647 669.5 630 c 128,-1,111
 655 613 655 613 655 589 c 0,112,113
 655 566 655 566 669.5 550 c 128,-1,114
 684 534 684 534 705 534 c 1,115,-1
 705 534 l 1,103,104
EndSplineSet
Validated: 5
Ligature2: "'pres' Pre Base Substitutions in Oriya lookup 13-1" ngaodia viramasignodia kaodia
Ligature2: "'pres' Pre Base Substitutions in Oriya lookup 7-1" ngaodia viramasignodia_kaodia
EndChar

StartChar: ngaodia_virm_kaodia_virm_taodia
Encoding: 65569 -1 101
Width: 799
GlyphClass: 2
Flags: W
LayerCount: 2
Back
Fore
SplineSet
412 -252 m 1,0,1
 361 -252 361 -252 322 -242.5 c 128,-1,2
 283 -233 283 -233 262 -215 c 1,3,-1
 300 -157 l 1,4,5
 325 -171 325 -171 353.5 -178.5 c 128,-1,6
 382 -186 382 -186 412 -186 c 0,7,8
 481 -186 481 -186 528 -176 c 128,-1,9
 575 -166 575 -166 590 -148 c 1,10,11
 555 -142 555 -142 532 -111.5 c 128,-1,12
 509 -81 509 -81 509 -41 c 0,13,14
 509 13 509 13 545.5 51.5 c 128,-1,15
 582 90 582 90 634 90 c 0,16,17
 687 90 687 90 724 51.5 c 128,-1,18
 761 13 761 13 761 -41 c 0,19,20
 761 -137 761 -137 665.5 -194.5 c 128,-1,21
 570 -252 570 -252 412 -252 c 1,22,-1
 412 -252 l 1,0,1
634 -104 m 1,23,24
 659 -104 659 -104 677 -85.5 c 128,-1,25
 695 -67 695 -67 695 -41 c 0,26,27
 695 -14 695 -14 677 4.5 c 128,-1,28
 659 23 659 23 634 23 c 0,29,30
 610 23 610 23 593 4.5 c 128,-1,31
 576 -14 576 -14 576 -41 c 0,32,33
 576 -67 576 -67 593 -85.5 c 128,-1,34
 610 -104 610 -104 634 -104 c 1,35,-1
 634 -104 l 1,23,24
309 0 m 1,36,-1
 309 38 l 1,37,38
 305 31 305 31 295 27 c 128,-1,39
 285 23 285 23 271 23 c 0,40,41
 240 23 240 23 218 42.5 c 128,-1,42
 196 62 196 62 196 90 c 1,43,44
 162 90 162 90 138.5 116 c 128,-1,45
 115 142 115 142 115 178 c 256,46,47
 115 214 115 214 137.5 242.5 c 128,-1,48
 160 271 160 271 196 281 c 1,49,50
 163 293 163 293 143 325.5 c 128,-1,51
 123 358 123 358 123 400 c 1,52,53
 80 411 80 411 53 451 c 128,-1,54
 26 491 26 491 26 542 c 0,55,56
 26 631 26 631 113 694 c 128,-1,57
 200 757 200 757 323 757 c 0,58,59
 439 757 439 757 532 711 c 128,-1,60
 625 665 625 665 671 586 c 1,61,62
 714 586 714 586 744 554.5 c 128,-1,63
 774 523 774 523 774 478 c 0,64,65
 774 435 774 435 742 404 c 128,-1,66
 710 373 710 373 664 373 c 0,67,68
 619 373 619 373 587 404 c 128,-1,69
 555 435 555 435 555 478 c 0,70,71
 555 510 555 510 568.5 535 c 128,-1,72
 582 560 582 560 605 571 c 1,73,74
 567 626 567 626 492 656.5 c 128,-1,75
 417 687 417 687 323 687 c 256,76,77
 229 687 229 687 163 644.5 c 128,-1,78
 97 602 97 602 97 542 c 0,79,80
 97 513 97 513 108.5 491.5 c 128,-1,81
 120 470 120 470 138 467 c 1,82,83
 148 494 148 494 172.5 515.5 c 128,-1,84
 197 537 197 537 233 550 c 1,85,-1
 262 497 l 1,86,87
 230 485 230 485 210 461 c 128,-1,88
 190 437 190 437 190 409 c 0,89,90
 190 366 190 366 229 335 c 128,-1,91
 268 304 268 304 323 304 c 0,92,93
 372 304 372 304 407 323.5 c 128,-1,94
 442 343 442 343 442 371 c 0,95,96
 442 389 442 389 424.5 403.5 c 128,-1,97
 407 418 407 418 381 423 c 1,98,-1
 315 371 l 1,99,-1
 278 423 l 1,100,-1
 494 580 l 1,101,-1
 523 534 l 1,102,-1
 434 467 l 1,103,104
 467 461 467 461 488 434 c 128,-1,105
 509 407 509 407 509 371 c 0,106,107
 509 345 509 345 495 323 c 128,-1,108
 481 301 481 301 457 290 c 1,109,110
 518 274 518 274 559 227 c 128,-1,111
 600 180 600 180 605 119 c 1,112,-1
 547 104 l 1,113,114
 547 162 547 162 490 203.5 c 128,-1,115
 433 245 433 245 352 245 c 0,116,117
 281 245 281 245 231 225.5 c 128,-1,118
 181 206 181 206 181 178 c 0,119,120
 181 166 181 166 190 157 c 128,-1,121
 199 148 199 148 212 148 c 1,122,123
 220 165 220 165 236 175.5 c 128,-1,124
 252 186 252 186 271 186 c 0,125,126
 292 186 292 186 310 176 c 128,-1,127
 328 166 328 166 338 148 c 1,128,129
 348 162 348 162 365.5 170 c 128,-1,130
 383 178 383 178 405 178 c 0,131,132
 439 178 439 178 462.5 154 c 128,-1,133
 486 130 486 130 486 96 c 2,134,-1
 486 0 l 1,135,-1
 419 0 l 1,136,-1
 419 96 l 2,137,138
 419 106 419 106 412.5 112.5 c 128,-1,139
 406 119 406 119 397 119 c 256,140,141
 388 119 388 119 382 112.5 c 128,-1,142
 376 106 376 106 376 96 c 2,143,-1
 376 0 l 1,144,-1
 309 0 l 1,145,-1
 309 0 l 1,36,-1
274 74 m 1,146,147
 285 74 285 74 292.5 81.5 c 128,-1,148
 300 89 300 89 300 99 c 0,149,150
 300 110 300 110 292.5 118 c 128,-1,151
 285 126 285 126 274 126 c 256,152,153
 263 126 263 126 255.5 118 c 128,-1,154
 248 110 248 110 248 99 c 0,155,156
 248 89 248 89 255.5 81.5 c 128,-1,157
 263 74 263 74 274 74 c 1,158,-1
 274 74 l 1,146,147
664 431 m 1,159,160
 686 431 686 431 701 445 c 128,-1,161
 716 459 716 459 716 478 c 0,162,163
 716 499 716 499 701 513.5 c 128,-1,164
 686 528 686 528 664 528 c 0,165,166
 643 528 643 528 628 513.5 c 128,-1,167
 613 499 613 499 613 478 c 0,168,169
 613 459 613 459 628 445 c 128,-1,170
 643 431 643 431 664 431 c 1,171,-1
 664 431 l 1,159,160
EndSplineSet
Validated: 517
Ligature2: "'pres' Pre Base Substitutions in Oriya lookup 13-1" ngaodia viramasignodia kaodia viramasignodia taodia
Ligature2: "'pres' Pre Base Substitutions in Oriya lookup 7-1" ngaodia viramasignodia_kaodia viramasignodia_taodia
EndChar

StartChar: ngaodia_vir_kaodia_vir_ssaodia
Encoding: 65570 -1 102
Width: 764
GlyphClass: 2
Flags: W
LayerCount: 2
Back
Fore
SplineSet
516 0 m 1,0,-1
 516 29 l 1,1,2
 499 9 499 9 460 -2.5 c 128,-1,3
 421 -14 421 -14 367 -14 c 0,4,5
 311 -14 311 -14 272 9.5 c 128,-1,6
 233 33 233 33 233 67 c 1,7,8
 215 61 215 61 204 53 c 128,-1,9
 193 45 193 45 190 38 c 1,10,11
 196 38 196 38 200 29 c 128,-1,12
 204 20 204 20 204 7 c 0,13,14
 204 -8 204 -8 191 -18.5 c 128,-1,15
 178 -29 178 -29 159 -29 c 0,16,17
 137 -29 137 -29 122 -12 c 128,-1,18
 107 5 107 5 107 29 c 0,19,20
 107 59 107 59 138 86 c 128,-1,21
 169 113 169 113 219 126 c 1,22,23
 199 133 199 133 186.5 149.5 c 128,-1,24
 174 166 174 166 174 186 c 0,25,26
 174 210 174 210 184 230 c 128,-1,27
 194 250 194 250 212 260 c 1,28,29
 169 268 169 268 140.5 309.5 c 128,-1,30
 112 351 112 351 112 407 c 1,31,32
 74 417 74 417 50 452.5 c 128,-1,33
 26 488 26 488 26 534 c 0,34,35
 26 626 26 626 115.5 691.5 c 128,-1,36
 205 757 205 757 331 757 c 0,37,38
 437 757 437 757 522.5 715 c 128,-1,39
 608 673 608 673 650 600 c 1,40,41
 690 600 690 600 718.5 572 c 128,-1,42
 747 544 747 544 747 505 c 0,43,44
 747 468 747 468 718.5 441.5 c 128,-1,45
 690 415 690 415 650 415 c 0,46,47
 609 415 609 415 580.5 441.5 c 128,-1,48
 552 468 552 468 552 505 c 0,49,50
 552 531 552 531 562.5 551.5 c 128,-1,51
 573 572 573 572 590 580 c 1,52,53
 559 633 559 633 489.5 664 c 128,-1,54
 420 695 420 695 331 695 c 0,55,56
 232 695 232 695 162.5 648 c 128,-1,57
 93 601 93 601 93 534 c 0,58,59
 93 510 93 510 103.5 493 c 128,-1,60
 114 476 114 476 129 476 c 1,61,62
 142 505 142 505 169.5 526 c 128,-1,63
 197 547 197 547 233 557 c 1,64,-1
 257 497 l 1,65,66
 221 491 221 491 197.5 465.5 c 128,-1,67
 174 440 174 440 174 407 c 0,68,69
 174 361 174 361 213.5 329 c 128,-1,70
 253 297 253 297 309 297 c 0,71,72
 361 297 361 297 397.5 322 c 128,-1,73
 434 347 434 347 434 383 c 0,74,75
 434 406 434 406 421 422 c 128,-1,76
 408 438 408 438 390 438 c 1,77,-1
 293 371 l 1,78,-1
 257 423 l 1,79,-1
 478 580 l 1,80,-1
 516 528 l 1,81,-1
 448 476 l 1,82,83
 472 465 472 465 486 439.5 c 128,-1,84
 500 414 500 414 500 383 c 0,85,86
 500 351 500 351 484.5 324.5 c 128,-1,87
 469 298 469 298 442 286 c 1,88,89
 460 286 460 286 479 278 c 128,-1,90
 498 270 498 270 516 255 c 1,91,-1
 516 296 l 1,92,-1
 589 296 l 1,93,-1
 589 0 l 1,94,-1
 516 0 l 1,95,-1
 516 0 l 1,0,-1
376 52 m 1,96,97
 397 52 397 52 417.5 57.5 c 128,-1,98
 438 63 438 63 457 74 c 1,99,-1
 381 126 l 1,100,101
 350 120 350 120 329.5 107.5 c 128,-1,102
 309 95 309 95 309 81 c 0,103,104
 309 69 309 69 328.5 60.5 c 128,-1,105
 348 52 348 52 376 52 c 1,106,-1
 376 52 l 1,96,97
293 157 m 1,107,108
 303 157 303 157 314.5 160.5 c 128,-1,109
 326 164 326 164 338 171 c 1,110,-1
 278 229 l 1,111,112
 265 227 265 227 256.5 214.5 c 128,-1,113
 248 202 248 202 248 186 c 0,114,115
 248 174 248 174 261 165.5 c 128,-1,116
 274 157 274 157 293 157 c 1,117,-1
 293 157 l 1,107,108
516 96 m 1,118,-1
 516 178 l 1,119,120
 503 205 503 205 456.5 221.5 c 128,-1,121
 410 238 410 238 345 238 c 1,122,-1
 516 96 l 1,123,-1
 516 96 l 1,118,-1
650 476 m 1,124,125
 662 476 662 476 671 484.5 c 128,-1,126
 680 493 680 493 680 505 c 256,127,128
 680 517 680 517 671 525.5 c 128,-1,129
 662 534 662 534 650 534 c 0,130,131
 637 534 637 534 628 525.5 c 128,-1,132
 619 517 619 517 619 505 c 256,133,134
 619 493 619 493 628 484.5 c 128,-1,135
 637 476 637 476 650 476 c 1,136,-1
 650 476 l 1,124,125
EndSplineSet
Validated: 517
Ligature2: "'pres' Pre Base Substitutions in Oriya2 lookup 16-1" ngaodia_viramasignodia_kaodia ssaodia viramasignodia
Ligature2: "'pres' Pre Base Substitutions in Oriya lookup 7-1" ngaodia_viramasignodia_kaodia viramasignodia ssaodia
Ligature2: "'akhn' Akhand lookup 0-1" ngaodia viramasignodia kaodia viramasignodia ssaodia
EndChar

StartChar: ngaodia_viramasignodia_khaodia
Encoding: 65571 -1 103
Width: 870
GlyphClass: 2
Flags: W
LayerCount: 2
Back
Fore
SplineSet
407 -14 m 1,0,1
 383 -14 383 -14 361 0 c 128,-1,2
 339 14 339 14 325 38 c 1,3,4
 311 14 311 14 289.5 0 c 128,-1,5
 268 -14 268 -14 244 -14 c 0,6,7
 183 -14 183 -14 146 38.5 c 128,-1,8
 109 91 109 91 109 178 c 0,9,10
 109 216 109 216 115 246.5 c 128,-1,11
 121 277 121 277 133 297 c 1,12,13
 89 318 89 318 62.5 368 c 128,-1,14
 36 418 36 418 36 481 c 0,15,16
 36 600 36 600 133 684 c 128,-1,17
 230 768 230 768 367 768 c 0,18,19
 397 768 397 768 418 765 c 128,-1,20
 439 762 439 762 451 757 c 1,21,22
 416 733 416 733 396.5 693.5 c 128,-1,23
 377 654 377 654 377 609 c 0,24,25
 377 578 377 578 398.5 556 c 128,-1,26
 420 534 420 534 451 534 c 0,27,28
 500 534 500 534 541.5 591.5 c 128,-1,29
 583 649 583 649 599 737 c 1,30,-1
 671 737 l 1,31,-1
 671 719 l 1,32,33
 682 730 682 730 696.5 736 c 128,-1,34
 711 742 711 742 726 742 c 0,35,36
 778 742 778 742 814.5 707 c 128,-1,37
 851 672 851 672 851 623 c 256,38,39
 851 574 851 574 814.5 539.5 c 128,-1,40
 778 505 778 505 726 505 c 0,41,42
 709 505 709 505 695 510 c 128,-1,43
 681 515 681 515 671 525 c 1,44,-1
 671 0 l 1,45,-1
 599 0 l 1,46,-1
 599 571 l 1,47,48
 577 523 577 523 537 495 c 128,-1,49
 497 467 497 467 451 467 c 0,50,51
 390 467 390 467 346.5 508.5 c 128,-1,52
 303 550 303 550 303 609 c 0,53,54
 303 636 303 636 308.5 656.5 c 128,-1,55
 314 677 314 677 325 690 c 1,56,57
 236 690 236 690 172.5 629 c 128,-1,58
 109 568 109 568 109 481 c 0,59,60
 109 432 109 432 128.5 397.5 c 128,-1,61
 148 363 148 363 177 360 c 1,62,63
 192 373 192 373 209.5 379.5 c 128,-1,64
 227 386 227 386 244 386 c 0,65,66
 271 386 271 386 294.5 372 c 128,-1,67
 318 358 318 358 332 333 c 1,68,69
 344 354 344 354 368 366 c 128,-1,70
 392 378 392 378 422 378 c 0,71,72
 469 378 469 378 497.5 324 c 128,-1,73
 526 270 526 270 526 181 c 0,74,75
 526 100 526 100 491 43 c 128,-1,76
 456 -14 456 -14 407 -14 c 1,77,-1
 407 -14 l 1,0,1
244 52 m 1,78,79
 263 52 263 52 276 67 c 128,-1,80
 289 82 289 82 289 104 c 2,81,-1
 289 245 l 2,82,83
 289 276 289 276 276 297.5 c 128,-1,84
 263 319 263 319 244 319 c 0,85,86
 219 319 219 319 201.5 277.5 c 128,-1,87
 184 236 184 236 184 178 c 0,88,89
 184 126 184 126 201.5 89 c 128,-1,90
 219 52 219 52 244 52 c 1,91,-1
 244 52 l 1,78,79
407 52 m 1,92,93
 433 52 433 52 446.5 84 c 128,-1,94
 460 116 460 116 460 178 c 0,95,96
 460 250 460 250 447.5 281 c 128,-1,97
 435 312 435 312 407 312 c 0,98,99
 388 312 388 312 375 294.5 c 128,-1,100
 362 277 362 277 362 252 c 2,101,-1
 362 104 l 2,102,103
 362 82 362 82 375 67 c 128,-1,104
 388 52 388 52 407 52 c 1,105,-1
 407 52 l 1,92,93
726 571 m 1,106,107
 748 571 748 571 763.5 586 c 128,-1,108
 779 601 779 601 779 623 c 256,109,110
 779 645 779 645 763.5 660.5 c 128,-1,111
 748 676 748 676 726 676 c 256,112,113
 704 676 704 676 689 660.5 c 128,-1,114
 674 645 674 645 674 623 c 256,115,116
 674 601 674 601 689 586 c 128,-1,117
 704 571 704 571 726 571 c 1,118,-1
 726 571 l 1,106,107
EndSplineSet
Validated: 5
Ligature2: "'pres' Pre Base Substitutions in Oriya lookup 13-1" ngaodia viramasignodia khaodia
Ligature2: "'pres' Pre Base Substitutions in Oriya lookup 7-1" ngaodia viramasignodia_khaodia
EndChar

StartChar: ngaodia_viramasignodia_gaodia
Encoding: 65572 -1 104
Width: 863
GlyphClass: 2
Flags: W
LayerCount: 2
Back
Fore
SplineSet
235 -14 m 1,0,1
 181 -14 181 -14 148.5 38.5 c 128,-1,2
 116 91 116 91 116 178 c 0,3,4
 116 201 116 201 119.5 222 c 128,-1,5
 123 243 123 243 130 262 c 1,6,7
 86 287 86 287 60.5 338 c 128,-1,8
 35 389 35 389 35 452 c 0,9,10
 35 578 35 578 128.5 667.5 c 128,-1,11
 222 757 222 757 354 757 c 0,12,13
 434 757 434 757 499 728.5 c 128,-1,14
 564 700 564 700 599 650 c 1,15,-1
 599 725 l 1,16,-1
 671 725 l 1,17,-1
 671 706 l 1,18,19
 680 712 680 712 693 715.5 c 128,-1,20
 706 719 706 719 721 719 c 0,21,22
 772 719 772 719 808 685.5 c 128,-1,23
 844 652 844 652 844 605 c 0,24,25
 844 557 844 557 808 523.5 c 128,-1,26
 772 490 772 490 721 490 c 0,27,28
 705 490 705 490 692 493 c 128,-1,29
 679 496 679 496 671 502 c 1,30,-1
 671 0 l 1,31,-1
 599 0 l 1,32,-1
 599 484 l 2,33,34
 599 568 599 568 527 627.5 c 128,-1,35
 455 687 455 687 354 687 c 256,36,37
 253 687 253 687 181 618 c 128,-1,38
 109 549 109 549 109 452 c 0,39,40
 109 411 109 411 123 378 c 128,-1,41
 137 345 137 345 161 328 c 1,42,43
 169 344 169 344 189 354 c 128,-1,44
 209 364 209 364 235 364 c 0,45,46
 266 364 266 364 290.5 347.5 c 128,-1,47
 315 331 315 331 325 304 c 1,48,49
 334 328 334 328 358.5 342.5 c 128,-1,50
 383 357 383 357 415 357 c 0,51,52
 476 357 476 357 507.5 312 c 128,-1,53
 539 267 539 267 539 178 c 0,54,55
 539 83 539 83 507 34.5 c 128,-1,56
 475 -14 475 -14 413 -14 c 0,57,58
 380 -14 380 -14 355.5 0.5 c 128,-1,59
 331 15 331 15 325 38 c 1,60,61
 319 15 319 15 294 0.5 c 128,-1,62
 269 -14 269 -14 235 -14 c 1,63,-1
 235 -14 l 1,0,1
235 52 m 1,64,65
 257 52 257 52 272 69 c 128,-1,66
 287 86 287 86 287 110 c 2,67,-1
 287 245 l 2,68,69
 287 267 287 267 272 282 c 128,-1,70
 257 297 257 297 235 297 c 256,71,72
 213 297 213 297 198 275.5 c 128,-1,73
 183 254 183 254 183 223 c 2,74,-1
 183 133 l 2,75,76
 183 99 183 99 198 75.5 c 128,-1,77
 213 52 213 52 235 52 c 1,78,-1
 235 52 l 1,64,65
413 52 m 1,79,80
 439 52 439 52 452 74.5 c 128,-1,81
 465 97 465 97 465 142 c 2,82,-1
 465 223 l 2,83,84
 465 254 465 254 450 275.5 c 128,-1,85
 435 297 435 297 413 297 c 0,86,87
 392 297 392 297 377 282 c 128,-1,88
 362 267 362 267 362 246 c 2,89,-1
 362 112 l 2,90,91
 362 87 362 87 377 69.5 c 128,-1,92
 392 52 392 52 413 52 c 1,93,-1
 413 52 l 1,79,80
721 557 m 1,94,95
 741 557 741 557 755.5 571 c 128,-1,96
 770 585 770 585 770 605 c 0,97,98
 770 624 770 624 755.5 638 c 128,-1,99
 741 652 741 652 721 652 c 256,100,101
 701 652 701 652 687 638 c 128,-1,102
 673 624 673 624 673 605 c 0,103,104
 673 585 673 585 687 571 c 128,-1,105
 701 557 701 557 721 557 c 1,106,-1
 721 557 l 1,94,95
EndSplineSet
Validated: 5
Ligature2: "'pres' Pre Base Substitutions in Oriya lookup 13-1" ngaodia viramasignodia gaodia
Ligature2: "'pres' Pre Base Substitutions in Oriya lookup 7-1" ngaodia viramasignodia_gaodia
EndChar

StartChar: ngaodia_viramasignodia_ghaodia
Encoding: 65573 -1 105
Width: 870
GlyphClass: 2
Flags: W
LayerCount: 2
Back
Fore
SplineSet
500 -14 m 1,0,1
 448 -14 448 -14 409 10.5 c 128,-1,2
 370 35 370 35 360 74 c 1,3,4
 346 53 346 53 320 41 c 128,-1,5
 294 29 294 29 262 29 c 0,6,7
 201 29 201 29 158 75 c 128,-1,8
 115 121 115 121 115 186 c 0,9,10
 115 219 115 219 120.5 245.5 c 128,-1,11
 126 272 126 272 136 290 c 1,12,13
 88 312 88 312 60 360 c 128,-1,14
 32 408 32 408 32 467 c 0,15,16
 32 587 32 587 128 672 c 128,-1,17
 224 757 224 757 360 757 c 0,18,19
 440 757 440 757 504 729 c 128,-1,20
 568 701 568 701 603 652 c 1,21,-1
 603 725 l 1,22,-1
 676 725 l 1,23,-1
 676 705 l 1,24,25
 683 712 683 712 695.5 715.5 c 128,-1,26
 708 719 708 719 725 719 c 0,27,28
 777 719 777 719 813.5 686 c 128,-1,29
 850 653 850 653 850 606 c 0,30,31
 850 558 850 558 813.5 523.5 c 128,-1,32
 777 489 777 489 725 489 c 0,33,34
 712 489 712 489 699.5 492.5 c 128,-1,35
 687 496 687 496 676 502 c 1,36,-1
 676 0 l 1,37,-1
 603 0 l 1,38,-1
 603 38 l 1,39,40
 578 13 578 13 551 -0.5 c 128,-1,41
 524 -14 524 -14 500 -14 c 1,42,-1
 500 -14 l 1,0,1
262 96 m 1,43,44
 293 96 293 96 314.5 118 c 128,-1,45
 336 140 336 140 336 171 c 2,46,-1
 336 267 l 1,47,-1
 412 267 l 1,48,-1
 412 142 l 2,49,50
 412 105 412 105 438 78.5 c 128,-1,51
 464 52 464 52 500 52 c 0,52,53
 539 52 539 52 568.5 90.5 c 128,-1,54
 598 129 598 129 603 186 c 2,55,-1
 603 497 l 2,56,57
 603 577 603 577 532 633.5 c 128,-1,58
 461 690 461 690 360 690 c 0,59,60
 255 690 255 690 181 624.5 c 128,-1,61
 107 559 107 559 107 467 c 0,62,63
 107 421 107 421 124 389 c 128,-1,64
 141 357 141 357 165 357 c 1,65,66
 179 381 179 381 203.5 403 c 128,-1,67
 228 425 228 425 262 445 c 1,68,-1
 307 386 l 1,69,70
 252 354 252 354 220 300.5 c 128,-1,71
 188 247 188 247 188 186 c 0,72,73
 188 149 188 149 209.5 122.5 c 128,-1,74
 231 96 231 96 262 96 c 1,75,-1
 262 96 l 1,43,44
725 557 m 1,76,77
 745 557 745 557 759.5 571 c 128,-1,78
 774 585 774 585 774 605 c 0,79,80
 774 624 774 624 759.5 638 c 128,-1,81
 745 652 745 652 725 652 c 0,82,83
 706 652 706 652 692.5 638 c 128,-1,84
 679 624 679 624 679 605 c 0,85,86
 679 585 679 585 692.5 571 c 128,-1,87
 706 557 706 557 725 557 c 1,88,-1
 725 557 l 1,76,77
EndSplineSet
Validated: 5
Ligature2: "'pres' Pre Base Substitutions in Oriya lookup 13-1" ngaodia viramasignodia ghaodia
Ligature2: "'pres' Pre Base Substitutions in Oriya lookup 7-1" ngaodia viramasignodia_ghaodia
EndChar

StartChar: caodia_viramasignodia_caodia
Encoding: 65574 -1 106
Width: 721
GlyphClass: 2
Flags: W
LayerCount: 2
Back
Fore
SplineSet
274 -14 m 1,0,1
 217 -14 217 -14 183 38.5 c 128,-1,2
 149 91 149 91 149 178 c 0,3,4
 149 208 149 208 154.5 238 c 128,-1,5
 160 268 160 268 170 297 c 1,6,7
 108 314 108 314 69 365.5 c 128,-1,8
 30 417 30 417 30 483 c 0,9,10
 30 596 30 596 126 676.5 c 128,-1,11
 222 757 222 757 358 757 c 0,12,13
 496 757 496 757 593 676.5 c 128,-1,14
 690 596 690 596 690 483 c 0,15,16
 690 441 690 441 678.5 404.5 c 128,-1,17
 667 368 667 368 645 342 c 1,18,-1
 587 378 l 1,19,20
 601 403 601 403 608.5 429.5 c 128,-1,21
 616 456 616 456 616 483 c 0,22,23
 616 569 616 569 540.5 629.5 c 128,-1,24
 465 690 465 690 358 690 c 0,25,26
 252 690 252 690 177.5 629.5 c 128,-1,27
 103 569 103 569 103 483 c 0,28,29
 103 432 103 432 135.5 394 c 128,-1,30
 168 356 168 356 216 352 c 1,31,32
 227 361 227 361 242 366 c 128,-1,33
 257 371 257 371 274 371 c 0,34,35
 303 371 303 371 326.5 357 c 128,-1,36
 350 343 350 343 361 319 c 1,37,38
 372 343 372 343 395.5 357 c 128,-1,39
 419 371 419 371 447 371 c 0,40,41
 503 371 503 371 537 318.5 c 128,-1,42
 571 266 571 266 571 178 c 0,43,44
 571 91 571 91 536.5 38.5 c 128,-1,45
 502 -14 502 -14 445 -14 c 0,46,47
 419 -14 419 -14 397.5 -2.5 c 128,-1,48
 376 9 376 9 364 29 c 1,49,50
 357 10 357 10 332 -2 c 128,-1,51
 307 -14 307 -14 274 -14 c 1,52,-1
 274 -14 l 1,0,1
274 52 m 1,53,54
 300 52 300 52 313 84 c 128,-1,55
 326 116 326 116 326 178 c 256,56,57
 326 240 326 240 313 272 c 128,-1,58
 300 304 300 304 274 304 c 0,59,60
 249 304 249 304 235.5 271 c 128,-1,61
 222 238 222 238 222 178 c 0,62,63
 222 116 222 116 235 84 c 128,-1,64
 248 52 248 52 274 52 c 1,65,-1
 274 52 l 1,53,54
445 52 m 1,66,67
 470 52 470 52 483.5 85 c 128,-1,68
 497 118 497 118 497 178 c 256,69,70
 497 238 497 238 483.5 271 c 128,-1,71
 470 304 470 304 445 304 c 0,72,73
 418 304 418 304 405.5 273.5 c 128,-1,74
 393 243 393 243 393 178 c 0,75,76
 393 111 393 111 406 79 c 128,-1,77
 419 47 419 47 445 52 c 1,78,-1
 445 52 l 1,66,67
EndSplineSet
Validated: 37
Ligature2: "'pres' Pre Base Substitutions in Oriya lookup 13-1" caodia viramasignodia caodia
Ligature2: "'pres' Pre Base Substitutions in Oriya lookup 7-1" caodia viramasignodia_caodia
EndChar

StartChar: caodia_viramasignodia_chaodia
Encoding: 65575 -1 107
Width: 702
GlyphClass: 2
Flags: W
LayerCount: 2
Back
Fore
SplineSet
225 -133 m 1,0,1
 176 -133 176 -133 141 -102.5 c 128,-1,2
 106 -72 106 -72 106 -29 c 0,3,4
 106 -3 106 -3 120 19 c 128,-1,5
 134 41 134 41 158 52 c 1,6,-1
 106 81 l 1,7,8
 116 93 116 93 126.5 109.5 c 128,-1,9
 137 126 137 126 142 126 c 1,10,-1
 217 90 l 1,11,12
 264 86 264 86 300.5 70 c 128,-1,13
 337 54 337 54 358 29 c 1,14,15
 387 58 387 58 420 74 c 128,-1,16
 453 90 453 90 484 90 c 0,17,18
 540 90 540 90 579 55 c 128,-1,19
 618 20 618 20 618 -29 c 0,20,21
 618 -72 618 -72 581.5 -102.5 c 128,-1,22
 545 -133 545 -133 493 -133 c 0,23,24
 458 -133 458 -133 424.5 -115.5 c 128,-1,25
 391 -98 391 -98 365 -67 c 1,26,27
 333 -99 333 -99 297 -116 c 128,-1,28
 261 -133 261 -133 225 -133 c 1,29,-1
 225 -133 l 1,0,1
225 -74 m 1,30,31
 259 -74 259 -74 285.5 -57.5 c 128,-1,32
 312 -41 312 -41 322 -14 c 1,33,34
 304 4 304 4 280.5 13.5 c 128,-1,35
 257 23 257 23 232 23 c 0,36,37
 208 23 208 23 190.5 8 c 128,-1,38
 173 -7 173 -7 173 -29 c 0,39,40
 173 -48 173 -48 188 -61 c 128,-1,41
 203 -74 203 -74 225 -74 c 1,42,-1
 225 -74 l 1,30,31
493 -74 m 1,43,44
 517 -74 517 -74 534 -61 c 128,-1,45
 551 -48 551 -48 551 -29 c 0,46,47
 551 -7 551 -7 531.5 8 c 128,-1,48
 512 23 512 23 484 23 c 0,49,50
 460 23 460 23 439 13.5 c 128,-1,51
 418 4 418 4 403 -14 c 1,52,53
 419 -42 419 -42 443 -58 c 128,-1,54
 467 -74 467 -74 493 -74 c 1,55,-1
 493 -74 l 1,43,44
270 104 m 1,56,57
 211 104 211 104 181 138 c 128,-1,58
 151 172 151 172 151 238 c 0,59,60
 151 250 151 250 154 264 c 128,-1,61
 157 278 157 278 162 293 c 1,62,63
 103 314 103 314 67.5 366.5 c 128,-1,64
 32 419 32 419 32 483 c 0,65,66
 32 596 32 596 125.5 676.5 c 128,-1,67
 219 757 219 757 351 757 c 256,68,69
 483 757 483 757 576.5 674.5 c 128,-1,70
 670 592 670 592 670 476 c 0,71,72
 670 436 670 436 658.5 401.5 c 128,-1,73
 647 367 647 367 626 342 c 1,74,-1
 565 378 l 1,75,76
 580 404 580 404 588 429 c 128,-1,77
 596 454 596 454 596 476 c 0,78,79
 596 565 596 565 524 627.5 c 128,-1,80
 452 690 452 690 351 690 c 256,81,82
 250 690 250 690 178 629.5 c 128,-1,83
 106 569 106 569 106 483 c 0,84,85
 106 438 106 438 132 400.5 c 128,-1,86
 158 363 158 363 200 348 c 1,87,88
 209 359 209 359 225 365 c 128,-1,89
 241 371 241 371 261 371 c 0,90,91
 289 371 289 371 313 359.5 c 128,-1,92
 337 348 337 348 351 328 c 1,93,94
 365 348 365 348 389 359.5 c 128,-1,95
 413 371 413 371 441 371 c 0,96,97
 500 371 500 371 532.5 336 c 128,-1,98
 565 301 565 301 565 238 c 0,99,100
 565 174 565 174 532.5 139 c 128,-1,101
 500 104 500 104 441 104 c 0,102,103
 416 104 416 104 392 118 c 128,-1,104
 368 132 368 132 351 157 c 1,105,106
 342 133 342 133 320 118.5 c 128,-1,107
 298 104 298 104 270 104 c 1,108,-1
 270 104 l 1,56,57
270 171 m 1,109,110
 296 171 296 171 309 188 c 128,-1,111
 322 205 322 205 322 238 c 256,112,113
 322 271 322 271 309 287.5 c 128,-1,114
 296 304 296 304 270 304 c 0,115,116
 245 304 245 304 231 286.5 c 128,-1,117
 217 269 217 269 217 238 c 0,118,119
 217 206 217 206 231 188.5 c 128,-1,120
 245 171 245 171 270 171 c 1,121,-1
 270 171 l 1,109,110
441 171 m 1,122,123
 466 171 466 171 479.5 188.5 c 128,-1,124
 493 206 493 206 493 238 c 0,125,126
 493 269 493 269 479.5 286.5 c 128,-1,127
 466 304 466 304 441 304 c 0,128,129
 414 304 414 304 401.5 288 c 128,-1,130
 389 272 389 272 389 238 c 0,131,132
 389 205 389 205 402 188 c 128,-1,133
 415 171 415 171 441 171 c 1,134,-1
 441 171 l 1,122,123
EndSplineSet
Validated: 5
Ligature2: "'pres' Pre Base Substitutions in Oriya lookup 13-1" caodia viramasignodia chaodia
Ligature2: "'pres' Pre Base Substitutions in Oriya lookup 7-1" caodia viramasignodia_chaodia
EndChar

StartChar: glyph129
Encoding: 65576 -1 108
Width: 1353
GlyphClass: 2
Flags: W
LayerCount: 2
Back
Fore
SplineSet
354 -14 m 1,0,1
 278 -14 278 -14 224.5 44.5 c 128,-1,2
 171 103 171 103 171 186 c 0,3,4
 171 202 171 202 174 219 c 128,-1,5
 177 236 177 236 183 252 c 1,6,7
 115 277 115 277 74 338.5 c 128,-1,8
 33 400 33 400 33 476 c 0,9,10
 33 592 33 592 128 674.5 c 128,-1,11
 223 757 223 757 357 757 c 0,12,13
 488 757 488 757 580.5 674.5 c 128,-1,14
 673 592 673 592 673 476 c 0,15,16
 673 428 673 428 657.5 383.5 c 128,-1,17
 642 339 642 339 612 304 c 1,18,-1
 554 342 l 1,19,20
 575 372 575 372 586 406.5 c 128,-1,21
 597 441 597 441 597 476 c 0,22,23
 597 565 597 565 526.5 627.5 c 128,-1,24
 456 690 456 690 357 690 c 0,25,26
 253 690 253 690 180 627.5 c 128,-1,27
 107 565 107 565 107 476 c 0,28,29
 107 417 107 417 138 371 c 128,-1,30
 169 325 169 325 219 312 c 1,31,32
 237 343 237 343 273 360.5 c 128,-1,33
 309 378 309 378 354 378 c 0,34,35
 429 378 429 378 481.5 322 c 128,-1,36
 534 266 534 266 534 187 c 0,37,38
 534 104 534 104 481.5 45 c 128,-1,39
 429 -14 429 -14 354 -14 c 1,40,-1
 354 -14 l 1,0,1
354 52 m 1,41,42
 400 52 400 52 432 91 c 128,-1,43
 464 130 464 130 464 186 c 0,44,45
 464 238 464 238 432 275 c 128,-1,46
 400 312 400 312 354 312 c 0,47,48
 307 312 307 312 274 275 c 128,-1,49
 241 238 241 238 241 186 c 0,50,51
 241 130 241 130 274 91 c 128,-1,52
 307 52 307 52 354 52 c 1,53,-1
 354 52 l 1,41,42
1012 -14 m 1,54,55
 886 -14 886 -14 797 72.5 c 128,-1,56
 708 159 708 159 708 281 c 0,57,58
 708 328 708 328 725 370.5 c 128,-1,59
 742 413 742 413 774 445 c 1,60,61
 743 463 743 463 725.5 508.5 c 128,-1,62
 708 554 708 554 708 616 c 0,63,64
 708 660 708 660 727.5 700.5 c 128,-1,65
 747 741 747 741 783 771 c 1,66,-1
 834 728 l 1,67,68
 810 711 810 711 796.5 679.5 c 128,-1,69
 783 648 783 648 783 609 c 0,70,71
 783 518 783 518 847.5 463.5 c 128,-1,72
 912 409 912 409 1019 409 c 0,73,74
 1103 409 1103 409 1162 459 c 128,-1,75
 1221 509 1221 509 1221 580 c 0,76,77
 1221 626 1221 626 1198.5 658 c 128,-1,78
 1176 690 1176 690 1145 690 c 0,79,80
 1123 690 1123 690 1108 668.5 c 128,-1,81
 1093 647 1093 647 1093 616 c 2,82,-1
 1093 519 l 1,83,-1
 1019 519 l 1,84,-1
 1019 623 l 2,85,86
 1019 651 1019 651 1004.5 670.5 c 128,-1,87
 990 690 990 690 969 690 c 0,88,89
 944 690 944 690 926 670.5 c 128,-1,90
 908 651 908 651 908 623 c 0,91,92
 908 606 908 606 917.5 589 c 128,-1,93
 927 572 927 572 945 557 c 1,94,-1
 886 513 l 1,95,96
 861 534 861 534 847.5 565 c 128,-1,97
 834 596 834 596 834 631 c 0,98,99
 834 688 834 688 871 722.5 c 128,-1,100
 908 757 908 757 969 757 c 0,101,102
 1002 757 1002 757 1028 741 c 128,-1,103
 1054 725 1054 725 1064 699 c 1,104,105
 1076 726 1076 726 1098 741.5 c 128,-1,106
 1120 757 1120 757 1145 757 c 0,107,108
 1206 757 1206 757 1249.5 707 c 128,-1,109
 1293 657 1293 657 1293 586 c 0,110,111
 1293 528 1293 528 1269.5 478.5 c 128,-1,112
 1246 429 1246 429 1205 400 c 1,113,114
 1245 386 1245 386 1269 341.5 c 128,-1,115
 1293 297 1293 297 1293 238 c 0,116,117
 1293 134 1293 134 1210.5 60 c 128,-1,118
 1128 -14 1128 -14 1012 -14 c 1,119,-1
 1012 -14 l 1,54,55
1005 52 m 1,120,121
 1094 52 1094 52 1157.5 106.5 c 128,-1,122
 1221 161 1221 161 1221 238 c 0,123,124
 1221 287 1221 287 1198.5 322 c 128,-1,125
 1176 357 1176 357 1145 357 c 0,126,127
 1123 357 1123 357 1108 344 c 128,-1,128
 1093 331 1093 331 1093 312 c 2,129,-1
 1093 193 l 1,130,-1
 1019 193 l 1,131,-1
 1019 297 l 2,132,133
 1019 322 1019 322 1004.5 339.5 c 128,-1,134
 990 357 990 357 969 357 c 0,135,136
 944 357 944 357 926 334 c 128,-1,137
 908 311 908 311 908 278 c 0,138,139
 908 259 908 259 918 242 c 128,-1,140
 928 225 928 225 945 215 c 1,141,-1
 886 171 l 1,142,143
 862 185 862 185 848 213.5 c 128,-1,144
 834 242 834 242 834 278 c 0,145,146
 834 307 834 307 843.5 331.5 c 128,-1,147
 853 356 853 356 871 371 c 1,148,149
 864 371 864 371 852 376.5 c 128,-1,150
 840 382 840 382 819 394 c 1,151,152
 802 380 802 380 792.5 348.5 c 128,-1,153
 783 317 783 317 783 275 c 0,154,155
 783 183 783 183 848 117.5 c 128,-1,156
 913 52 913 52 1005 52 c 1,157,-1
 1005 52 l 1,120,121
EndSplineSet
Validated: 5
EndChar

StartChar: jaodia_viramasignodia_jaodia
Encoding: 65577 -1 109
Width: 722
GlyphClass: 2
Flags: W
LayerCount: 2
Back
Fore
SplineSet
318 -23 m 1,0,1
 253 -23 253 -23 207 22.5 c 128,-1,2
 161 68 161 68 161 133 c 0,3,4
 161 168 161 168 173 197.5 c 128,-1,5
 185 227 185 227 206 245 c 1,6,7
 176 253 176 253 157 288 c 128,-1,8
 138 323 138 323 138 371 c 1,9,10
 92 371 92 371 60 414.5 c 128,-1,11
 28 458 28 458 28 519 c 0,12,13
 28 618 28 618 125.5 687.5 c 128,-1,14
 223 757 223 757 361 757 c 256,15,16
 499 757 499 757 597 687.5 c 128,-1,17
 695 618 695 618 695 519 c 0,18,19
 695 484 695 484 683.5 451.5 c 128,-1,20
 672 419 672 419 651 394 c 1,21,-1
 592 438 l 1,22,23
 607 455 607 455 614.5 476 c 128,-1,24
 622 497 622 497 622 519 c 0,25,26
 622 590 622 590 545.5 640 c 128,-1,27
 469 690 469 690 361 690 c 256,28,29
 253 690 253 690 177 640 c 128,-1,30
 101 590 101 590 101 519 c 0,31,32
 101 483 101 483 116.5 457 c 128,-1,33
 132 431 132 431 154 431 c 1,34,35
 166 464 166 464 193 489 c 128,-1,36
 220 514 220 514 257 528 c 1,37,-1
 294 476 l 1,38,39
 254 462 254 462 230 431 c 128,-1,40
 206 400 206 400 206 364 c 0,41,42
 206 333 206 333 223.5 311.5 c 128,-1,43
 241 290 241 290 265 290 c 0,44,45
 283 290 283 290 296 307 c 128,-1,46
 309 324 309 324 309 348 c 0,47,48
 309 401 309 401 357 438.5 c 128,-1,49
 405 476 405 476 473 476 c 2,50,-1
 547 476 l 1,51,-1
 547 275 l 1,52,-1
 605 275 l 1,53,-1
 605 0 l 1,54,-1
 532 0 l 1,55,-1
 532 200 l 1,56,-1
 473 200 l 2,57,58
 451 200 451 200 435.5 187.5 c 128,-1,59
 420 175 420 175 420 157 c 0,60,61
 420 142 420 142 431 115.5 c 128,-1,62
 442 89 442 89 442 74 c 0,63,64
 442 34 442 34 405.5 5.5 c 128,-1,65
 369 -23 369 -23 318 -23 c 1,66,-1
 318 -23 l 1,0,1
318 43 m 1,67,68
 340 43 340 43 355 52 c 128,-1,69
 370 61 370 61 370 74 c 0,70,71
 370 88 370 88 362 115.5 c 128,-1,72
 354 143 354 143 354 157 c 0,73,74
 354 203 354 203 389 235 c 128,-1,75
 424 267 424 267 473 267 c 1,76,-1
 473 409 l 1,77,78
 433 409 433 409 404.5 386.5 c 128,-1,79
 376 364 376 364 376 333 c 0,80,81
 376 290 376 290 345 259.5 c 128,-1,82
 314 229 314 229 270 229 c 1,83,84
 250 212 250 212 239 187 c 128,-1,85
 228 162 228 162 228 133 c 0,86,87
 228 96 228 96 254.5 69.5 c 128,-1,88
 281 43 281 43 318 43 c 1,89,-1
 318 43 l 1,67,68
EndSplineSet
Validated: 5
Ligature2: "'pres' Pre Base Substitutions in Oriya lookup 13-1" jaodia viramasignodia jaodia
Ligature2: "'pres' Pre Base Substitutions in Oriya lookup 7-1" jaodia viramasignodia_jaodia
EndChar

StartChar: jaodia_virm_jaodia_virm_baodia
Encoding: 65578 -1 110
Width: 747
GlyphClass: 2
Flags: W
LayerCount: 2
Back
Fore
SplineSet
486 0 m 1,0,-1
 486 148 l 2,1,2
 486 167 486 167 473 180 c 128,-1,3
 460 193 460 193 441 193 c 256,4,5
 422 193 422 193 409 178 c 128,-1,6
 396 163 396 163 396 141 c 0,7,8
 396 130 396 130 407 111 c 128,-1,9
 418 92 418 92 418 81 c 0,10,11
 418 42 418 42 383.5 14 c 128,-1,12
 349 -14 349 -14 300 -14 c 0,13,14
 238 -14 238 -14 194.5 27 c 128,-1,15
 151 68 151 68 151 126 c 0,16,17
 151 162 151 162 164.5 193 c 128,-1,18
 178 224 178 224 203 245 c 1,19,20
 172 259 172 259 154 293.5 c 128,-1,21
 136 328 136 328 136 371 c 1,22,23
 88 379 88 379 57 420.5 c 128,-1,24
 26 462 26 462 26 516 c 0,25,26
 26 616 26 616 126 686.5 c 128,-1,27
 226 757 226 757 367 757 c 256,28,29
 508 757 508 757 608 686.5 c 128,-1,30
 708 616 708 616 708 516 c 0,31,32
 708 475 708 475 696.5 441 c 128,-1,33
 685 407 685 407 664 386 c 1,34,-1
 603 423 l 1,35,36
 618 438 618 438 626 462 c 128,-1,37
 634 486 634 486 634 516 c 0,38,39
 634 588 634 588 556 639 c 128,-1,40
 478 690 478 690 367 690 c 256,41,42
 256 690 256 690 177.5 639 c 128,-1,43
 99 588 99 588 99 516 c 0,44,45
 99 486 99 486 115 464 c 128,-1,46
 131 442 131 442 155 438 c 1,47,48
 169 469 169 469 197 491 c 128,-1,49
 225 513 225 513 262 523 c 1,50,-1
 293 467 l 1,51,52
 253 456 253 456 228 429.5 c 128,-1,53
 203 403 203 403 203 371 c 0,54,55
 203 337 203 337 221.5 313.5 c 128,-1,56
 240 290 240 290 267 290 c 0,57,58
 284 290 284 290 295.5 301 c 128,-1,59
 307 312 307 312 307 328 c 2,60,-1
 307 349 l 2,61,62
 307 395 307 395 344 428 c 128,-1,63
 381 461 381 461 434 461 c 0,64,65
 486 461 486 461 523 428 c 128,-1,66
 560 395 560 395 560 348 c 2,67,-1
 560 0 l 2,68,69
 560 -16 560 -16 571 -27 c 128,-1,70
 582 -38 582 -38 597 -38 c 256,71,72
 612 -38 612 -38 623 -27 c 128,-1,73
 634 -16 634 -16 634 0 c 2,74,-1
 634 96 l 1,75,-1
 706 96 l 1,76,-1
 706 -171 l 1,77,-1
 634 -171 l 1,78,-1
 634 -93 l 1,79,80
 631 -98 631 -98 620 -101 c 128,-1,81
 609 -104 609 -104 593 -104 c 0,82,83
 549 -104 549 -104 517.5 -73.5 c 128,-1,84
 486 -43 486 -43 486 0 c 1,85,-1
 486 0 l 1,0,-1
300 52 m 1,86,87
 315 52 315 52 325.5 60.5 c 128,-1,88
 336 69 336 69 336 81 c 0,89,90
 336 92 336 92 327.5 111 c 128,-1,91
 319 130 319 130 319 141 c 0,92,93
 319 153 319 153 326 175 c 128,-1,94
 333 197 333 197 333 209 c 0,95,96
 333 217 333 217 325.5 223 c 128,-1,97
 318 229 318 229 307 229 c 0,98,99
 273 229 273 229 249.5 199 c 128,-1,100
 226 169 226 169 226 126 c 0,101,102
 226 95 226 95 247.5 73.5 c 128,-1,103
 269 52 269 52 300 52 c 1,104,-1
 300 52 l 1,86,87
441 260 m 1,105,106
 453 260 453 260 464.5 256.5 c 128,-1,107
 476 253 476 253 486 246 c 1,108,-1
 486 348 l 2,109,110
 486 367 486 367 471 380.5 c 128,-1,111
 456 394 456 394 434 394 c 256,112,113
 412 394 412 394 396.5 380.5 c 128,-1,114
 381 367 381 367 381 348 c 2,115,-1
 381 312 l 2,116,117
 381 301 381 301 376 291 c 128,-1,118
 371 281 371 281 362 275 c 1,119,120
 369 274 369 274 377 268 c 128,-1,121
 385 262 385 262 393 252 c 1,122,123
 404 256 404 256 416 258 c 128,-1,124
 428 260 428 260 441 260 c 1,125,-1
 441 260 l 1,105,106
EndSplineSet
Validated: 517
Ligature2: "'pres' Pre Base Substitutions in Oriya lookup 7-1" jaodia viramasignodia_jaodia viramasignodia_baodia
Ligature2: "'pres' Pre Base Substitutions in Oriya lookup 13-1" jaodia viramasignodia jaodia viramasignodia baodia
EndChar

